999
dxfrw 0.6.3
  0
SECTION
  2
HEADER
  9
$ACADVER
  1
AC1021
  9
$DWGCODEPAGE
  3
ANSI_1252
  9
$INSBASE
 10
0
 20
0
 30
0
  9
$EXTMIN
 10
-428.5218323180044
 20
-2207.455379208375
 30
0
  9
$EXTMAX
 10
956.4781676819961
 20
-1257.455379208374
 30
0
  9
$LIMMIN
 10
0
 20
0
  9
$LIMMAX
 10
420
 20
297
  9
$ORTHOMODE
 70
    0
  9
$REGENMODE
 70
    1
  9
$FILLMODE
 70
    1
  9
$QTEXTMODE
 70
    0
  9
$MIRRTEXT
 70
    0
  9
$LTSCALE
 40
1
  9
$ATTMODE
 70
    0
  9
$TEXTSIZE
 40
2.5
  9
$TRACEWID
 40
15.68
  9
$TEXTSTYLE
  7
STANDARD
  9
$CLAYER
  8
X_ramka_przekroj_sciany
  9
$CELTYPE
  6
BYLAYER
  9
$CECOLOR
 62
  256
  9
$CELTSCALE
 40
1
  9
$DISPSILH
 70
    0
  9
$DIMSCALE
 40
10
  9
$DIMASZ
 40
1
  9
$DIMEXO
 40
0.625
  9
$DIMDLI
 40
3.75
  9
$DIMRND
 40
0
  9
$DIMDLE
 40
0
  9
$DIMEXE
 40
1.25
  9
$DIMTP
 40
0
  9
$DIMTM
 40
0
  9
$DIMTXT
 40
1
  9
$DIMCEN
 40
2.5
  9
$DIMTSZ
 40
0
  9
$DIMTOL
 70
    0
  9
$DIMLIM
 70
    0
  9
$DIMTIH
 70
    0
  9
$DIMTOH
 70
    0
  9
$DIMSE1
 70
    0
  9
$DIMSE2
 70
    0
  9
$DIMTAD
 70
    1
  9
$DIMZIN
 70
    8
  9
$DIMBLK
  1

  9
$DIMASO
 70
    1
  9
$DIMSHO
 70
    1
  9
$DIMPOST
  1

  9
$DIMAPOST
  1

  9
$DIMALT
 70
    0
  9
$DIMALTD
 70
    3
  9
$DIMALTF
 40
0.03937
  9
$DIMLFAC
 40
1
  9
$DIMTOFL
 70
    1
  9
$DIMTVP
 40
0
  9
$DIMTIX
 70
    0
  9
$DIMSOXD
 70
    0
  9
$DIMSAH
 70
    0
  9
$DIMBLK1
  1

  9
$DIMBLK2
  1

  9
$DIMSTYLE
  2
STANDARD
  9
$DIMCLRD
 70
    0
  9
$DIMCLRE
 70
  256
  9
$DIMCLRT
 70
    0
  9
$DIMTFAC
 40
1
  9
$DIMGAP
 40
0.625
  9
$DIMJUST
 70
    0
  9
$DIMSD1
 70
    0
  9
$DIMSD2
 70
    0
  9
$DIMTOLJ
 70
    0
  9
$DIMTZIN
 70
    8
  9
$DIMALTZ
 70
    0
  9
$DIMALTTZ
 70
    0
  9
$DIMUPT
 70
    0
  9
$DIMDEC
 70
    2
  9
$DIMTDEC
 70
    2
  9
$DIMALTU
 70
    2
  9
$DIMALTTD
 70
    3
  9
$DIMTXSTY
  7
standard
  9
$DIMAUNIT
 70
    0
  9
$DIMADEC
 70
    0
  9
$DIMALTRND
 40
0
  9
$DIMAZIN
 70
    0
  9
$DIMDSEP
 70
   44
  9
$DIMATFIT
 70
    3
  9
$DIMFRAC
 70
    0
  9
$DIMLDRBLK
  1
STANDARD
  9
$DIMLUNIT
 70
    2
  9
$DIMLWD
 70
   13
  9
$DIMLWE
 70
   13
  9
$DIMTMOVE
 70
    0
  9
$DIMFXL
 40
1
  9
$DIMFXLON
 70
    0
  9
$DIMJOGANG
 40
0.7854
  9
$DIMTFILL
 70
    0
  9
$DIMTFILLCLR
 70
    0
  9
$DIMARCSYM
 70
    0
  9
$DIMLTYPE
  6

  9
$DIMLTEX1
  6

  9
$DIMLTEX2
  6

  9
$LUNITS
 70
    2
  9
$LUPREC
 70
    4
  9
$SKETCHINC
 40
1
  9
$FILLETRAD
 40
0
  9
$AUNITS
 70
    0
  9
$AUPREC
 70
    2
  9
$MENU
  1
.
  9
$ELEVATION
 40
0
  9
$PELEVATION
 40
0
  9
$THICKNESS
 40
0
  9
$LIMCHECK
 70
    0
  9
$CHAMFERA
 40
0
  9
$CHAMFERB
 40
0
  9
$CHAMFERC
 40
0
  9
$CHAMFERD
 40
0
  9
$SKPOLY
 70
    0
  9
$USRTIMER
 70
    1
  9
$ANGBASE
 50
0
  9
$ANGDIR
 70
    0
  9
$PDMODE
 70
   34
  9
$PDSIZE
 40
0
  9
$PLINEWID
 40
0
  9
$SPLFRAME
 70
    0
  9
$SPLINETYPE
 70
    2
  9
$SPLINESEGS
 70
    8
  9
$HANDSEED
  5
20000
  9
$SURFTAB1
 70
    6
  9
$SURFTAB2
 70
    6
  9
$SURFTYPE
 70
    6
  9
$SURFU
 70
    6
  9
$SURFV
 70
    6
  9
$UCSBASE
  2

  9
$UCSNAME
  2

  9
$UCSORG
 10
0
 20
0
 30
0
  9
$UCSXDIR
 10
1
 20
0
 30
0
  9
$UCSYDIR
 10
0
 20
1
 30
0
  9
$UCSORTHOREF
  2

  9
$UCSORTHOVIEW
 70
    0
  9
$UCSORGTOP
 10
0
 20
0
 30
0
  9
$UCSORGBOTTOM
 10
0
 20
0
 30
0
  9
$UCSORGLEFT
 10
0
 20
0
 30
0
  9
$UCSORGRIGHT
 10
0
 20
0
 30
0
  9
$UCSORGFRONT
 10
0
 20
0
 30
0
  9
$UCSORGBACK
 10
0
 20
0
 30
0
  9
$PUCSBASE
  2

  9
$PUCSNAME
  2

  9
$PUCSORG
 10
0
 20
0
 30
0
  9
$PUCSXDIR
 10
1
 20
0
 30
0
  9
$PUCSYDIR
 10
0
 20
1
 30
0
  9
$PUCSORTHOREF
  2

  9
$PUCSORTHOVIEW
 70
    0
  9
$PUCSORGTOP
 10
0
 20
0
 30
0
  9
$PUCSORGBOTTOM
 10
0
 20
0
 30
0
  9
$PUCSORGLEFT
 10
0
 20
0
 30
0
  9
$PUCSORGRIGHT
 10
0
 20
0
 30
0
  9
$PUCSORGFRONT
 10
0
 20
0
 30
0
  9
$PUCSORGBACK
 10
0
 20
0
 30
0
  9
$USERI1
 70
    0
  9
$USERI2
 70
    0
  9
$USERI3
 70
    0
  9
$USERI4
 70
    0
  9
$USERI5
 70
    0
  9
$USERR1
 40
0
  9
$USERR2
 40
0
  9
$USERR3
 40
0
  9
$USERR4
 40
0
  9
$USERR5
 40
0
  9
$WORLDVIEW
 70
    1
  9
$SHADEDGE
 70
    3
  9
$SHADEDIF
 70
   70
  9
$TILEMODE
 70
    1
  9
$MAXACTVP
 70
   64
  9
$PINSBASE
 10
95.70436646360082
 20
451.4910758416749
 30
0
  9
$PLIMCHECK
 70
    0
  9
$PEXTMIN
 10
0
 20
0
 30
0
  9
$PEXTMAX
 10
0
 20
0
 30
0
  9
$GRIDMODE
 70
    0
  9
$SNAPSTYLE
 70
    0
  9
$GRIDUNIT
 10
0
 20
0
  9
$PLIMMIN
 10
0
 20
0
  9
$PLIMMAX
 10
297
 20
210
  9
$UNITMODE
 70
    0
  9
$VISRETAIN
 70
    1
  9
$PLINEGEN
 70
    0
  9
$PSLTSCALE
 70
    1
  9
$TREEDEPTH
 70
 3020
  9
$CMLSTYLE
  2
Standard
  9
$CMLJUST
 70
    0
  9
$CMLSCALE
 40
20
  9
$PROXYGRAPHICS
 70
    1
  9
$MEASUREMENT
 70
    1
  9
$CELWEIGHT
370
   -1
  9
$ENDCAPS
280
    0
  9
$JOINSTYLE
280
    0
  9
$LWDISPLAY
290
    0
  9
$INSUNITS
 70
    4
  9
$HYPERLINKBASE
  1

  9
$STYLESHEET
  1

  9
$XEDIT
290
    1
  9
$CEPSNTYPE
380
    0
  9
$PSTYLEMODE
290
    1
  9
$EXTNAMES
290
    1
  9
$PSVPSCALE
 40
0.2
  9
$OLESTARTUP
290
    0
  9
$SORTENTS
280
  127
  9
$INDEXCTL
280
    0
  9
$HIDETEXT
280
    1
  9
$XCLIPFRAME
290
    0
  9
$HALOGAP
280
    0
  9
$OBSCOLOR
 70
  257
  9
$OBSLTYPE
280
    0
  9
$INTERSECTIONDISPLAY
280
    0
  9
$INTERSECTIONCOLOR
 70
  257
  9
$DIMASSOC
280
    1
  9
$PROJECTNAME
  1

  9
$CAMERADISPLAY
290
    0
  9
$LENSLENGTH
 40
50
  9
$CAMERAHEIGHT
 40
0
  9
$STEPSPERSEC
 40
2
  9
$STEPSIZE
 40
50
  9
$3DDWFPREC
 40
2
  9
$PSOLWIDTH
 40
5
  9
$PSOLHEIGHT
 40
80
  9
$LOFTANG1
 40
1.570796326794897
  9
$LOFTANG2
 40
1.570796326794897
  9
$LOFTMAG1
 40
0
  9
$LOFTMAG2
 40
0
  9
$LOFTPARAM
 70
    7
  9
$LOFTNORMALS
280
    1
  9
$LATITUDE
 40
1
  9
$LONGITUDE
 40
1
  9
$NORTHDIRECTION
 40
0
  9
$TIMEZONE
 70
-8000
  9
$LIGHTGLYPHDISPLAY
280
    1
  9
$TILEMODELIGHTSYNCH
280
    1
  9
$SOLIDHIST
280
    1
  9
$SHOWHIST
280
    1
  9
$DWFFRAME
280
    2
  9
$DGNFRAME
280
    0
  9
$REALWORLDSCALE
290
    1
  9
$INTERFERECOLOR
 62
    1
  9
$CSHADOW
280
    0
  9
$SHADOWPLANELOCATION
 40
0
  0
ENDSEC
  0
SECTION
  2
CLASSES
  0
ENDSEC
  0
SECTION
  2
TABLES
  0
TABLE
  2
VPORT
  5
8
330
0
100
AcDbSymbolTable
 70
    1
  0
VPORT
  5
31
330
2
100
AcDbSymbolTableRecord
100
AcDbViewportTableRecord
  2
*ACTIVE
 70
    0
 10
0
 20
0
 11
1
 21
1
 12
1065.853646575759
 22
-300.674808075621
 13
0
 23
0
 14
10
 24
10
 15
10
 25
10
 16
0
 26
0
 36
1
 17
0
 27
0
 37
0
 40
2521.04262155713
 41
1.602446483180428
 42
50
 43
0
 44
0
 50
0
 51
0
 71
    0
 72
  100
 73
    1
 74
    3
 75
    0
 76
    0
 77
    0
 78
    0
281
    0
 65
    1
110
0
120
0
130
0
111
1
121
0
131
0
112
0
122
1
132
0
 79
    0
146
0
348
10020
 60
    7
 61
    5
292
1
282
    1
141
0
142
0
 63
  250
421
3358443
  0
ENDTAB
  0
TABLE
  2
LTYPE
  5
5
330
0
100
AcDbSymbolTable
 70
    4
  0
LTYPE
  5
14
330
5
100
AcDbSymbolTableRecord
100
AcDbLinetypeTableRecord
  2
ByBlock
 70
    0
  3

 72
   65
 73
    0
 40
0
  0
LTYPE
  5
15
330
5
100
AcDbSymbolTableRecord
100
AcDbLinetypeTableRecord
  2
ByLayer
 70
    0
  3

 72
   65
 73
    0
 40
0
  0
LTYPE
  5
16
330
5
100
AcDbSymbolTableRecord
100
AcDbLinetypeTableRecord
  2
Continuous
 70
    0
  3
Solid line
 72
   65
 73
    0
 40
0
  0
LTYPE
  5
32
330
5
100
AcDbSymbolTableRecord
100
AcDbLinetypeTableRecord
  2
DOT
 70
    0
  3
Dot . . . . . . . . . . . . . . . . . . . . . .
 72
   65
 73
    2
 40
6.35
 49
0
 74
    0
 49
-6.35
 74
    0
  0
LTYPE
  5
33
330
5
100
AcDbSymbolTableRecord
100
AcDbLinetypeTableRecord
  2
DOTTINY
 70
    0
  3
Dot (.15x) .....................................
 72
   65
 73
    2
 40
0.9525
 49
0
 74
    0
 49
-0.9525
 74
    0
  0
LTYPE
  5
34
330
5
100
AcDbSymbolTableRecord
100
AcDbLinetypeTableRecord
  2
DOT2
 70
    0
  3
Dot (.5x) .....................................
 72
   65
 73
    2
 40
3.175
 49
0
 74
    0
 49
-3.175
 74
    0
  0
LTYPE
  5
35
330
5
100
AcDbSymbolTableRecord
100
AcDbLinetypeTableRecord
  2
DOTX2
 70
    0
  3
Dot (2x) .  .  .  .  .  .  .  .  .  .  .  .  .
 72
   65
 73
    2
 40
12.7
 49
0
 74
    0
 49
-12.7
 74
    0
  0
LTYPE
  5
36
330
5
100
AcDbSymbolTableRecord
100
AcDbLinetypeTableRecord
  2
DASHED
 70
    0
  3
Dashed _ _ _ _ _ _ _ _ _ _ _ _ _ _ _ _ _
 72
   65
 73
    2
 40
19.05
 49
12.7
 74
    0
 49
-6.35
 74
    0
  0
LTYPE
  5
37
330
5
100
AcDbSymbolTableRecord
100
AcDbLinetypeTableRecord
  2
DASHEDTINY
 70
    0
  3
Dashed (.15x) _ _ _ _ _ _ _ _ _ _ _ _ _ _ _ _ _
 72
   65
 73
    2
 40
2.8575
 49
1.905
 74
    0
 49
-0.9525
 74
    0
  0
LTYPE
  5
38
330
5
100
AcDbSymbolTableRecord
100
AcDbLinetypeTableRecord
  2
DASHED2
 70
    0
  3
Dashed (.5x) _ _ _ _ _ _ _ _ _ _ _ _ _ _ _ _ _
 72
   65
 73
    2
 40
9.524999999999999
 49
6.35
 74
    0
 49
-3.175
 74
    0
  0
LTYPE
  5
39
330
5
100
AcDbSymbolTableRecord
100
AcDbLinetypeTableRecord
  2
DASHEDX2
 70
    0
  3
Dashed (2x) ____  ____  ____  ____  ____  ___
 72
   65
 73
    2
 40
38.09999999999999
 49
25.4
 74
    0
 49
-12.7
 74
    0
  0
LTYPE
  5
3A
330
5
100
AcDbSymbolTableRecord
100
AcDbLinetypeTableRecord
  2
DASHDOT
 70
    0
  3
Dash dot __ . __ . __ . __ . __ . __ . __ . __
 72
   65
 73
    4
 40
25.4
 49
12.7
 74
    0
 49
-6.35
 74
    0
 49
0
 74
    0
 49
-6.35
 74
    0
  0
LTYPE
  5
3B
330
5
100
AcDbSymbolTableRecord
100
AcDbLinetypeTableRecord
  2
DASHDOTTINY
 70
    0
  3
Dash dot (.15x) _._._._._._._._._._._._._._._.
 72
   65
 73
    4
 40
3.81
 49
1.905
 74
    0
 49
-0.9525
 74
    0
 49
0
 74
    0
 49
-0.9525
 74
    0
  0
LTYPE
  5
3C
330
5
100
AcDbSymbolTableRecord
100
AcDbLinetypeTableRecord
  2
DASHDOT2
 70
    0
  3
Dash dot (.5x) _._._._._._._._._._._._._._._.
 72
   65
 73
    4
 40
12.7
 49
6.35
 74
    0
 49
-3.175
 74
    0
 49
0
 74
    0
 49
-3.175
 74
    0
  0
LTYPE
  5
3D
330
5
100
AcDbSymbolTableRecord
100
AcDbLinetypeTableRecord
  2
DASHDOTX2
 70
    0
  3
Dash dot (2x) ____  .  ____  .  ____  .  ___
 72
   65
 73
    4
 40
50.8
 49
25.4
 74
    0
 49
-12.7
 74
    0
 49
0
 74
    0
 49
-12.7
 74
    0
  0
LTYPE
  5
3E
330
5
100
AcDbSymbolTableRecord
100
AcDbLinetypeTableRecord
  2
DIVIDE
 70
    0
  3
Divide ____ . . ____ . . ____ . . ____ . . ____
 72
   65
 73
    6
 40
31.75
 49
12.7
 74
    0
 49
-6.35
 74
    0
 49
0
 74
    0
 49
-6.35
 74
    0
 49
0
 74
    0
 49
-6.35
 74
    0
  0
LTYPE
  5
3F
330
5
100
AcDbSymbolTableRecord
100
AcDbLinetypeTableRecord
  2
DIVIDETINY
 70
    0
  3
Divide (.15x) __..__..__..__..__..__..__..__.._
 72
   65
 73
    6
 40
4.7625
 49
1.905
 74
    0
 49
-0.9525
 74
    0
 49
0
 74
    0
 49
-0.9525
 74
    0
 49
0
 74
    0
 49
-0.9525
 74
    0
  0
LTYPE
  5
40
330
5
100
AcDbSymbolTableRecord
100
AcDbLinetypeTableRecord
  2
DIVIDE2
 70
    0
  3
Divide (.5x) __..__..__..__..__..__..__..__.._
 72
   65
 73
    6
 40
15.875
 49
6.35
 74
    0
 49
-3.175
 74
    0
 49
0
 74
    0
 49
-3.175
 74
    0
 49
0
 74
    0
 49
-3.175
 74
    0
  0
LTYPE
  5
41
330
5
100
AcDbSymbolTableRecord
100
AcDbLinetypeTableRecord
  2
DIVIDEX2
 70
    0
  3
Divide (2x) ________  .  .  ________  .  .  _
 72
   65
 73
    6
 40
63.5
 49
25.4
 74
    0
 49
-12.7
 74
    0
 49
0
 74
    0
 49
-12.7
 74
    0
 49
0
 74
    0
 49
-12.7
 74
    0
  0
LTYPE
  5
42
330
5
100
AcDbSymbolTableRecord
100
AcDbLinetypeTableRecord
  2
BORDER
 70
    0
  3
Border __ __ . __ __ . __ __ . __ __ . __ __ .
 72
   65
 73
    6
 40
44.45
 49
12.7
 74
    0
 49
-6.35
 74
    0
 49
12.7
 74
    0
 49
-6.35
 74
    0
 49
0
 74
    0
 49
-6.35
 74
    0
  0
LTYPE
  5
43
330
5
100
AcDbSymbolTableRecord
100
AcDbLinetypeTableRecord
  2
BORDERTINY
 70
    0
  3
Border (.15x) __.__.__.__.__.__.__.__.__.__.__.
 72
   65
 73
    6
 40
6.6675
 49
1.905
 74
    0
 49
-0.9525
 74
    0
 49
1.905
 74
    0
 49
-0.9525
 74
    0
 49
0
 74
    0
 49
-0.9525
 74
    0
  0
LTYPE
  5
44
330
5
100
AcDbSymbolTableRecord
100
AcDbLinetypeTableRecord
  2
BORDER2
 70
    0
  3
Border (.5x) __.__.__.__.__.__.__.__.__.__.__.
 72
   65
 73
    6
 40
22.225
 49
6.35
 74
    0
 49
-3.175
 74
    0
 49
6.35
 74
    0
 49
-3.175
 74
    0
 49
0
 74
    0
 49
-3.175
 74
    0
  0
LTYPE
  5
45
330
5
100
AcDbSymbolTableRecord
100
AcDbLinetypeTableRecord
  2
BORDERX2
 70
    0
  3
Border (2x) ____  ____  .  ____  ____  .  ___
 72
   65
 73
    6
 40
88.89999999999999
 49
25.4
 74
    0
 49
-12.7
 74
    0
 49
25.4
 74
    0
 49
-12.7
 74
    0
 49
0
 74
    0
 49
-12.7
 74
    0
  0
LTYPE
  5
46
330
5
100
AcDbSymbolTableRecord
100
AcDbLinetypeTableRecord
  2
CENTER
 70
    0
  3
Center ____ _ ____ _ ____ _ ____ _ ____ _ ____
 72
   65
 73
    4
 40
50.8
 49
31.75
 74
    0
 49
-6.35
 74
    0
 49
6.35
 74
    0
 49
-6.35
 74
    0
  0
LTYPE
  5
47
330
5
100
AcDbSymbolTableRecord
100
AcDbLinetypeTableRecord
  2
CENTERTINY
 70
    0
  3
Center (.15x) ___ _ ___ _ ___ _ ___ _ ___ _ ___
 72
   65
 73
    4
 40
7.619999999999999
 49
4.7625
 74
    0
 49
-0.9525
 74
    0
 49
0.9525
 74
    0
 49
-0.9525
 74
    0
  0
LTYPE
  5
48
330
5
100
AcDbSymbolTableRecord
100
AcDbLinetypeTableRecord
  2
CENTER2
 70
    0
  3
Center (.5x) ___ _ ___ _ ___ _ ___ _ ___ _ ___
 72
   65
 73
    4
 40
28.575
 49
19.05
 74
    0
 49
-3.175
 74
    0
 49
3.175
 74
    0
 49
-3.175
 74
    0
  0
LTYPE
  5
49
330
5
100
AcDbSymbolTableRecord
100
AcDbLinetypeTableRecord
  2
CENTERX2
 70
    0
  3
Center (2x) ________  __  ________  __  _____
 72
   65
 73
    4
 40
101.6
 49
63.5
 74
    0
 49
-12.7
 74
    0
 49
12.7
 74
    0
 49
-12.7
 74
    0
  0
ENDTAB
  0
TABLE
  2
LAYER
  5
2
330
0
100
AcDbSymbolTable
 70
    1
  0
LAYER
  5
10
330
2
100
AcDbSymbolTableRecord
100
AcDbLayerTableRecord
  2
0
 70
    0
 62
    7
  6
CONTINUOUS
370
    0
390
F
  0
LAYER
  5
4A
330
2
100
AcDbSymbolTableRecord
100
AcDbLayerTableRecord
  2
C_doors
 70
    0
 62
    7
  6
CONTINUOUS
370
   25
390
F
  0
LAYER
  5
4B
330
2
100
AcDbSymbolTableRecord
100
AcDbLayerTableRecord
  2
C_okna
 70
    0
 62
    4
  6
CONTINUOUS
370
   25
390
F
  0
LAYER
  5
4C
330
2
100
AcDbSymbolTableRecord
100
AcDbLayerTableRecord
  2
F_furnitures
 70
    0
 62
  253
420
10526884
  6
CONTINUOUS
370
   25
390
F
  0
LAYER
  5
4D
330
2
100
AcDbSymbolTableRecord
100
AcDbLayerTableRecord
  2
F_kuchnia
 70
    0
 62
    3
  6
CONTINUOUS
370
   18
390
F
  0
LAYER
  5
4E
330
2
100
AcDbSymbolTableRecord
100
AcDbLayerTableRecord
  2
F_schody
 70
    0
 62
    7
  6
CONTINUOUS
370
   25
390
F
  0
LAYER
  5
4F
330
2
100
AcDbSymbolTableRecord
100
AcDbLayerTableRecord
  2
I_elek
 70
    0
 62
    1
  6
CONTINUOUS
290
0
370
    0
390
F
  0
LAYER
  5
50
330
2
100
AcDbSymbolTableRecord
100
AcDbLayerTableRecord
  2
I_kanaliza
 70
    0
 62
    4
  6
CONTINUOUS
290
0
370
    0
390
F
  0
LAYER
  5
51
330
2
100
AcDbSymbolTableRecord
100
AcDbLayerTableRecord
  2
O_taras
 70
    0
 62
  136
420
32896
  6
CONTINUOUS
370
   -3
390
F
  0
LAYER
  5
52
330
2
100
AcDbSymbolTableRecord
100
AcDbLayerTableRecord
  2
U_axes
 70
    0
 62
    6
  6
DASHDOT
290
0
370
   35
390
F
  0
LAYER
  5
53
330
2
100
AcDbSymbolTableRecord
100
AcDbLayerTableRecord
  2
W_belki
 70
    0
 62
   42
420
12747008
  6
CONTINUOUS
370
   25
390
F
  0
LAYER
  5
54
330
2
100
AcDbSymbolTableRecord
100
AcDbLayerTableRecord
  2
W_cdn
 70
    0
 62
    7
  6
CONTINUOUS
370
   -3
390
F
  0
LAYER
  5
55
330
2
100
AcDbSymbolTableRecord
100
AcDbLayerTableRecord
  2
W_elewacja
 70
    0
 62
    7
  6
CONTINUOUS
370
   25
390
F
  0
LAYER
  5
56
330
2
100
AcDbSymbolTableRecord
100
AcDbLayerTableRecord
  2
W_grunt
 70
    0
 62
    7
  6
CONTINUOUS
370
   18
390
F
  0
LAYER
  5
57
330
2
100
AcDbSymbolTableRecord
100
AcDbLayerTableRecord
  2
W_izolacja
 70
    0
 62
    7
  6
CONTINUOUS
370
   25
390
F
  0
LAYER
  5
58
330
2
100
AcDbSymbolTableRecord
100
AcDbLayerTableRecord
  2
W_izolacja_fundament
 70
    0
 62
    7
  6
CONTINUOUS
370
   18
390
F
  0
LAYER
  5
59
330
2
100
AcDbSymbolTableRecord
100
AcDbLayerTableRecord
  2
W_legenda
 70
    0
 62
    7
  6
CONTINUOUS
370
   25
390
F
  0
LAYER
  5
5A
330
2
100
AcDbSymbolTableRecord
100
AcDbLayerTableRecord
  2
W_plyta
 70
    0
 62
    7
  6
CONTINUOUS
370
   -3
390
F
  0
LAYER
  5
5B
330
2
100
AcDbSymbolTableRecord
100
AcDbLayerTableRecord
  2
W_poszycie
 70
    0
 62
    6
  6
CONTINUOUS
370
   25
390
F
  0
LAYER
  5
5C
330
2
100
AcDbSymbolTableRecord
100
AcDbLayerTableRecord
  2
W_płyta
 70
    0
 62
    1
  6
CONTINUOUS
370
   25
390
F
  0
LAYER
  5
5D
330
2
100
AcDbSymbolTableRecord
100
AcDbLayerTableRecord
  2
W_zbrojenie
 70
    0
 62
    7
  6
CONTINUOUS
370
   35
390
F
  0
LAYER
  5
5E
330
2
100
AcDbSymbolTableRecord
100
AcDbLayerTableRecord
  2
X_ramka_fundament
 70
    0
 62
    7
  6
CONTINUOUS
370
   -3
390
F
  0
LAYER
  5
5F
330
2
100
AcDbSymbolTableRecord
100
AcDbLayerTableRecord
  2
X_ramka_parter
 70
    0
 62
    7
  6
CONTINUOUS
370
   25
390
F
  0
LAYER
  5
60
330
2
100
AcDbSymbolTableRecord
100
AcDbLayerTableRecord
  2
X_ramka_pietro
 70
    0
 62
    7
  6
CONTINUOUS
370
   30
390
F
  0
LAYER
  5
61
330
2
100
AcDbSymbolTableRecord
100
AcDbLayerTableRecord
  2
X_ramka_przekroj_sciany
 70
    0
 62
    7
  6
CONTINUOUS
370
   -3
390
F
  0
LAYER
  5
62
330
2
100
AcDbSymbolTableRecord
100
AcDbLayerTableRecord
  2
X_tabelka
 70
    0
 62
    7
  6
CONTINUOUS
370
   30
390
F
  0
LAYER
  5
63
330
2
100
AcDbSymbolTableRecord
100
AcDbLayerTableRecord
  2
X_wymiary
 70
    0
 62
    7
  6
CONTINUOUS
370
   30
390
F
  0
LAYER
  5
64
330
2
100
AcDbSymbolTableRecord
100
AcDbLayerTableRecord
  2
sketch
 70
    0
 62
    7
  6
CONTINUOUS
370
   35
390
F
  0
ENDTAB
  0
TABLE
  2
STYLE
  5
3
330
0
100
AcDbSymbolTable
 70
    3
  0
STYLE
  5
65
330
2
100
AcDbSymbolTableRecord
100
AcDbTextStyleTableRecord
  2
standard
 70
    0
 40
0
 41
1
 50
0
 71
    0
 42
1
  3
standard
  4

  0
STYLE
  5
66
330
2
100
AcDbSymbolTableRecord
100
AcDbTextStyleTableRecord
  2
STANDARD
 70
    0
 40
0
 41
1
 50
0
 71
    0
 42
1
  3
STANDARD
  4

  0
ENDTAB
  0
TABLE
  2
VIEW
  5
6
330
0
100
AcDbSymbolTable
 70
    0
  0
ENDTAB
  0
TABLE
  2
UCS
  5
7
330
0
100
AcDbSymbolTable
 70
    0
  0
ENDTAB
  0
TABLE
  2
APPID
  5
9
330
0
100
AcDbSymbolTable
 70
    1
  0
APPID
  5
12
330
9
100
AcDbSymbolTableRecord
100
AcDbRegAppTableRecord
  2
ACAD
 70
    0
  0
APPID
  5
67
330
9
100
AcDbSymbolTableRecord
100
AcDbRegAppTableRecord
  2
LibreCad
 70
    0
  0
ENDTAB
  0
TABLE
  2
DIMSTYLE
  5
A
330
0
100
AcDbSymbolTable
 70
    1
100
AcDbDimStyleTable
 71
    1
  0
DIMSTYLE
105
68
330
A
100
AcDbSymbolTableRecord
100
AcDbDimStyleTableRecord
  2
Standard
 70
    0
 40
10
 41
1
 42
0.625
 43
0.38
 44
1.25
 45
0
 46
0
 47
0
 48
0
 49
1
140
1
141
0.09
142
0
143
25.4
144
1
145
0
146
1
147
0.625
148
0
 71
    0
 72
    0
 73
    0
 74
    1
 75
    0
 76
    0
 77
    0
 78
    8
 79
    0
170
    0
171
    2
172
    0
173
    0
174
    0
175
    0
176
    0
177
  256
178
    0
179
    0
271
    2
272
    4
273
    2
274
    2
275
    0
276
    0
277
    2
278
   44
279
    0
280
    0
281
    0
282
    0
283
    1
284
    0
285
    0
286
    0
288
    0
289
    3
340
standard
341

371
   13
372
   13
  0
ENDTAB
  0
TABLE
  2
BLOCK_RECORD
  5
1
330
0
100
AcDbSymbolTable
 70
    2
  0
BLOCK_RECORD
  5
1F
330
1
100
AcDbSymbolTableRecord
100
AcDbBlockTableRecord
  2
*Model_Space
 70
    0
280
    1
281
    0
  0
BLOCK_RECORD
  5
1E
330
1
100
AcDbSymbolTableRecord
100
AcDbBlockTableRecord
  2
*Paper_Space
 70
    0
280
    1
281
    0
  0
BLOCK_RECORD
  5
69
330
1
100
AcDbSymbolTableRecord
100
AcDbBlockTableRecord
  2
*D3
 70
    0
280
    1
281
    0
  0
BLOCK_RECORD
  5
6C
330
1
100
AcDbSymbolTableRecord
100
AcDbBlockTableRecord
  2
*D9
 70
    0
280
    1
281
    0
  0
BLOCK_RECORD
  5
6F
330
1
100
AcDbSymbolTableRecord
100
AcDbBlockTableRecord
  2
*D6
 70
    0
280
    1
281
    0
  0
BLOCK_RECORD
  5
72
330
1
100
AcDbSymbolTableRecord
100
AcDbBlockTableRecord
  2
*D5
 70
    0
280
    1
281
    0
  0
BLOCK_RECORD
  5
75
330
1
100
AcDbSymbolTableRecord
100
AcDbBlockTableRecord
  2
*D7
 70
    0
280
    1
281
    0
  0
BLOCK_RECORD
  5
78
330
1
100
AcDbSymbolTableRecord
100
AcDbBlockTableRecord
  2
*D2
 70
    0
280
    1
281
    0
  0
BLOCK_RECORD
  5
7B
330
1
100
AcDbSymbolTableRecord
100
AcDbBlockTableRecord
  2
*D4
 70
    0
280
    1
281
    0
  0
BLOCK_RECORD
  5
7E
330
1
100
AcDbSymbolTableRecord
100
AcDbBlockTableRecord
  2
*D1
 70
    0
280
    1
281
    0
  0
BLOCK_RECORD
  5
81
330
1
100
AcDbSymbolTableRecord
100
AcDbBlockTableRecord
  2
*D8
 70
    0
280
    1
281
    0
  0
BLOCK_RECORD
  5
84
330
1
100
AcDbSymbolTableRecord
100
AcDbBlockTableRecord
  2
kibel2
 70
    0
280
    1
281
    0
  0
BLOCK_RECORD
  5
87
330
1
100
AcDbSymbolTableRecord
100
AcDbBlockTableRecord
  2
umywalka
 70
    0
280
    1
281
    0
  0
BLOCK_RECORD
  5
8A
330
1
100
AcDbSymbolTableRecord
100
AcDbBlockTableRecord
  2
pralka
 70
    0
280
    1
281
    0
  0
BLOCK_RECORD
  5
8D
330
1
100
AcDbSymbolTableRecord
100
AcDbBlockTableRecord
  2
prysznic
 70
    0
280
    1
281
    0
  0
BLOCK_RECORD
  5
90
330
1
100
AcDbSymbolTableRecord
100
AcDbBlockTableRecord
  2
regał łazienkowy
 70
    0
280
    1
281
    0
  0
BLOCK_RECORD
  5
93
330
1
100
AcDbSymbolTableRecord
100
AcDbBlockTableRecord
  2
luzko
 70
    0
280
    1
281
    0
  0
BLOCK_RECORD
  5
96
330
1
100
AcDbSymbolTableRecord
100
AcDbBlockTableRecord
  2
door
 70
    0
280
    1
281
    0
  0
BLOCK_RECORD
  5
99
330
1
100
AcDbSymbolTableRecord
100
AcDbBlockTableRecord
  2
schody2
 70
    0
280
    1
281
    0
  0
BLOCK_RECORD
  5
9C
330
1
100
AcDbSymbolTableRecord
100
AcDbBlockTableRecord
  2
okno565
 70
    0
280
    1
281
    0
  0
BLOCK_RECORD
  5
9F
330
1
100
AcDbSymbolTableRecord
100
AcDbBlockTableRecord
  2
okno1465
 70
    0
280
    1
281
    0
  0
BLOCK_RECORD
  5
A2
330
1
100
AcDbSymbolTableRecord
100
AcDbBlockTableRecord
  2
okno1465b
 70
    0
280
    1
281
    0
  0
BLOCK_RECORD
  5
A5
330
1
100
AcDbSymbolTableRecord
100
AcDbBlockTableRecord
  2
gniazdo 230
 70
    0
280
    1
281
    0
  0
ENDTAB
  0
ENDSEC
  0
SECTION
  2
BLOCKS
  0
BLOCK
  5
20
330
1F
100
AcDbEntity
  8
0
100
AcDbBlockBegin
  2
*Model_Space
 70
    0
 10
0
 20
0
 30
0
  3
*Model_Space
  1

  0
ENDBLK
  5
21
330
1F
100
AcDbEntity
  8
0
100
AcDbBlockEnd
  0
BLOCK
  5
1C
330
1B
100
AcDbEntity
  8
0
100
AcDbBlockBegin
  2
*Paper_Space
 70
    0
 10
0
 20
0
 30
0
  3
*Paper_Space
  1

  0
ENDBLK
  5
1D
330
1F
100
AcDbEntity
  8
0
100
AcDbBlockEnd
  0
BLOCK
  5
6A
330
69
100
AcDbEntity
  8
0
100
AcDbBlockBegin
  2
*D3
 70
    1
 10
0
 20
0
  3
*D3
  1

  0
LINE
  5
A8
100
AcDbEntity
  8
X_wymiary
  6
ByBlock
 62
    0
370
   13
100
AcDbLine
 10
234
 20
800
 11
474
 21
800
  0
SOLID
  5
A9
100
AcDbEntity
  8
X_wymiary
  6
ByBlock
 62
    0
370
   13
100
AcDbTrace
 10
234
 20
800
 30
0
 11
244
 21
801.6651386310914
 31
0
 12
244
 22
798.3348613689086
 32
0
 13
244
 23
798.3348613689086
 33
0
  0
SOLID
  5
AA
100
AcDbEntity
  8
X_wymiary
  6
ByBlock
 62
    0
370
   13
100
AcDbTrace
 10
474
 20
800
 30
0
 11
464
 21
798.3348613689086
 31
0
 12
464
 22
801.6651386310914
 32
0
 13
464
 23
801.6651386310914
 33
0
  0
MTEXT
  5
AB
100
AcDbEntity
  8
X_wymiary
  6
CONTINUOUS
 62
    0
370
   -2
100
AcDbMText
 10
354
 20
811.25
 30
0
 40
10
 41
21.11111111111111
 71
    5
 72
    1
  1
240
  7
standard
210
0
220
0
230
1
 50
0
 73
    2
 44
1
  0
LINE
  5
AC
100
AcDbEntity
  8
X_wymiary
  6
ByBlock
 62
  256
370
   13
100
AcDbLine
 10
234
 20
680.25
 11
234
 21
812.5
  0
LINE
  5
AD
100
AcDbEntity
  8
X_wymiary
  6
ByBlock
 62
  256
370
   13
100
AcDbLine
 10
474
 20
680.25
 11
474
 21
812.5
  0
ENDBLK
  5
6B
330
69
100
AcDbEntity
  8
0
100
AcDbBlockEnd
  0
BLOCK
  5
6D
330
6C
100
AcDbEntity
  8
0
100
AcDbBlockBegin
  2
*D9
 70
    1
 10
0
 20
0
  3
*D9
  1

  0
LINE
  5
AE
100
AcDbEntity
  8
X_tabelka
  6
ByBlock
 62
    0
370
   13
100
AcDbLine
 10
-150
 20
0
 11
-150
 21
-200
  0
SOLID
  5
AF
100
AcDbEntity
  8
X_tabelka
  6
ByBlock
 62
    0
370
   13
100
AcDbTrace
 10
-150
 20
0
 30
0
 11
-148.3348613689086
 21
-10
 31
0
 12
-151.6651386310914
 22
-10
 32
0
 13
-151.6651386310914
 23
-10
 33
0
  0
SOLID
  5
B0
100
AcDbEntity
  8
X_tabelka
  6
ByBlock
 62
    0
370
   13
100
AcDbTrace
 10
-150
 20
-200
 30
0
 11
-151.6651386310914
 21
-190
 31
0
 12
-148.3348613689086
 22
-190
 32
0
 13
-148.3348613689086
 23
-190
 33
0
  0
MTEXT
  5
B1
100
AcDbEntity
  8
X_tabelka
  6
CONTINUOUS
 62
    0
370
   -2
100
AcDbMText
 10
-161.25
 20
-100
 30
0
 40
10
 41
20
 71
    5
 72
    1
  1
200
  7
standard
210
0
220
0
230
1
 50
90
 73
    2
 44
1
  0
LINE
  5
B2
100
AcDbEntity
  8
X_tabelka
  6
ByBlock
 62
  256
370
   13
100
AcDbLine
 10
243.75
 20
7.654042494670958e-16
 11
-162.5
 21
1.530808498934192e-15
  0
LINE
  5
B3
100
AcDbEntity
  8
X_tabelka
  6
ByBlock
 62
  256
370
   13
100
AcDbLine
 10
243.75
 20
-200
 11
-162.5
 21
-200
  0
ENDBLK
  5
6E
330
6C
100
AcDbEntity
  8
0
100
AcDbBlockEnd
  0
BLOCK
  5
70
330
6F
100
AcDbEntity
  8
0
100
AcDbBlockBegin
  2
*D6
 70
    1
 10
0
 20
0
  3
*D6
  1

  0
LINE
  5
B4
100
AcDbEntity
  8
X_wymiary
  6
ByBlock
 62
    0
370
   13
100
AcDbLine
 10
-150
 20
494
 11
-150
 21
440.0000000000003
  0
SOLID
  5
B5
100
AcDbEntity
  8
X_wymiary
  6
ByBlock
 62
    0
370
   13
100
AcDbTrace
 10
-150
 20
474
 30
0
 11
-151.6651386310914
 21
484
 31
0
 12
-148.3348613689086
 22
484
 32
0
 13
-148.3348613689086
 23
484
 33
0
  0
SOLID
  5
B6
100
AcDbEntity
  8
X_wymiary
  6
ByBlock
 62
    0
370
   13
100
AcDbTrace
 10
-150
 20
460.0000000000003
 30
0
 11
-148.3348613689086
 21
450.0000000000003
 31
0
 12
-151.6651386310914
 22
450.0000000000003
 32
0
 13
-151.6651386310914
 23
450.0000000000003
 33
0
  0
MTEXT
  5
B7
100
AcDbEntity
  8
X_wymiary
  6
CONTINUOUS
 62
    0
370
   -2
100
AcDbMText
 10
-161.25
 20
467.0000000000001
 30
0
 40
10
 41
11.11111111111111
 71
    5
 72
    1
  1
14
  7
standard
210
0
220
0
230
1
 50
90
 73
    2
 44
1
  0
LINE
  5
B8
100
AcDbEntity
  8
X_wymiary
  6
ByBlock
 62
  256
370
   13
100
AcDbLine
 10
19.75
 20
474
 11
-162.5
 21
474
  0
LINE
  5
B9
100
AcDbEntity
  8
X_wymiary
  6
ByBlock
 62
  256
370
   13
100
AcDbLine
 10
19.74999999999997
 20
460.0000000000003
 11
-162.5
 21
460.0000000000003
  0
ENDBLK
  5
71
330
6F
100
AcDbEntity
  8
0
100
AcDbBlockEnd
  0
BLOCK
  5
73
330
72
100
AcDbEntity
  8
0
100
AcDbBlockBegin
  2
*D5
 70
    1
 10
0
 20
0
  3
*D5
  1

  0
LINE
  5
BA
100
AcDbEntity
  8
X_wymiary
  6
ByBlock
 62
    0
370
   13
100
AcDbLine
 10
-150
 20
674
 11
-150
 21
474
  0
SOLID
  5
BB
100
AcDbEntity
  8
X_wymiary
  6
ByBlock
 62
    0
370
   13
100
AcDbTrace
 10
-150
 20
674
 30
0
 11
-148.3348613689086
 21
664
 31
0
 12
-151.6651386310914
 22
664
 32
0
 13
-151.6651386310914
 23
664
 33
0
  0
SOLID
  5
BC
100
AcDbEntity
  8
X_wymiary
  6
ByBlock
 62
    0
370
   13
100
AcDbTrace
 10
-150
 20
474
 30
0
 11
-151.6651386310914
 21
484
 31
0
 12
-148.3348613689086
 22
484
 32
0
 13
-148.3348613689086
 23
484
 33
0
  0
MTEXT
  5
BD
100
AcDbEntity
  8
X_wymiary
  6
CONTINUOUS
 62
    0
370
   -2
100
AcDbMText
 10
-161.25
 20
574
 30
0
 40
10
 41
20
 71
    5
 72
    1
  1
200
  7
standard
210
0
220
0
230
1
 50
90
 73
    2
 44
1
  0
LINE
  5
BE
100
AcDbEntity
  8
X_wymiary
  6
ByBlock
 62
  256
370
   13
100
AcDbLine
 10
19.75
 20
674
 11
-162.5
 21
674
  0
LINE
  5
BF
100
AcDbEntity
  8
X_wymiary
  6
ByBlock
 62
  256
370
   13
100
AcDbLine
 10
19.74999999999997
 20
474
 11
-162.5
 21
474
  0
ENDBLK
  5
74
330
72
100
AcDbEntity
  8
0
100
AcDbBlockEnd
  0
BLOCK
  5
76
330
75
100
AcDbEntity
  8
0
100
AcDbBlockBegin
  2
*D7
 70
    1
 10
0
 20
0
  3
*D7
  1

  0
LINE
  5
C0
100
AcDbEntity
  8
X_tabelka
  6
ByBlock
 62
    0
370
   13
100
AcDbLine
 10
-150
 20
460.0000000000003
 11
-150
 21
295.0000000000003
  0
SOLID
  5
C1
100
AcDbEntity
  8
X_tabelka
  6
ByBlock
 62
    0
370
   13
100
AcDbTrace
 10
-150
 20
460.0000000000003
 30
0
 11
-148.3348613689086
 21
450.0000000000003
 31
0
 12
-151.6651386310914
 22
450.0000000000003
 32
0
 13
-151.6651386310914
 23
450.0000000000003
 33
0
  0
SOLID
  5
C2
100
AcDbEntity
  8
X_tabelka
  6
ByBlock
 62
    0
370
   13
100
AcDbTrace
 10
-150
 20
295.0000000000003
 30
0
 11
-151.6651386310914
 21
305.0000000000003
 31
0
 12
-148.3348613689086
 22
305.0000000000003
 32
0
 13
-148.3348613689086
 23
305.0000000000003
 33
0
  0
MTEXT
  5
C3
100
AcDbEntity
  8
X_tabelka
  6
CONTINUOUS
 62
    0
370
   -2
100
AcDbMText
 10
-161.25
 20
377.5000000000003
 30
0
 40
10
 41
17.77777777777902
 71
    5
 72
    1
  1
165
  7
standard
210
0
220
0
230
1
 50
90
 73
    2
 44
1
  0
LINE
  5
C4
100
AcDbEntity
  8
X_tabelka
  6
ByBlock
 62
  256
370
   13
100
AcDbLine
 10
19.75
 20
460.0000000000003
 11
-162.5
 21
460.0000000000003
  0
LINE
  5
C5
100
AcDbEntity
  8
X_tabelka
  6
ByBlock
 62
  256
370
   13
100
AcDbLine
 10
19.75
 20
295.0000000000003
 11
-162.5
 21
295.0000000000003
  0
ENDBLK
  5
77
330
75
100
AcDbEntity
  8
0
100
AcDbBlockEnd
  0
BLOCK
  5
79
330
78
100
AcDbEntity
  8
0
100
AcDbBlockBegin
  2
*D2
 70
    1
 10
0
 20
0
  3
*D2
  1

  0
LINE
  5
C6
100
AcDbEntity
  8
X_wymiary
  6
ByBlock
 62
    0
370
   13
100
AcDbLine
 10
26
 20
800
 11
0
 21
800
  0
SOLID
  5
C7
100
AcDbEntity
  8
X_wymiary
  6
ByBlock
 62
    0
370
   13
100
AcDbTrace
 10
26
 20
800
 30
0
 11
16
 21
798.3348613689086
 31
0
 12
16
 22
801.6651386310914
 32
0
 13
16
 23
801.6651386310914
 33
0
  0
SOLID
  5
C8
100
AcDbEntity
  8
X_wymiary
  6
ByBlock
 62
    0
370
   13
100
AcDbTrace
 10
0
 20
800
 30
0
 11
10
 21
801.6651386310914
 31
0
 12
10
 22
798.3348613689086
 32
0
 13
10
 23
798.3348613689086
 33
0
  0
MTEXT
  5
C9
100
AcDbEntity
  8
X_wymiary
  6
CONTINUOUS
 62
    0
370
   -2
100
AcDbMText
 10
13
 20
811.25
 30
0
 40
10
 41
12.22222222222284
 71
    5
 72
    1
  1
26
  7
standard
210
0
220
0
230
1
 50
360
 73
    2
 44
1
  0
LINE
  5
CA
100
AcDbEntity
  8
X_wymiary
  6
ByBlock
 62
  256
370
   13
100
AcDbLine
 10
26
 20
680.25
 11
26
 21
812.5
  0
LINE
  5
CB
100
AcDbEntity
  8
X_wymiary
  6
ByBlock
 62
  256
370
   13
100
AcDbLine
 10
3.827021247335479e-16
 20
680.25
 11
7.654042494670958e-16
 21
812.5
  0
ENDBLK
  5
7A
330
78
100
AcDbEntity
  8
0
100
AcDbBlockEnd
  0
BLOCK
  5
7C
330
7B
100
AcDbEntity
  8
0
100
AcDbBlockBegin
  2
*D4
 70
    1
 10
0
 20
0
  3
*D4
  1

  0
LINE
  5
CC
100
AcDbEntity
  8
X_wymiary
  6
ByBlock
 62
    0
370
   13
100
AcDbLine
 10
500
 20
800
 11
700
 21
800
  0
SOLID
  5
CD
100
AcDbEntity
  8
X_wymiary
  6
ByBlock
 62
    0
370
   13
100
AcDbTrace
 10
500
 20
800
 30
0
 11
510
 21
801.6651386310914
 31
0
 12
510
 22
798.3348613689086
 32
0
 13
510
 23
798.3348613689086
 33
0
  0
SOLID
  5
CE
100
AcDbEntity
  8
X_wymiary
  6
ByBlock
 62
    0
370
   13
100
AcDbTrace
 10
700
 20
800
 30
0
 11
690
 21
798.3348613689086
 31
0
 12
690
 22
801.6651386310914
 32
0
 13
690
 23
801.6651386310914
 33
0
  0
MTEXT
  5
CF
100
AcDbEntity
  8
X_wymiary
  6
CONTINUOUS
 62
    0
370
   -2
100
AcDbMText
 10
600
 20
811.25
 30
0
 40
10
 41
20
 71
    5
 72
    1
  1
200
  7
standard
210
0
220
0
230
1
 50
0
 73
    2
 44
1
  0
LINE
  5
D0
100
AcDbEntity
  8
X_wymiary
  6
ByBlock
 62
  256
370
   13
100
AcDbLine
 10
500
 20
642.8749999999998
 11
500
 21
812.5
  0
LINE
  5
D1
100
AcDbEntity
  8
X_wymiary
  6
ByBlock
 62
  256
370
   13
100
AcDbLine
 10
700
 20
642.8749999999998
 11
700
 21
812.5
  0
ENDBLK
  5
7D
330
7B
100
AcDbEntity
  8
0
100
AcDbBlockEnd
  0
BLOCK
  5
7F
330
7E
100
AcDbEntity
  8
0
100
AcDbBlockBegin
  2
*D1
 70
    1
 10
0
 20
0
  3
*D1
  1

  0
LINE
  5
D2
100
AcDbEntity
  8
X_wymiary
  6
ByBlock
 62
    0
370
   13
100
AcDbLine
 10
26
 20
800
 11
207.9999999999998
 21
800
  0
SOLID
  5
D3
100
AcDbEntity
  8
X_wymiary
  6
ByBlock
 62
    0
370
   13
100
AcDbTrace
 10
26
 20
800
 30
0
 11
36
 21
801.6651386310914
 31
0
 12
36
 22
798.3348613689086
 32
0
 13
36
 23
798.3348613689086
 33
0
  0
SOLID
  5
D4
100
AcDbEntity
  8
X_wymiary
  6
ByBlock
 62
    0
370
   13
100
AcDbTrace
 10
207.9999999999998
 20
800
 30
0
 11
197.9999999999998
 21
798.3348613689086
 31
0
 12
197.9999999999998
 22
801.6651386310914
 32
0
 13
197.9999999999998
 23
801.6651386310914
 33
0
  0
MTEXT
  5
D5
100
AcDbEntity
  8
X_wymiary
  6
CONTINUOUS
 62
    0
370
   -2
100
AcDbMText
 10
116.9999999999999
 20
811.25
 30
0
 40
10
 41
17.77777777777778
 71
    5
 72
    1
  1
182
  7
standard
210
0
220
0
230
1
 50
0
 73
    2
 44
1
  0
LINE
  5
D6
100
AcDbEntity
  8
X_wymiary
  6
ByBlock
 62
  256
370
   13
100
AcDbLine
 10
26
 20
680.25
 11
26
 21
812.5
  0
LINE
  5
D7
100
AcDbEntity
  8
X_wymiary
  6
ByBlock
 62
  256
370
   13
100
AcDbLine
 10
207.9999999999998
 20
680.25
 11
207.9999999999998
 21
812.5
  0
ENDBLK
  5
80
330
7E
100
AcDbEntity
  8
0
100
AcDbBlockEnd
  0
BLOCK
  5
82
330
81
100
AcDbEntity
  8
0
100
AcDbBlockBegin
  2
*D8
 70
    1
 10
0
 20
0
  3
*D8
  1

  0
LINE
  5
D8
100
AcDbEntity
  8
X_tabelka
  6
ByBlock
 62
    0
370
   13
100
AcDbLine
 10
-150
 20
281.0000000000002
 11
-150
 21
26
  0
SOLID
  5
D9
100
AcDbEntity
  8
X_tabelka
  6
ByBlock
 62
    0
370
   13
100
AcDbTrace
 10
-150
 20
281.0000000000002
 30
0
 11
-148.3348613689086
 21
271.0000000000002
 31
0
 12
-151.6651386310914
 22
271.0000000000002
 32
0
 13
-151.6651386310914
 23
271.0000000000002
 33
0
  0
SOLID
  5
DA
100
AcDbEntity
  8
X_tabelka
  6
ByBlock
 62
    0
370
   13
100
AcDbTrace
 10
-150
 20
26
 30
0
 11
-151.6651386310914
 21
36
 31
0
 12
-148.3348613689086
 22
36
 32
0
 13
-148.3348613689086
 23
36
 33
0
  0
MTEXT
  5
DB
100
AcDbEntity
  8
X_tabelka
  6
CONTINUOUS
 62
    0
370
   -2
100
AcDbMText
 10
-161.25
 20
153.5000000000001
 30
0
 40
10
 41
20.00000000000124
 71
    5
 72
    1
  1
255
  7
standard
210
0
220
0
230
1
 50
90
 73
    2
 44
1
  0
LINE
  5
DC
100
AcDbEntity
  8
X_tabelka
  6
ByBlock
 62
  256
370
   13
100
AcDbLine
 10
19.74999999999999
 20
281.0000000000003
 11
-162.5
 21
281.0000000000002
  0
LINE
  5
DD
100
AcDbEntity
  8
X_tabelka
  6
ByBlock
 62
  256
370
   13
100
AcDbLine
 10
19.75
 20
26
 11
-162.5
 21
26
  0
ENDBLK
  5
83
330
81
100
AcDbEntity
  8
0
100
AcDbBlockEnd
  0
BLOCK
  5
85
330
84
100
AcDbEntity
  8
0
100
AcDbBlockBegin
  2
kibel2
 70
    0
 10
0
 20
0
  3
kibel2
  1

  0
LINE
  5
DE
100
AcDbEntity
  8
F_furnitures
  6
ByLayer
 62
  256
370
   -1
100
AcDbLine
 10
20
 20
0
 11
-20
 21
0
  0
ARC
  5
DF
100
AcDbEntity
  8
F_furnitures
  6
ByLayer
 62
  256
370
   -1
100
AcDbCircle
 10
0
 20
-40
 40
20
100
AcDbArc
 50
180
 51
0
  0
LINE
  5
E0
100
AcDbEntity
  8
F_furnitures
  6
ByLayer
 62
  256
370
   -1
100
AcDbLine
 10
-20
 20
0
 11
-20
 21
-40
  0
LINE
  5
E1
100
AcDbEntity
  8
F_furnitures
  6
ByLayer
 62
  256
370
   -1
100
AcDbLine
 10
20
 20
-40
 11
20
 21
0
  0
ENDBLK
  5
86
330
84
100
AcDbEntity
  8
0
100
AcDbBlockEnd
  0
BLOCK
  5
88
330
87
100
AcDbEntity
  8
0
100
AcDbBlockBegin
  2
umywalka
 70
    0
 10
0
 20
0
  3
umywalka
  1

  0
LINE
  5
E2
100
AcDbEntity
  8
F_furnitures
  6
ByLayer
 62
  256
370
   -1
100
AcDbLine
 10
0
 20
-60
 11
0
 21
0
  0
LINE
  5
E3
100
AcDbEntity
  8
F_furnitures
  6
ByLayer
 62
  256
370
   -1
100
AcDbLine
 10
0
 20
0
 11
-25
 21
0
  0
ARC
  5
E4
100
AcDbEntity
  8
F_furnitures
  6
ByLayer
 62
  256
370
   -1
100
AcDbCircle
 10
-25
 20
-10
 40
10.00000000000001
100
AcDbArc
 50
90
 51
180
  0
LINE
  5
E5
100
AcDbEntity
  8
F_furnitures
  6
ByLayer
 62
  256
370
   -1
100
AcDbLine
 10
-35.00000000000001
 20
-10
 11
-35
 21
-50
  0
LINE
  5
E6
100
AcDbEntity
  8
F_furnitures
  6
ByLayer
 62
  256
370
   -1
100
AcDbLine
 10
-25
 20
-60
 11
0
 21
-60
  0
ARC
  5
E7
100
AcDbEntity
  8
F_furnitures
  6
ByLayer
 62
  256
370
   -1
100
AcDbCircle
 10
-25
 20
-50
 40
10
100
AcDbArc
 50
180
 51
270
  0
CIRCLE
  5
E8
100
AcDbEntity
  8
F_furnitures
  6
ByLayer
 62
  256
370
   -1
100
AcDbCircle
 10
-10
 20
-30
 40
2
  0
LINE
  5
E9
100
AcDbEntity
  8
F_furnitures
  6
ByLayer
 62
  256
370
   -1
100
AcDbLine
 10
-10
 20
-28
 11
-0
 21
-28
  0
LINE
  5
EA
100
AcDbEntity
  8
F_furnitures
  6
ByLayer
 62
  256
370
   -1
100
AcDbLine
 10
-10
 20
-32
 11
0
 21
-32
  0
ENDBLK
  5
89
330
87
100
AcDbEntity
  8
0
100
AcDbBlockEnd
  0
BLOCK
  5
8B
330
8A
100
AcDbEntity
  8
0
100
AcDbBlockBegin
  2
pralka
 70
    0
 10
0
 20
0
  3
pralka
  1

  0
LWPOLYLINE
  5
EB
100
AcDbEntity
  8
F_furnitures
  6
ByLayer
 62
  256
370
   -1
100
AcDbPolyline
 90
    4
 70
    1
 43
0
 10
0
 20
-60
 10
40
 20
-60
 10
40
 20
0
 10
0
 20
0
  0
TEXT
  5
EC
100
AcDbEntity
  8
F_furnitures
  6
ByLayer
 62
  256
370
   -1
100
AcDbText
 10
20
 20
-30
 30
0
 40
20
  1
P
 50
0
 41
1
 51
0
  7
standard
 71
    0
 72
    1
 11
20
 21
-30
 31
0
210
0
220
0
230
1
100
AcDbText
 73
    2
  0
ENDBLK
  5
8C
330
8A
100
AcDbEntity
  8
0
100
AcDbBlockEnd
  0
BLOCK
  5
8E
330
8D
100
AcDbEntity
  8
0
100
AcDbBlockBegin
  2
prysznic
 70
    0
 10
0
 20
0
  3
prysznic
  1

  0
LINE
  5
ED
100
AcDbEntity
  8
F_furnitures
  6
ByLayer
 62
  256
370
   -1
100
AcDbLine
 10
90
 20
0
 11
0
 21
0
  0
LINE
  5
EE
100
AcDbEntity
  8
F_furnitures
  6
ByLayer
 62
  256
370
   -1
100
AcDbLine
 10
0
 20
0
 11
0
 21
-90
  0
ARC
  5
EF
100
AcDbEntity
  8
F_furnitures
  6
ByLayer
 62
  256
370
   -1
100
AcDbCircle
 10
45
 20
-45
 40
45
100
AcDbArc
 50
270
 51
0
  0
LINE
  5
F0
100
AcDbEntity
  8
F_furnitures
  6
ByLayer
 62
  256
370
   -1
100
AcDbLine
 10
0
 20
-90
 11
45
 21
-90
  0
LINE
  5
F1
100
AcDbEntity
  8
F_furnitures
  6
ByLayer
 62
  256
370
   -1
100
AcDbLine
 10
90
 20
-45
 11
90
 21
0
  0
LINE
  5
F2
100
AcDbEntity
  8
F_furnitures
  6
ByLayer
 62
  256
370
   -1
100
AcDbLine
 10
10
 20
-10
 11
10
 21
-80
  0
LINE
  5
F3
100
AcDbEntity
  8
F_furnitures
  6
ByLayer
 62
  256
370
   -1
100
AcDbLine
 10
10
 20
-10
 11
80
 21
-10
  0
CIRCLE
  5
F4
100
AcDbEntity
  8
F_furnitures
  6
ByLayer
 62
  256
370
   -1
100
AcDbCircle
 10
20
 20
-20
 40
2
  0
CIRCLE
  5
F5
100
AcDbEntity
  8
F_furnitures
  6
ByLayer
 62
  256
370
   -1
100
AcDbCircle
 10
20
 20
-20
 40
4
  0
LINE
  5
F6
100
AcDbEntity
  8
F_furnitures
  6
ByLayer
 62
  256
370
   -1
100
AcDbLine
 10
10
 20
-80
 11
45
 21
-80
  0
LINE
  5
F7
100
AcDbEntity
  8
F_furnitures
  6
ByLayer
 62
  256
370
   -1
100
AcDbLine
 10
80
 20
-10
 11
80
 21
-45
  0
ARC
  5
F8
100
AcDbEntity
  8
F_furnitures
  6
ByLayer
 62
  256
370
   -1
100
AcDbCircle
 10
45
 20
-45
 40
35
100
AcDbArc
 50
270
 51
0
  0
ENDBLK
  5
8F
330
8D
100
AcDbEntity
  8
0
100
AcDbBlockEnd
  0
BLOCK
  5
91
330
90
100
AcDbEntity
  8
0
100
AcDbBlockBegin
  2
regał łazienkowy
 70
    0
 10
0
 20
0
  3
regał łazienkowy
  1

  0
LWPOLYLINE
  5
F9
100
AcDbEntity
  8
F_furnitures
  6
ByLayer
 62
  256
370
   -1
100
AcDbPolyline
 90
    4
 70
    1
 43
0
 10
-25
 20
-17.5
 10
0
 20
-17.5
 10
0
 20
17.5
 10
-25
 20
17.5
  0
ENDBLK
  5
92
330
90
100
AcDbEntity
  8
0
100
AcDbBlockEnd
  0
BLOCK
  5
94
330
93
100
AcDbEntity
  8
0
100
AcDbBlockBegin
  2
luzko
 70
    0
 10
0
 20
0
  3
luzko
  1

  0
LWPOLYLINE
  5
FA
100
AcDbEntity
  8
F_furnitures
  6
ByLayer
 62
  256
370
   -1
100
AcDbPolyline
 90
    4
 70
    1
 43
0
 10
160
 20
-200
 10
0
 20
-200
 10
0
 20
0
 10
160
 20
0
  0
LWPOLYLINE
  5
FB
100
AcDbEntity
  8
F_furnitures
  6
ByLayer
 62
  256
370
   -1
100
AcDbPolyline
 90
    4
 70
    1
 43
0
 10
-9.184850993605149e-15
 20
-50
 10
160
 20
-50
 10
160
 20
-200
 10
-9.184850993605149e-15
 20
-200
  0
LINE
  5
FC
100
AcDbEntity
  8
F_furnitures
  6
ByLayer
 62
  256
370
   -1
100
AcDbLine
 10
80
 20
0
 11
79.99999999999999
 21
-50
  0
LINE
  5
FD
100
AcDbEntity
  8
F_furnitures
  6
ByLayer
 62
  256
370
   -1
100
AcDbLine
 10
10
 20
-10
 11
70
 21
-10
  0
LINE
  5
FE
100
AcDbEntity
  8
F_furnitures
  6
ByLayer
 62
  256
370
   -1
100
AcDbLine
 10
70
 20
-10
 11
70
 21
-40.00000000000001
  0
LINE
  5
FF
100
AcDbEntity
  8
F_furnitures
  6
ByLayer
 62
  256
370
   -1
100
AcDbLine
 10
70
 20
-40.00000000000001
 11
10
 21
-40.00000000000001
  0
LINE
  5
100
100
AcDbEntity
  8
F_furnitures
  6
ByLayer
 62
  256
370
   -1
100
AcDbLine
 10
10
 20
-40.00000000000001
 11
10
 21
-10
  0
LINE
  5
101
100
AcDbEntity
  8
F_furnitures
  6
ByLayer
 62
  256
370
   -1
100
AcDbLine
 10
150
 20
-10.00000000000004
 11
90
 21
-10.00000000000001
  0
LINE
  5
102
100
AcDbEntity
  8
F_furnitures
  6
ByLayer
 62
  256
370
   -1
100
AcDbLine
 10
90
 20
-10.00000000000001
 11
89.99999999999997
 21
-40.00000000000002
  0
LINE
  5
103
100
AcDbEntity
  8
F_furnitures
  6
ByLayer
 62
  256
370
   -1
100
AcDbLine
 10
89.99999999999997
 20
-40.00000000000002
 11
150
 21
-40.00000000000005
  0
LINE
  5
104
100
AcDbEntity
  8
F_furnitures
  6
ByLayer
 62
  256
370
   -1
100
AcDbLine
 10
150
 20
-40.00000000000005
 11
150
 21
-10.00000000000004
  0
ENDBLK
  5
95
330
93
100
AcDbEntity
  8
0
100
AcDbBlockEnd
  0
BLOCK
  5
97
330
96
100
AcDbEntity
  8
0
100
AcDbBlockBegin
  2
door
 70
    0
 10
0
 20
0
  3
door
  1

  0
LINE
  5
105
100
AcDbEntity
  8
sketch
  6
ByLayer
 62
  256
370
   -1
100
AcDbLine
 10
0
 20
0
 11
60
 21
0
  0
LINE
  5
106
100
AcDbEntity
  8
sketch
  6
ByLayer
 62
  256
370
   -1
100
AcDbLine
 10
0
 20
0
 11
0
 21
60
  0
ARC
  5
107
100
AcDbEntity
  8
sketch
  6
ByLayer
 62
  256
370
   -1
100
AcDbCircle
 10
0
 20
0
 40
60
100
AcDbArc
 50
0
 51
90
  0
ENDBLK
  5
98
330
96
100
AcDbEntity
  8
0
100
AcDbBlockEnd
  0
BLOCK
  5
9A
330
99
100
AcDbEntity
  8
0
100
AcDbBlockBegin
  2
schody2
 70
    0
 10
0
 20
0
  3
schody2
  1

  0
LWPOLYLINE
  5
108
100
AcDbEntity
  8
F_schody
  6
ByLayer
 62
  256
370
   -1
100
AcDbPolyline
 90
    4
 70
    1
 43
0
 10
0
 20
0
 10
23.99999999999997
 20
0
 10
23.99999999999997
 20
80
 10
0
 20
80
  0
LWPOLYLINE
  5
109
100
AcDbEntity
  8
F_schody
  6
ByLayer
 62
  256
370
   -1
100
AcDbPolyline
 90
    4
 70
    1
 43
0
 10
23.99999999999997
 20
0
 10
47.99999999999997
 20
0
 10
47.99999999999997
 20
80
 10
23.99999999999997
 20
80
  0
LWPOLYLINE
  5
10A
100
AcDbEntity
  8
F_schody
  6
ByLayer
 62
  256
370
   -1
100
AcDbPolyline
 90
    4
 70
    1
 43
0
 10
47.99999999999997
 20
0
 10
71.99999999999991
 20
0
 10
71.99999999999991
 20
80
 10
47.99999999999997
 20
80
  0
LWPOLYLINE
  5
10B
100
AcDbEntity
  8
F_schody
  6
ByLayer
 62
  256
370
   -1
100
AcDbPolyline
 90
    4
 70
    1
 43
0
 10
71.99999999999991
 20
0
 10
95.99999999999986
 20
0
 10
95.99999999999986
 20
80
 10
71.99999999999991
 20
80
  0
LWPOLYLINE
  5
10C
100
AcDbEntity
  8
F_schody
  6
ByLayer
 62
  256
370
   -1
100
AcDbPolyline
 90
    4
 70
    1
 43
0
 10
95.99999999999986
 20
0
 10
119.9999999999999
 20
0
 10
119.9999999999999
 20
80
 10
95.99999999999986
 20
80
  0
LWPOLYLINE
  5
10D
100
AcDbEntity
  8
F_schody
  6
ByLayer
 62
  256
370
   -1
100
AcDbPolyline
 90
    4
 70
    1
 43
0
 10
119.9999999999999
 20
0
 10
143.9999999999999
 20
0
 10
143.9999999999999
 20
80
 10
119.9999999999999
 20
80
  0
LWPOLYLINE
  5
10E
100
AcDbEntity
  8
F_schody
  6
ByLayer
 62
  256
370
   -1
100
AcDbPolyline
 90
    4
 70
    1
 43
0
 10
143.9999999999999
 20
0
 10
167.9999999999998
 20
0
 10
167.9999999999998
 20
80
 10
143.9999999999999
 20
80
  0
LINE
  5
10F
100
AcDbEntity
  8
F_schody
  6
ByLayer
 62
  256
370
   -1
100
AcDbLine
 10
23.99999999999997
 20
40
 11
143.9999999999999
 21
40
  0
LINE
  5
110
100
AcDbEntity
  8
F_schody
  6
ByLayer
 62
  256
370
   -1
100
AcDbLine
 10
23.99999999999997
 20
40
 11
38.14213562373092
 21
54.14213562373095
  0
LINE
  5
111
100
AcDbEntity
  8
F_schody
  6
ByLayer
 62
  256
370
   -1
100
AcDbLine
 10
23.99999999999997
 20
40
 11
38.14213562373092
 21
25.85786437626905
  0
ENDBLK
  5
9B
330
99
100
AcDbEntity
  8
0
100
AcDbBlockEnd
  0
BLOCK
  5
9D
330
9C
100
AcDbEntity
  8
0
100
AcDbBlockBegin
  2
okno565
 70
    0
 10
0
 20
0
  3
okno565
  1

  0
LWPOLYLINE
  5
112
100
AcDbEntity
  8
C_okna
  6
ByLayer
 62
  256
370
   -1
100
AcDbPolyline
 90
    4
 70
    1
 43
0
 10
0
 20
-86.5
 10
-26
 20
-86.5
 10
-26
 20
0
 10
0
 20
0
  0
LINE
  5
113
100
AcDbEntity
  8
C_okna
  6
ByLayer
 62
  256
370
   -1
100
AcDbLine
 10
-10
 20
0
 11
-10
 21
-86.5
  0
LWPOLYLINE
  5
114
100
AcDbEntity
  8
C_okna
  6
ByLayer
 62
  256
370
   -1
100
AcDbPolyline
 90
    4
 70
    1
 43
0
 10
-10
 20
-86.5
 10
-16
 20
-86.5
 10
-16
 20
0
 10
-10
 20
0
  0
ENDBLK
  5
9E
330
9C
100
AcDbEntity
  8
0
100
AcDbBlockEnd
  0
BLOCK
  5
A0
330
9F
100
AcDbEntity
  8
0
100
AcDbBlockBegin
  2
okno1465
 70
    0
 10
0
 20
0
  3
okno1465
  1

  0
ENDBLK
  5
A1
330
9F
100
AcDbEntity
  8
0
100
AcDbBlockEnd
  0
BLOCK
  5
A3
330
A2
100
AcDbEntity
  8
0
100
AcDbBlockBegin
  2
okno1465b
 70
    0
 10
0
 20
0
  3
okno1465b
  1

  0
LINE
  5
115
100
AcDbEntity
  8
C_okna
  6
ByLayer
 62
  256
370
   -1
100
AcDbLine
 10
25.99999999999994
 20
-146.5000000000003
 11
0
 21
-146.5000000000003
  0
LWPOLYLINE
  5
116
100
AcDbEntity
  8
C_okna
  6
ByLayer
 62
  256
370
   -1
100
AcDbPolyline
 90
    4
 70
    1
 43
0
 10
0
 20
-146.5000000000003
 10
26
 20
-146.5000000000003
 10
26
 20
0
 10
0
 20
0
  0
LWPOLYLINE
  5
117
100
AcDbEntity
  8
C_okna
  6
ByLayer
 62
  256
370
   -1
100
AcDbPolyline
 90
    4
 70
    1
 43
0
 10
10
 20
-73.25000000000014
 10
16
 20
-73.25000000000014
 10
16
 20
0
 10
10
 20
0
  0
LWPOLYLINE
  5
118
100
AcDbEntity
  8
C_okna
  6
ByLayer
 62
  256
370
   -1
100
AcDbPolyline
 90
    4
 70
    1
 43
0
 10
10
 20
-146.5000000000003
 10
16
 20
-146.5000000000003
 10
16
 20
-73.25000000000014
 10
10
 20
-73.25000000000014
  0
ENDBLK
  5
A4
330
A2
100
AcDbEntity
  8
0
100
AcDbBlockEnd
  0
BLOCK
  5
A6
330
A5
100
AcDbEntity
  8
0
100
AcDbBlockBegin
  2
gniazdo 230
 70
    0
 10
0
 20
0
  3
gniazdo 230
  1

  0
LINE
  5
119
100
AcDbEntity
  8
I_elek
  6
ByLayer
 62
  256
370
   -1
100
AcDbLine
 10
0
 20
0
 11
10
 21
0
  0
ARC
  5
11A
100
AcDbEntity
  8
I_elek
  6
ByLayer
 62
  256
370
   -1
100
AcDbCircle
 10
20
 20
0
 40
10
100
AcDbArc
 50
90.00000000000017
 51
270
  0
ENDBLK
  5
A7
330
A5
100
AcDbEntity
  8
0
100
AcDbBlockEnd
  0
ENDSEC
  0
SECTION
  2
ENTITIES
  0
HATCH
  5
11B
100
AcDbEntity
  8
W_grunt
  6
ByLayer
 62
  256
370
   -1
100
AcDbHatch
 10
0
 20
0
 30
0
210
0
220
0
230
1
  2
ar-conc
 70
    0
 71
    0
 91
    1
 92
    0
 93
    6
 72
    1
 10
2010.347298838366
 20
-2660.838200173504
 11
2010.347298838366
 21
-3660.838200173504
 72
    1
 10
2010.347298838366
 20
-3660.838200173504
 11
3290.347298838365
 21
-3660.838200173504
 72
    1
 10
3290.347298838365
 20
-3660.838200173504
 11
3290.347298838365
 21
-3260.838200173504
 72
    1
 10
3290.347298838365
 20
-3260.838200173504
 11
2710.347298838365
 21
-3260.838200173504
 72
    1
 10
2710.347298838365
 20
-3260.838200173504
 11
2110.347298838366
 21
-2660.838200173504
 72
    1
 10
2110.347298838366
 20
-2660.838200173504
 11
2010.347298838366
 21
-2660.838200173504
 97
    0
 75
    0
 76
    1
 52
0
 41
2
 77
    0
 78
    0
 98
    0
  0
HATCH
  5
11C
100
AcDbEntity
  8
W_grunt
  6
ByLayer
 62
  256
370
   -1
100
AcDbHatch
 10
0
 20
0
 30
0
210
0
220
0
230
1
  2
gost_sand
 70
    0
 71
    0
 91
    1
 92
    0
 93
    6
 72
    1
 10
2110.347298838366
 20
-2660.838200173504
 11
2710.347298838365
 21
-2660.838200173504
 72
    1
 10
2710.347298838365
 20
-2660.838200173504
 11
2710.347298838365
 21
-2960.838200173504
 72
    1
 10
2710.347298838365
 20
-2960.838200173504
 11
3290.347298838365
 21
-2960.838200173504
 72
    1
 10
3290.347298838365
 20
-2960.838200173504
 11
3290.347298838365
 21
-3260.838200173504
 72
    1
 10
3290.347298838365
 20
-3260.838200173504
 11
2710.347298838365
 21
-3260.838200173504
 72
    1
 10
2710.347298838365
 20
-3260.838200173504
 11
2110.347298838366
 21
-2660.838200173504
 97
    0
 75
    0
 76
    1
 52
0
 41
4
 77
    0
 78
    0
 98
    0
  0
HATCH
  5
11D
100
AcDbEntity
  8
W_elewacja
  6
ByLayer
 62
  256
370
   -1
100
AcDbHatch
 10
0
 20
0
 30
0
210
0
220
0
230
1
  2
gost_stone
 70
    0
 71
    0
 91
    1
 92
    0
 93
    4
 72
    1
 10
2685.347298838365
 20
-2560.838200173504
 11
2685.347298838365
 21
-1915.838200173504
 72
    1
 10
2685.347298838365
 20
-1915.838200173504
 11
2664.347298838365
 21
-1915.838200173504
 72
    1
 10
2664.347298838365
 20
-1915.838200173504
 11
2664.347298838365
 21
-2560.838200173504
 72
    1
 10
2664.347298838365
 20
-2560.838200173504
 11
2685.347298838365
 21
-2560.838200173504
 97
    0
 75
    0
 76
    1
 52
0
 41
2
 77
    0
 78
    0
 98
    0
  0
HATCH
  5
11E
100
AcDbEntity
  8
W_belki
  6
ByLayer
 62
  256
370
   -1
100
AcDbHatch
 10
0
 20
0
 30
0
210
0
220
0
230
1
  2
gost_wood
 70
    0
 71
    0
 91
    1
 92
    0
 93
    4
 72
    1
 10
2685.347298838365
 20
-1915.838200173504
 11
2685.347298838365
 21
-2560.838200173504
 72
    1
 10
2685.347298838365
 20
-2560.838200173504
 11
2710.347298838365
 21
-2560.838200173504
 72
    1
 10
2710.347298838365
 20
-2560.838200173504
 11
2710.347298838365
 21
-1915.838200173504
 72
    1
 10
2710.347298838365
 20
-1915.838200173504
 11
2685.347298838365
 21
-1915.838200173504
 97
    0
 75
    0
 76
    1
 52
0
 41
1
 77
    0
 78
    0
 98
    0
  0
HATCH
  5
11F
100
AcDbEntity
  8
W_poszycie
  6
ByLayer
 62
  256
370
   -1
100
AcDbHatch
 10
0
 20
0
 30
0
210
0
220
0
230
1
  2
gost_stone
 70
    0
 71
    0
 91
    1
 92
    0
 93
    4
 72
    1
 10
2750.347298838365
 20
-2560.838200173504
 11
2750.347298838365
 21
-1915.838200173504
 72
    1
 10
2750.347298838365
 20
-1915.838200173504
 11
2710.347298838365
 21
-1915.838200173504
 72
    1
 10
2710.347298838365
 20
-1915.838200173504
 11
2710.347298838365
 21
-2560.838200173504
 72
    1
 10
2710.347298838365
 20
-2560.838200173504
 11
2750.347298838365
 21
-2560.838200173504
 97
    0
 75
    0
 76
    1
 52
0
 41
2
 77
    0
 78
    0
 98
    0
  0
HATCH
  5
120
100
AcDbEntity
  8
W_izolacja
  6
ByLayer
 62
  256
370
   -1
100
AcDbHatch
 10
0
 20
0
 30
0
210
0
220
0
230
1
  2
arcs
 70
    0
 71
    0
 91
    1
 92
    0
 93
    8
 72
    1
 10
2750.347298838365
 20
-2560.838200173504
 11
2750.347298838365
 21
-1915.838200173504
 72
    1
 10
2750.347298838365
 20
-1915.838200173504
 11
2895.347298838365
 21
-1915.838200173504
 72
    1
 10
2895.347298838365
 20
-1915.838200173504
 11
2895.347298838365
 21
-2560.838200173504
 72
    1
 10
2895.347298838365
 20
-2560.838200173504
 11
2750.347298838365
 21
-2560.838200173504
 72
    1
 10
2895.347298838365
 20
-2560.838200173504
 11
2895.347298838365
 21
-1915.838200173504
 72
    1
 10
2895.347298838365
 20
-1915.838200173504
 11
2940.347298838365
 21
-1915.838200173504
 72
    1
 10
2940.347298838365
 20
-1915.838200173504
 11
2940.347298838365
 21
-2560.838200173504
 72
    1
 10
2940.347298838365
 20
-2560.838200173504
 11
2895.347298838365
 21
-2560.838200173504
 97
    0
 75
    0
 76
    1
 52
0
 41
1
 77
    0
 78
    0
 98
    0
  0
HATCH
  5
121
100
AcDbEntity
  8
W_płyta
  6
ByLayer
 62
  256
370
   -1
100
AcDbHatch
 10
0
 20
0
 30
0
210
0
220
0
230
1
  2
gost_stone
 70
    0
 71
    0
 91
    1
 92
    0
 93
    4
 72
    1
 10
2940.347298838365
 20
-2560.838200173504
 11
2940.347298838365
 21
-1915.838200173504
 72
    1
 10
2940.347298838365
 20
-1915.838200173504
 11
2958.347298838365
 21
-1915.838200173504
 72
    1
 10
2958.347298838365
 20
-1915.838200173504
 11
2958.347298838365
 21
-2560.838200173504
 72
    1
 10
2958.347298838365
 20
-2560.838200173504
 11
2940.347298838365
 21
-2560.838200173504
 97
    0
 75
    0
 76
    1
 52
0
 41
2
 77
    0
 78
    0
 98
    0
  0
HATCH
  5
122
100
AcDbEntity
  8
W_izolacja_fundament
  6
ByLayer
 62
  256
370
   -1
100
AcDbHatch
 10
0
 20
0
 30
0
210
0
220
0
230
1
  2
honeycomb
 70
    0
 71
    0
 91
    1
 92
    0
 93
    8
 72
    1
 10
2790.347298838365
 20
-2760.838200173504
 11
3290.347298838365
 21
-2760.838200173504
 72
    1
 10
3290.347298838365
 20
-2760.838200173504
 11
3290.347298838365
 21
-2960.838200173504
 72
    1
 10
3290.347298838365
 20
-2960.838200173504
 11
2790.347298838365
 21
-2960.838200173504
 72
    1
 10
2790.347298838365
 20
-2960.838200173504
 11
2790.347298838365
 21
-2760.838200173504
 72
    1
 10
2790.347298838365
 20
-2560.838200173504
 11
2710.347298838365
 21
-2560.838200173504
 72
    1
 10
2710.347298838365
 20
-2560.838200173504
 11
2710.347298838365
 21
-2960.838200173504
 72
    1
 10
2710.347298838365
 20
-2960.838200173504
 11
2790.347298838365
 21
-2960.838200173504
 72
    1
 10
2790.347298838365
 20
-2960.838200173504
 11
2790.347298838365
 21
-2560.838200173504
 97
    0
 75
    0
 76
    1
 52
0
 41
3
 77
    0
 78
    0
 98
    0
  0
HATCH
  5
123
100
AcDbEntity
  8
W_plyta
  6
ByLayer
 62
  256
370
   -1
100
AcDbHatch
 10
0
 20
0
 30
0
210
0
220
0
230
1
  2
concrete
 70
    0
 71
    0
 91
    1
 92
    0
 93
    4
 72
    1
 10
2790.347298838365
 20
-2560.838200173504
 11
3290.347298838365
 21
-2560.838200173504
 72
    1
 10
3290.347298838365
 20
-2560.838200173504
 11
3290.347298838365
 21
-2760.838200173504
 72
    1
 10
3290.347298838365
 20
-2760.838200173504
 11
2790.347298838365
 21
-2760.838200173504
 72
    1
 10
2790.347298838365
 20
-2760.838200173504
 11
2790.347298838365
 21
-2560.838200173504
 97
    0
 75
    0
 76
    1
 52
0
 41
10
 77
    0
 78
    0
 98
    0
  0
HATCH
  5
124
100
AcDbEntity
  8
sketch
  6
ByLayer
 62
  256
370
   -1
100
AcDbHatch
 10
0
 20
0
 30
0
210
0
220
0
230
1
  2
kerpele
 70
    0
 71
    0
 91
    1
 92
    0
 93
    4
 72
    1
 10
2026
 20
296.0000000000003
 11
2474
 21
296.0000000000003
 72
    1
 10
2474
 20
296.0000000000003
 11
2474
 21
26
 72
    1
 10
2474
 20
26
 11
2026
 21
26
 72
    1
 10
2026
 20
26
 11
2026
 21
296.0000000000003
 97
    0
 75
    0
 76
    1
 52
0
 41
1
 77
    0
 78
    0
 98
    0
  0
HATCH
  5
125
100
AcDbEntity
  8
W_płyta
  6
ByLayer
 62
  256
370
   -1
100
AcDbHatch
 10
0
 20
0
 30
0
210
0
220
0
230
1
  2
gost_stone
 70
    0
 71
    0
 91
    1
 92
    0
 93
    4
 72
    1
 10
-126.7450448088859
 20
-1849.229917567552
 11
518.2549551911142
 21
-1849.229917567552
 72
    1
 10
518.2549551911142
 20
-1849.229917567552
 11
518.2549551911142
 21
-1867.229917567552
 72
    1
 10
518.2549551911142
 20
-1867.229917567552
 11
-126.7450448088859
 21
-1867.229917567552
 72
    1
 10
-126.7450448088859
 20
-1867.229917567552
 11
-126.7450448088859
 21
-1849.229917567552
 97
    0
 75
    0
 76
    1
 52
0
 41
2
 77
    0
 78
    0
 98
    0
  0
HATCH
  5
126
100
AcDbEntity
  8
W_izolacja
  6
ByLayer
 62
  256
370
   -1
100
AcDbHatch
 10
0
 20
0
 30
0
210
0
220
0
230
1
  2
arcs
 70
    0
 71
    0
 91
    1
 92
    0
 93
    4
 72
    1
 10
-81.74504480888585
 20
-1804.229917567552
 11
473.2549551911142
 21
-1804.229917567552
 72
    1
 10
473.2549551911142
 20
-1804.229917567552
 11
473.2549551911142
 21
-1849.229917567552
 72
    1
 10
473.2549551911142
 20
-1849.229917567552
 11
-81.74504480888585
 21
-1849.229917567552
 72
    1
 10
-81.74504480888585
 20
-1849.229917567552
 11
-81.74504480888585
 21
-1804.229917567552
 97
    0
 75
    0
 76
    1
 52
0
 41
1
 77
    0
 78
    0
 98
    0
  0
HATCH
  5
127
100
AcDbEntity
  8
W_belki
  6
ByLayer
 62
  256
370
   -1
100
AcDbHatch
 10
0
 20
0
 30
0
210
0
220
0
230
1
  2
gost_wood
 70
    0
 71
    0
 91
    1
 92
    0
 93
    8
 72
    1
 10
-126.7450448088859
 20
-1804.229917567552
 11
-81.74504480888585
 21
-1804.229917567552
 72
    1
 10
-81.74504480888585
 20
-1804.229917567552
 11
-81.74504480888585
 21
-1849.229917567552
 72
    1
 10
-81.74504480888585
 20
-1849.229917567552
 11
-126.7450448088859
 21
-1849.229917567552
 72
    1
 10
-126.7450448088859
 20
-1849.229917567552
 11
-126.7450448088859
 21
-1804.229917567552
 72
    1
 10
473.2549551911142
 20
-1804.229917567552
 11
518.2549551911142
 21
-1804.229917567552
 72
    1
 10
518.2549551911142
 20
-1804.229917567552
 11
518.2549551911142
 21
-1849.229917567552
 72
    1
 10
518.2549551911142
 20
-1849.229917567552
 11
473.2549551911142
 21
-1849.229917567552
 72
    1
 10
473.2549551911142
 20
-1849.229917567552
 11
473.2549551911142
 21
-1804.229917567552
 97
    0
 75
    0
 76
    1
 52
0
 41
1
 77
    0
 78
    0
 98
    0
  0
HATCH
  5
128
100
AcDbEntity
  8
W_izolacja
  6
ByLayer
 62
  256
370
   -1
100
AcDbHatch
 10
0
 20
0
 30
0
210
0
220
0
230
1
  2
arcs
 70
    0
 71
    0
 91
    1
 92
    0
 93
    4
 72
    1
 10
-81.74504480888585
 20
-1659.229917567552
 11
473.2549551911142
 21
-1659.229917567552
 72
    1
 10
473.2549551911142
 20
-1659.229917567552
 11
473.2549551911142
 21
-1804.229917567552
 72
    1
 10
473.2549551911142
 20
-1804.229917567552
 11
-81.74504480888585
 21
-1804.229917567552
 72
    1
 10
-81.74504480888585
 20
-1804.229917567552
 11
-81.74504480888585
 21
-1659.229917567552
 97
    0
 75
    0
 76
    1
 52
0
 41
1
 77
    0
 78
    0
 98
    0
  0
HATCH
  5
129
100
AcDbEntity
  8
W_belki
  6
ByLayer
 62
  256
370
   -1
100
AcDbHatch
 10
0
 20
0
 30
0
210
0
220
0
230
1
  2
gost_wood
 70
    0
 71
    0
 91
    1
 92
    0
 93
    8
 72
    1
 10
-126.7450448088859
 20
-1804.229917567552
 11
-81.74504480888585
 21
-1804.229917567552
 72
    1
 10
-81.74504480888585
 20
-1804.229917567552
 11
-81.74504480888585
 21
-1659.229917567552
 72
    1
 10
-81.74504480888585
 20
-1659.229917567552
 11
-126.7450448088859
 21
-1659.229917567552
 72
    1
 10
-126.7450448088859
 20
-1659.229917567552
 11
-126.7450448088859
 21
-1804.229917567552
 72
    1
 10
473.2549551911142
 20
-1804.229917567552
 11
518.2549551911142
 21
-1804.229917567552
 72
    1
 10
518.2549551911142
 20
-1804.229917567552
 11
518.2549551911142
 21
-1659.229917567552
 72
    1
 10
518.2549551911142
 20
-1659.229917567552
 11
473.2549551911142
 21
-1659.229917567552
 72
    1
 10
473.2549551911142
 20
-1659.229917567552
 11
473.2549551911142
 21
-1804.229917567552
 97
    0
 75
    0
 76
    1
 52
0
 41
1
 77
    0
 78
    0
 98
    0
  0
HATCH
  5
12A
100
AcDbEntity
  8
O_taras
  6
ByLayer
 62
  256
370
   -1
100
AcDbHatch
 10
0
 20
0
 30
0
210
0
220
0
230
1
  2
ar-parq1
 70
    0
 71
    0
 91
    1
 92
    0
 93
    6
 72
    1
 10
250
 20
0
 11
250
 21
-200
 72
    1
 10
250
 20
-200
 11
700
 21
-200
 72
    1
 10
700
 20
-200
 11
700
 21
636.6249999999998
 72
    1
 10
700
 20
636.6249999999998
 11
500
 21
636.6249999999998
 72
    1
 10
500
 20
636.6249999999998
 11
500
 21
0
 72
    1
 10
500
 20
0
 11
250
 21
0
 97
    0
 75
    0
 76
    1
 52
0
 41
1
 77
    0
 78
    0
 98
    0
  0
LWPOLYLINE
  5
12B
100
AcDbEntity
  8
sketch
  6
ByLayer
 62
  256
370
   -1
100
AcDbPolyline
 90
    4
 70
    1
 43
0
 10
0
 20
0
 10
500
 20
0
 10
500
 20
700
 10
0
 20
700
  0
LWPOLYLINE
  5
12C
100
AcDbEntity
  8
sketch
  6
ByLayer
 62
  256
370
   -1
100
AcDbPolyline
 90
    4
 70
    1
 43
0
 10
26
 20
26
 10
474
 20
26
 10
474
 20
674
 10
26
 20
674
  0
LINE
  5
12D
100
AcDbEntity
  8
U_axes
  6
ByLayer
 62
  256
370
   -1
100
AcDbLine
 10
650
 20
350
 11
-150
 21
350
  0
LINE
  5
12E
100
AcDbEntity
  8
U_axes
  6
ByLayer
 62
  256
370
   -1
100
AcDbLine
 10
250
 20
-150
 11
250
 21
850
  0
INSERT
  5
12F
100
AcDbEntity
  8
F_furnitures
  6
ByLayer
 62
  256
370
   -1
100
AcDbBlockReference
  2
luzko
 10
274
 20
674
 30
0
 41
1
 42
1
 43
0
 50
0
 70
    1
 71
    1
 44
0
 45
0
  0
LWPOLYLINE
  5
130
100
AcDbEntity
  8
sketch
  6
ByLayer
 62
  256
370
   -1
100
AcDbPolyline
 90
    4
 70
    1
 43
0
 10
25.99999999999997
 20
474
 10
207.9999999999998
 20
474
 10
207.9999999999998
 20
460.0000000000003
 10
25.99999999999997
 20
460.0000000000003
  0
INSERT
  5
131
100
AcDbEntity
  8
C_doors
  6
ByLayer
 62
  256
370
   -1
100
AcDbBlockReference
  2
door
 10
207.9999999999998
 20
450.0000000000003
 30
0
 41
-1
 42
1
 43
0
 50
90
 70
    1
 71
    1
 44
1
 45
1
  0
LWPOLYLINE
  5
132
100
AcDbEntity
  8
sketch
  6
ByLayer
 62
  256
370
   -1
100
AcDbPolyline
 90
    4
 70
    1
 43
0
 10
233.9999999999998
 20
376.0000000000003
 10
474
 20
376.0000000000003
 10
474
 20
390.0000000000003
 10
233.9999999999998
 20
390.0000000000003
  0
INSERT
  5
133
100
AcDbEntity
  8
F_schody
  6
ByLayer
 62
  256
370
   -1
100
AcDbBlockReference
  2
schody2
 10
233.9999999999998
 20
296.0000000000003
 30
0
 41
1
 42
1
 43
0
 50
0
 70
    1
 71
    1
 44
0
 45
0
  0
LINE
  5
134
100
AcDbEntity
  8
C_doors
  6
ByLayer
 62
  256
370
   -1
100
AcDbLine
 10
2.755455298081545e-15
 20
395
 11
-90
 21
395
  0
ARC
  5
135
100
AcDbEntity
  8
C_doors
  6
ByLayer
 62
  256
370
   -1
100
AcDbCircle
 10
2.755455298081545e-15
 20
395
 40
90
100
AcDbArc
 50
180
 51
270
  0
LWPOLYLINE
  5
136
100
AcDbEntity
  8
sketch
  6
ByLayer
 62
  256
370
   -1
100
AcDbPolyline
 90
    4
 70
    1
 43
0
 10
233.9999999999998
 20
281.0000000000003
 10
207.9999999999998
 20
281.0000000000003
 10
207.9999999999998
 20
674
 10
234
 20
674
  0
INSERT
  5
137
100
AcDbEntity
  8
F_furnitures
  6
ByLayer
 62
  256
370
   -1
100
AcDbBlockReference
  2
pralka
 10
26
 20
559.9999999999995
 30
0
 41
1
 42
1
 43
0
 50
0
 70
    1
 71
    1
 44
0
 45
0
  0
INSERT
  5
138
100
AcDbEntity
  8
C_okna
  6
ByLayer
 62
  256
370
   -1
100
AcDbBlockReference
  2
okno565
 10
26
 20
573.2499999999995
 30
0
 41
1
 42
1
 43
0
 50
0
 70
    1
 71
    1
 44
0
 45
0
  0
INSERT
  5
139
100
AcDbEntity
  8
C_okna
  6
ByLayer
 62
  256
370
   -1
100
AcDbBlockReference
  2
okno565
 10
500
 20
573.2499999999995
 30
0
 41
1
 42
1
 43
0
 50
0
 70
    1
 71
    1
 44
0
 45
0
  0
INSERT
  5
13A
100
AcDbEntity
  8
C_okna
  6
ByLayer
 62
  256
370
   -1
100
AcDbBlockReference
  2
okno1465b
 10
474
 20
243.2500000000007
 30
0
 41
1
 42
1
 43
0
 50
0
 70
    1
 71
    1
 44
0
 45
0
  0
LINE
  5
13B
100
AcDbEntity
  8
C_okna
  6
ByLayer
 62
  256
370
   -1
100
AcDbLine
 10
26
 20
529.9999999999995
 11
-60.00000000000001
 21
529.9999999999995
  0
TEXT
  5
13C
100
AcDbEntity
  8
C_okna
  6
ByLayer
 62
  256
370
   -1
100
AcDbText
 10
-60.00000000000001
 20
519.9999999999995
 30
0
 40
10
  1
1135
 50
0
 41
1
 51
0
  7
standard
 71
    0
 11
-60.00000000000001
 21
519.9999999999995
 31
0
210
0
220
0
230
1
100
AcDbText
 73
    2
  0
LINE
  5
13D
100
AcDbEntity
  8
C_okna
  6
ByLayer
 62
  256
370
   -1
100
AcDbLine
 10
560
 20
529.9999999999995
 11
474
 21
529.9999999999995
  0
TEXT
  5
13E
100
AcDbEntity
  8
C_okna
  6
ByLayer
 62
  256
370
   -1
100
AcDbText
 10
560
 20
519.9999999999995
 30
0
 40
10
  1
1635
 50
0
 41
1
 51
0
  7
standard
 71
    0
 72
    2
 11
560
 21
519.9999999999995
 31
0
210
0
220
0
230
1
100
AcDbText
 73
    2
  0
LINE
  5
13F
100
AcDbEntity
  8
C_okna
  6
ByLayer
 62
  256
370
   -1
100
AcDbLine
 10
560
 20
170.0000000000005
 11
474
 21
170.0000000000006
  0
TEXT
  5
140
100
AcDbEntity
  8
C_okna
  6
ByLayer
 62
  256
370
   -1
100
AcDbText
 10
560
 20
180.0000000000005
 30
0
 40
10
  1
1465
 50
0
 41
1
 51
0
  7
standard
 71
    0
 72
    2
 11
560
 21
180.0000000000005
 31
0
210
0
220
0
230
1
100
AcDbText
 73
    2
  0
TEXT
  5
141
100
AcDbEntity
  8
C_okna
  6
ByLayer
 62
  256
370
   -1
100
AcDbText
 10
560
 20
160.0000000000005
 30
0
 40
10
  1
2095
 50
0
 41
1
 51
0
  7
standard
 71
    0
 72
    2
 11
560
 21
160.0000000000005
 31
0
210
0
220
0
230
1
100
AcDbText
 73
    2
  0
LWPOLYLINE
  5
142
100
AcDbEntity
  8
F_kuchnia
  6
ByLayer
 62
  256
370
   -1
100
AcDbPolyline
 90
    4
 70
    1
 43
0
 10
25.99999999999999
 20
221.0000000000003
 10
86.00000000000003
 20
221.0000000000003
 10
86.00000000000003
 20
281.0000000000003
 10
25.99999999999999
 20
281.0000000000003
  0
TEXT
  5
143
100
AcDbEntity
  8
F_kuchnia
  6
ByLayer
 62
  256
370
   -1
100
AcDbText
 10
56.00000000000001
 20
251.0000000000003
 30
0
 40
20
  1
L
 50
0
 41
1
 51
0
  7
standard
 71
    0
 72
    1
 11
56.00000000000001
 21
251.0000000000003
 31
0
210
0
220
0
230
1
100
AcDbText
 73
    2
  0
LINE
  5
144
100
AcDbEntity
  8
F_kuchnia
  6
ByLayer
 62
  256
370
   -1
100
AcDbLine
 10
116.9999999999999
 20
281.0000000000003
 11
116.9999999999999
 21
295.0000000000003
  0
LINE
  5
145
100
AcDbEntity
  8
F_kuchnia
  6
ByLayer
 62
  256
370
   -1
100
AcDbLine
 10
176.999999999998
 20
281.0000000000003
 11
176.999999999998
 21
295.0000000000003
  0
LWPOLYLINE
  5
146
100
AcDbEntity
  8
sketch
  6
ByLayer
 62
  256
370
   -1
100
AcDbPolyline
 90
    4
 70
    1
 43
0
 10
26
 20
281.0000000000003
 10
116.9999999999999
 20
281.0000000000003
 10
116.9999999999999
 20
295.0000000000003
 10
26
 20
295.0000000000003
  0
LWPOLYLINE
  5
147
100
AcDbEntity
  8
sketch
  6
ByLayer
 62
  256
370
   -1
100
AcDbPolyline
 90
    4
 70
    1
 43
0
 10
176.999999999998
 20
281.0000000000003
 10
207.9999999999998
 20
281.0000000000003
 10
207.9999999999998
 20
295.0000000000003
 10
176.999999999998
 20
295.0000000000003
  0
TEXT
  5
148
100
AcDbEntity
  8
C_okna
  6
ByLayer
 62
  256
370
   -1
100
AcDbText
 10
560
 20
539.9999999999995
 30
0
 40
10
  1
865
 50
0
 41
1
 51
0
  7
standard
 71
    0
 72
    2
 11
560
 21
539.9999999999995
 31
0
210
0
220
0
230
1
100
AcDbText
 73
    2
  0
TEXT
  5
149
100
AcDbEntity
  8
C_okna
  6
ByLayer
 62
  256
370
   -1
100
AcDbText
 10
-60.00000000000001
 20
539.9999999999995
 30
0
 40
10
  1
865
 50
0
 41
1
 51
0
  7
standard
 71
    0
 11
-60.00000000000001
 21
539.9999999999995
 31
0
210
0
220
0
230
1
100
AcDbText
 73
    2
  0
INSERT
  5
14A
100
AcDbEntity
  8
F_furnitures
  6
ByLayer
 62
  256
370
   -1
100
AcDbBlockReference
  2
prysznic
 10
207.9999999999998
 20
674
 30
0
 41
1
 42
1
 43
0
 50
270
 70
    1
 71
    1
 44
0
 45
0
  0
INSERT
  5
14B
100
AcDbEntity
  8
I_elek
  6
ByLayer
 62
  256
370
   -1
100
AcDbBlockReference
  2
gniazdo 230
 10
26
 20
529.9999999999995
 30
0
 41
1
 42
1
 43
0
 50
0
 70
    1
 71
    1
 44
0
 45
0
  0
INSERT
  5
14C
100
AcDbEntity
  8
I_elek
  6
ByLayer
 62
  256
370
   -1
100
AcDbBlockReference
  2
gniazdo 230
 10
207.9999999999998
 20
484
 30
0
 41
1
 42
1
 43
0
 50
180
 70
    1
 71
    1
 44
0
 45
0
  0
INSERT
  5
14D
100
AcDbEntity
  8
I_elek
  6
ByLayer
 62
  256
370
   -1
100
AcDbBlockReference
  2
gniazdo 230
 10
96
 20
674
 30
0
 41
1
 42
1
 43
0
 50
270
 70
    1
 71
    1
 44
0
 45
0
  0
INSERT
  5
14E
100
AcDbEntity
  8
I_elek
  6
ByLayer
 62
  256
370
   -1
100
AcDbBlockReference
  2
gniazdo 230
 10
254
 20
674
 30
0
 41
1
 42
1
 43
0
 50
270
 70
    1
 71
    1
 44
0
 45
0
  0
INSERT
  5
14F
100
AcDbEntity
  8
I_elek
  6
ByLayer
 62
  256
370
   -1
100
AcDbBlockReference
  2
gniazdo 230
 10
454
 20
674
 30
0
 41
1
 42
1
 43
0
 50
270
 70
    1
 71
    1
 44
0
 45
0
  0
INSERT
  5
150
100
AcDbEntity
  8
I_elek
  6
ByLayer
 62
  256
370
   -1
100
AcDbBlockReference
  2
gniazdo 230
 10
233.9999999999999
 20
455.0000000000003
 30
0
 41
1
 42
1
 43
0
 50
0
 70
    1
 71
    1
 44
0
 45
0
  0
INSERT
  5
151
100
AcDbEntity
  8
I_elek
  6
ByLayer
 62
  256
370
   -1
100
AcDbBlockReference
  2
gniazdo 230
 10
474
 20
410.0000000000003
 30
0
 41
1
 42
1
 43
0
 50
180
 70
    1
 71
    1
 44
0
 45
0
  0
INSERT
  5
152
100
AcDbEntity
  8
I_elek
  6
ByLayer
 62
  256
370
   -1
100
AcDbBlockReference
  2
gniazdo 230
 10
191.999999999998
 20
295.0000000000003
 30
0
 41
1
 42
1
 43
0
 50
90
 70
    1
 71
    1
 44
0
 45
0
  0
INSERT
  5
153
100
AcDbEntity
  8
I_elek
  6
ByLayer
 62
  256
370
   -1
100
AcDbBlockReference
  2
gniazdo 230
 10
25.99999999999999
 20
251.0000000000003
 30
0
 41
1
 42
1
 43
0
 50
0
 70
    1
 71
    1
 44
0
 45
0
  0
INSERT
  5
154
100
AcDbEntity
  8
I_elek
  6
ByLayer
 62
  256
370
   -1
100
AcDbBlockReference
  2
gniazdo 230
 10
186
 20
26
 30
0
 41
1
 42
1
 43
0
 50
90
 70
    1
 71
    1
 44
0
 45
0
  0
INSERT
  5
155
100
AcDbEntity
  8
I_elek
  6
ByLayer
 62
  256
370
   -1
100
AcDbBlockReference
  2
gniazdo 230
 10
166
 20
26
 30
0
 41
1
 42
1
 43
0
 50
90
 70
    1
 71
    1
 44
0
 45
0
  0
INSERT
  5
156
100
AcDbEntity
  8
I_elek
  6
ByLayer
 62
  256
370
   -1
100
AcDbBlockReference
  2
gniazdo 230
 10
26
 20
106.75
 30
0
 41
1
 42
1
 43
0
 50
0
 70
    1
 71
    1
 44
0
 45
0
  0
INSERT
  5
157
100
AcDbEntity
  8
I_elek
  6
ByLayer
 62
  256
370
   -1
100
AcDbBlockReference
  2
gniazdo 230
 10
119.7499999999999
 20
26.00000000000001
 30
0
 41
1
 42
1
 43
0
 50
90
 70
    1
 71
    1
 44
0
 45
0
  0
TEXT
  5
158
100
AcDbEntity
  8
I_elek
  6
ByLayer
 62
  256
370
   -1
100
AcDbText
 10
45.99999999999997
 20
106.75
 30
0
 40
15
  1
2x
 50
0
 41
1
 51
0
  7
standard
 71
    0
 11
45.99999999999997
 21
106.75
 31
0
210
0
220
0
230
1
100
AcDbText
 73
    2
  0
TEXT
  5
159
100
AcDbEntity
  8
I_elek
  6
ByLayer
 62
  256
370
   -1
100
AcDbText
 10
181.999999999998
 20
325.0000000000003
 30
0
 40
15
  1
2x
 50
0
 41
1
 51
0
  7
standard
 71
    0
 11
181.999999999998
 21
325.0000000000003
 31
0
210
0
220
0
230
1
100
AcDbText
 73
    2
  0
TEXT
  5
15A
100
AcDbEntity
  8
I_elek
  6
ByLayer
 62
  256
370
   -1
100
AcDbText
 10
45.99999999999994
 20
430.0000000000003
 30
0
 40
15
  1
2x
 50
0
 41
1
 51
0
  7
standard
 71
    0
 11
45.99999999999994
 21
430.0000000000003
 31
0
210
0
220
0
230
1
100
AcDbText
 73
    2
  0
INSERT
  5
15B
100
AcDbEntity
  8
I_elek
  6
ByLayer
 62
  256
370
   -1
100
AcDbBlockReference
  2
gniazdo 230
 10
26
 20
430
 30
0
 41
1
 42
1
 43
0
 50
0
 70
    1
 71
    1
 44
0
 45
0
  0
TEXT
  5
15C
100
AcDbEntity
  8
I_elek
  6
ByLayer
 62
  256
370
   -1
100
AcDbText
 10
45.99999999999997
 20
430
 30
0
 40
15
  1
2x
 50
0
 41
1
 51
0
  7
standard
 71
    0
 11
45.99999999999997
 21
430
 31
0
210
0
220
0
230
1
100
AcDbText
 73
    2
  0
TEXT
  5
15D
100
AcDbEntity
  8
I_elek
  6
ByLayer
 62
  256
370
   -1
100
AcDbText
 10
244
 20
649
 30
0
 40
15
  1
2x
 50
0
 41
1
 51
0
  7
standard
 71
    0
 11
244
 21
649
 31
0
210
0
220
0
230
1
100
AcDbText
 73
    2
  0
TEXT
  5
15E
100
AcDbEntity
  8
I_elek
  6
ByLayer
 62
  256
370
   -1
100
AcDbText
 10
444
 20
649
 30
0
 40
15
  1
2x
 50
0
 41
1
 51
0
  7
standard
 71
    0
 11
444
 21
649
 31
0
210
0
220
0
230
1
100
AcDbText
 73
    2
  0
TEXT
  5
15F
100
AcDbEntity
  8
I_elek
  6
ByLayer
 62
  256
370
   -1
100
AcDbText
 10
253.9999999999998
 20
455.0000000000006
 30
0
 40
15
  1
2x
 50
0
 41
1
 51
0
  7
standard
 71
    0
 11
253.9999999999998
 21
455.0000000000006
 31
0
210
0
220
0
230
1
100
AcDbText
 73
    2
  0
TEXT
  5
160
100
AcDbEntity
  8
I_elek
  6
ByLayer
 62
  256
370
   -1
100
AcDbText
 10
459
 20
410.0000000000003
 30
0
 40
15
  1
2x
 50
0
 41
1
 51
0
  7
standard
 71
    0
 72
    2
 11
459
 21
410.0000000000003
 31
0
210
0
220
0
230
1
100
AcDbText
 73
    2
  0
INSERT
  5
161
100
AcDbEntity
  8
I_elek
  6
ByLayer
 62
  256
370
   -1
100
AcDbBlockReference
  2
gniazdo 230
 10
474
 20
263.2500000000007
 30
0
 41
1
 42
1
 43
0
 50
180
 70
    1
 71
    1
 44
0
 45
0
  0
TEXT
  5
162
100
AcDbEntity
  8
I_elek
  6
ByLayer
 62
  256
370
   -1
100
AcDbText
 10
459
 20
263.2500000000007
 30
0
 40
15
  1
2x
 50
0
 41
1
 51
0
  7
standard
 71
    0
 72
    2
 11
459
 21
263.2500000000007
 31
0
210
0
220
0
230
1
100
AcDbText
 73
    2
  0
INSERT
  5
163
100
AcDbEntity
  8
I_elek
  6
ByLayer
 62
  256
370
   -1
100
AcDbBlockReference
  2
gniazdo 230
 10
474
 20
76.7500000000004
 30
0
 41
1
 42
1
 43
0
 50
180
 70
    1
 71
    1
 44
0
 45
0
  0
TEXT
  5
164
100
AcDbEntity
  8
I_elek
  6
ByLayer
 62
  256
370
   -1
100
AcDbText
 10
459
 20
76.7500000000004
 30
0
 40
15
  1
2x
 50
0
 41
1
 51
0
  7
standard
 71
    0
 72
    2
 11
459
 21
76.7500000000004
 31
0
210
0
220
0
230
1
100
AcDbText
 73
    2
  0
INSERT
  5
165
100
AcDbEntity
  8
I_elek
  6
ByLayer
 62
  256
370
   -1
100
AcDbBlockReference
  2
gniazdo 230
 10
425.2500000000001
 20
26
 30
0
 41
1
 42
1
 43
0
 50
90
 70
    1
 71
    1
 44
0
 45
0
  0
TEXT
  5
166
100
AcDbEntity
  8
I_elek
  6
ByLayer
 62
  256
370
   -1
100
AcDbText
 10
415.2500000000001
 20
56
 30
0
 40
15
  1
2x
 50
0
 41
1
 51
0
  7
standard
 71
    0
 11
415.2500000000001
 21
56
 31
0
210
0
220
0
230
1
100
AcDbText
 73
    2
  0
INSERT
  5
167
100
AcDbEntity
  8
I_elek
  6
ByLayer
 62
  256
370
   -1
100
AcDbBlockReference
  2
gniazdo 230
 10
298.7500000000001
 20
26.00000000000004
 30
0
 41
1
 42
1
 43
0
 50
90
 70
    1
 71
    1
 44
0
 45
0
  0
TEXT
  5
168
100
AcDbEntity
  8
I_elek
  6
ByLayer
 62
  256
370
   -1
100
AcDbText
 10
288.7500000000001
 20
56.00000000000004
 30
0
 40
15
  1
2x
 50
0
 41
1
 51
0
  7
standard
 71
    0
 11
288.7500000000001
 21
56.00000000000004
 31
0
210
0
220
0
230
1
100
AcDbText
 73
    2
  0
LINE
  5
169
100
AcDbEntity
  8
O_taras
  6
ByLayer
 62
  256
370
   -1
100
AcDbLine
 10
250
 20
0
 11
250
 21
-200
  0
LINE
  5
16A
100
AcDbEntity
  8
O_taras
  6
ByLayer
 62
  256
370
   -1
100
AcDbLine
 10
500
 20
700
 11
500
 21
573.2499999999995
  0
LINE
  5
16B
100
AcDbEntity
  8
O_taras
  6
ByLayer
 62
  256
370
   -1
100
AcDbLine
 10
500
 20
636.6249999999998
 11
700
 21
636.6249999999998
  0
LINE
  5
16C
100
AcDbEntity
  8
O_taras
  6
ByLayer
 62
  256
370
   -1
100
AcDbLine
 10
250
 20
-200
 11
700
 21
-200
  0
LINE
  5
16D
100
AcDbEntity
  8
O_taras
  6
ByLayer
 62
  256
370
   -1
100
AcDbLine
 10
700
 20
636.6249999999998
 11
700
 21
-200
  0
LINE
  5
16E
100
AcDbEntity
  8
O_taras
  6
ByLayer
 62
  256
370
   -1
100
AcDbLine
 10
250
 20
0
 11
500
 21
0
  0
LINE
  5
16F
100
AcDbEntity
  8
O_taras
  6
ByLayer
 62
  256
370
   -1
100
AcDbLine
 10
500
 20
0
 11
500
 21
636.6249999999998
  0
LWPOLYLINE
  5
170
100
AcDbEntity
  8
sketch
  6
ByLayer
 62
  256
370
   -1
100
AcDbPolyline
 90
    4
 70
    1
 43
0
 10
2000
 20
0
 10
2500
 20
0
 10
2500
 20
700
 10
2000
 20
700
  0
LWPOLYLINE
  5
171
100
AcDbEntity
  8
sketch
  6
ByLayer
 62
  256
370
   -1
100
AcDbPolyline
 90
    4
 70
    1
 43
0
 10
2026
 20
26
 10
2474
 20
26
 10
2474
 20
674
 10
2026
 20
674
  0
INSERT
  5
172
100
AcDbEntity
  8
C_okna
  6
ByLayer
 62
  256
370
   -1
100
AcDbBlockReference
  2
okno565
 10
2293.25
 20
674
 30
0
 41
1
 42
1
 43
0
 50
270
 70
    1
 71
    1
 44
0
 45
0
  0
LINE
  5
173
100
AcDbEntity
  8
C_okna
  6
ByLayer
 62
  256
370
   -1
100
AcDbLine
 10
2250
 20
760
 11
2250
 21
674
  0
TEXT
  5
174
100
AcDbEntity
  8
C_okna
  6
ByLayer
 62
  256
370
   -1
100
AcDbText
 10
2240
 20
760
 30
0
 40
10
  1
865
 50
90
 41
1
 51
0
  7
standard
 71
    0
 72
    2
 11
2240
 21
760
 31
0
210
0
220
0
230
1
100
AcDbText
 73
    2
  0
TEXT
  5
175
100
AcDbEntity
  8
C_okna
  6
ByLayer
 62
  256
370
   -1
100
AcDbText
 10
2260
 20
760
 30
0
 40
10
  1
1135
 50
90
 41
1
 51
0
  7
standard
 71
    0
 72
    2
 11
2260
 21
760
 31
0
210
0
220
0
230
1
100
AcDbText
 73
    2
  0
LINE
  5
176
100
AcDbEntity
  8
C_okna
  6
ByLayer
 62
  256
370
   -1
100
AcDbLine
 10
2026
 20
674
 11
2081
 21
674
  0
LINE
  5
177
100
AcDbEntity
  8
C_okna
  6
ByLayer
 62
  256
370
   -1
100
AcDbLine
 10
2474
 20
674
 11
2419
 21
674
  0
LINE
  5
178
100
AcDbEntity
  8
C_okna
  6
ByLayer
 62
  256
370
   -1
100
AcDbLine
 10
2081
 20
26
 11
2419
 21
26
  0
INSERT
  5
179
100
AcDbEntity
  8
F_schody
  6
ByLayer
 62
  256
370
   -1
100
AcDbBlockReference
  2
schody2
 10
2234
 20
296.0000000000003
 30
0
 41
1
 42
1
 43
0
 50
0
 70
    1
 71
    1
 44
0
 45
0
  0
LINE
  5
17A
100
AcDbEntity
  8
sketch
  6
ByLayer
 62
  256
370
   -1
100
AcDbLine
 10
2474
 20
296.0000000000003
 11
2026
 21
296.0000000000003
  0
INSERT
  5
17B
100
AcDbEntity
  8
I_elek
  6
ByLayer
 62
  256
370
   -1
100
AcDbBlockReference
  2
gniazdo 230
 10
2166.75
 20
674
 30
0
 41
1
 42
1
 43
0
 50
270
 70
    1
 71
    1
 44
0
 45
0
  0
TEXT
  5
17C
100
AcDbEntity
  8
I_elek
  6
ByLayer
 62
  256
370
   -1
100
AcDbText
 10
2156.75
 20
649
 30
0
 40
15
  1
2x
 50
0
 41
1
 51
0
  7
standard
 71
    0
 11
2156.75
 21
649
 31
0
210
0
220
0
230
1
100
AcDbText
 73
    2
  0
INSERT
  5
17D
100
AcDbEntity
  8
I_elek
  6
ByLayer
 62
  256
370
   -1
100
AcDbBlockReference
  2
gniazdo 230
 10
2333.25
 20
674
 30
0
 41
1
 42
1
 43
0
 50
270
 70
    1
 71
    1
 44
0
 45
0
  0
TEXT
  5
17E
100
AcDbEntity
  8
I_elek
  6
ByLayer
 62
  256
370
   -1
100
AcDbText
 10
2323.25
 20
649
 30
0
 40
15
  1
2x
 50
0
 41
1
 51
0
  7
standard
 71
    0
 11
2323.25
 21
649
 31
0
210
0
220
0
230
1
100
AcDbText
 73
    2
  0
LINE
  5
17F
100
AcDbEntity
  8
C_okna
  6
ByLayer
 62
  256
370
   -1
100
AcDbLine
 10
3.061616997868383e-14
 20
1700
 11
3.061616997868383e-14
 21
2400
  0
LINE
  5
180
100
AcDbEntity
  8
C_okna
  6
ByLayer
 62
  256
370
   -1
100
AcDbLine
 10
3.061616997868383e-14
 20
2400
 11
500.0000000000001
 21
2400
  0
LINE
  5
181
100
AcDbEntity
  8
C_okna
  6
ByLayer
 62
  256
370
   -1
100
AcDbLine
 10
6.735557395310443e-14
 20
2300
 11
500.0000000000001
 21
2300
  0
LINE
  5
182
100
AcDbEntity
  8
C_okna
  6
ByLayer
 62
  256
370
   -1
100
AcDbLine
 10
-499.9999999999999
 20
1700
 11
1000
 21
1700
  0
LINE
  5
183
100
AcDbEntity
  8
C_okna
  6
ByLayer
 62
  256
370
   -1
100
AcDbLine
 10
500.0000000000001
 20
1700
 11
500.0000000000001
 21
2400
  0
LINE
  5
184
100
AcDbEntity
  8
C_okna
  6
ByLayer
 62
  256
370
   -1
100
AcDbLine
 10
-499.9999999999999
 20
1700
 11
-499.9999999999999
 21
1675
  0
LINE
  5
185
100
AcDbEntity
  8
C_okna
  6
ByLayer
 62
  256
370
   -1
100
AcDbLine
 10
1000
 20
1700
 11
1000
 21
1675
  0
LINE
  5
186
100
AcDbEntity
  8
C_okna
  6
ByLayer
 62
  256
370
   -1
100
AcDbLine
 10
3.184081677783118e-14
 20
1720
 11
500.0000000000001
 21
1720
  0
LINE
  5
187
100
AcDbEntity
  8
C_okna
  6
ByLayer
 62
  256
370
   -1
100
AcDbLine
 10
4.592425496802574e-14
 20
1970
 11
500.0000000000001
 21
1970
  0
LINE
  5
188
100
AcDbEntity
  8
C_okna
  6
ByLayer
 62
  256
370
   -1
100
AcDbLine
 10
0
 20
2010.000000000005
 11
500.0000000000001
 21
2010.000000000005
  0
LINE
  5
189
100
AcDbEntity
  8
C_okna
  6
ByLayer
 62
  256
370
   -1
100
AcDbLine
 10
0
 20
2130.000000000003
 11
500.0000000000001
 21
2130.000000000003
  0
LINE
  5
18A
100
AcDbEntity
  8
C_okna
  6
ByLayer
 62
  256
370
   -1
100
AcDbLine
 10
250
 20
2380.000000000003
 11
500.0000000000001
 21
2130.000000000003
  0
LINE
  5
18B
100
AcDbEntity
  8
C_okna
  6
ByLayer
 62
  256
370
   -1
100
AcDbLine
 10
0
 20
2130.000000000003
 11
250
 21
2380.000000000003
  0
TEXT
  5
18C
100
AcDbEntity
  8
C_okna
  6
ByLayer
 62
  256
370
   -1
100
AcDbText
 10
691.6870056097598
 20
1844.251443028922
 30
0
 40
20
  1
2.5m pietro
 50
0
 41
1
 51
0
  7
standard
 71
    0
 72
    2
 11
691.6870056097598
 21
1844.251443028922
 31
0
210
0
220
0
230
1
100
AcDbText
 73
    2
  0
TEXT
  5
18D
100
AcDbEntity
  8
C_okna
  6
ByLayer
 62
  256
370
   -1
100
AcDbText
 10
689.5481675809758
 20
1982.322108751918
 30
0
 40
20
  1
40cm strop
 50
0
 41
1
 51
0
  7
standard
 71
    0
 72
    2
 11
689.5481675809758
 21
1982.322108751918
 31
0
210
0
220
0
230
1
100
AcDbText
 73
    2
  0
TEXT
  5
18E
100
AcDbEntity
  8
C_okna
  6
ByLayer
 62
  256
370
   -1
100
AcDbText
 10
754.2363190306882
 20
2066.279071271757
 30
0
 40
20
  1
120cm kolankowa
 50
0
 41
1
 51
0
  7
standard
 71
    0
 72
    2
 11
754.2363190306882
 21
2066.279071271757
 31
0
210
0
220
0
230
1
100
AcDbText
 73
    2
  0
TEXT
  5
18F
100
AcDbEntity
  8
C_okna
  6
ByLayer
 62
  256
370
   -1
100
AcDbText
 10
722.580415129765
 20
2199.784405114781
 30
0
 40
20
  1
45stopni dach
 50
0
 41
1
 51
0
  7
standard
 71
    0
 72
    2
 11
722.580415129765
 21
2199.784405114781
 31
0
210
0
220
0
230
1
100
AcDbText
 73
    2
  0
LINE
  5
190
100
AcDbEntity
  8
C_okna
  6
ByLayer
 62
  256
370
   -1
100
AcDbLine
 10
-35.35533905932932
 20
2094.644660940674
 11
0
 21
2130.000000000003
  0
LINE
  5
191
100
AcDbEntity
  8
C_okna
  6
ByLayer
 62
  256
370
   -1
100
AcDbLine
 10
500.0000000000001
 20
2130.000000000003
 11
535.3553390593331
 21
2094.64466094067
  0
LWPOLYLINE
  5
192
100
AcDbEntity
  8
C_okna
  6
ByLayer
 62
  256
370
   -1
100
AcDbPolyline
 90
    4
 70
    1
 43
0
 10
55.00000000000159
 20
2010.000000000005
 10
95.00000000000159
 20
2010.000000000005
 10
95.00000000000159
 20
2185.000000000005
 10
55.00000000000159
 20
2185.000000000005
  0
LINE
  5
193
100
AcDbEntity
  8
C_okna
  6
ByLayer
 62
  256
370
   -1
100
AcDbLine
 10
250
 20
2010.000000000005
 11
250
 21
2260.000000000005
  0
LINE
  5
194
100
AcDbEntity
  8
C_okna
  6
ByLayer
 62
  256
370
   -1
100
AcDbLine
 10
250
 20
2420.000000000003
 11
500.0000000000001
 21
2170.000000000003
  0
LINE
  5
195
100
AcDbEntity
  8
C_okna
  6
ByLayer
 62
  256
370
   -1
100
AcDbLine
 10
0
 20
2170.000000000003
 11
250
 21
2420.000000000003
  0
LINE
  5
196
100
AcDbEntity
  8
C_okna
  6
ByLayer
 62
  256
370
   -1
100
AcDbLine
 10
-35.35533905932932
 20
2134.644660940674
 11
0
 21
2170.000000000003
  0
LINE
  5
197
100
AcDbEntity
  8
C_okna
  6
ByLayer
 62
  256
370
   -1
100
AcDbLine
 10
500.0000000000001
 20
2170.000000000003
 11
535.3553390593331
 21
2134.64466094067
  0
LWPOLYLINE
  5
198
100
AcDbEntity
  8
W_belki
  6
ByLayer
 62
  256
370
   -1
100
AcDbPolyline
 90
    4
 70
    1
 43
0
 10
-126.7450448088859
 20
-1804.229917567552
 10
-81.74504480888585
 20
-1804.229917567552
 10
-81.74504480888585
 20
-1659.229917567552
 10
-126.7450448088859
 20
-1659.229917567552
  0
LWPOLYLINE
  5
199
100
AcDbEntity
  8
W_belki
  6
ByLayer
 62
  256
370
   -1
100
AcDbPolyline
 90
    4
 70
    1
 43
0
 10
473.2549551911142
 20
-1804.229917567552
 10
518.2549551911142
 20
-1804.229917567552
 10
518.2549551911142
 20
-1659.229917567552
 10
473.2549551911142
 20
-1659.229917567552
  0
LWPOLYLINE
  5
19A
100
AcDbEntity
  8
W_izolacja
  6
ByLayer
 62
  256
370
   -1
100
AcDbPolyline
 90
    4
 70
    1
 43
0
 10
-81.74504480888585
 20
-1659.229917567552
 10
473.2549551911142
 20
-1659.229917567552
 10
473.2549551911142
 20
-1804.229917567552
 10
-81.74504480888585
 20
-1804.229917567552
  0
LWPOLYLINE
  5
19B
100
AcDbEntity
  8
W_belki
  6
ByLayer
 62
  256
370
   -1
100
AcDbPolyline
 90
    4
 70
    1
 43
0
 10
-126.7450448088859
 20
-1804.229917567552
 10
-81.74504480888585
 20
-1804.229917567552
 10
-81.74504480888585
 20
-1849.229917567552
 10
-126.7450448088859
 20
-1849.229917567552
  0
LWPOLYLINE
  5
19C
100
AcDbEntity
  8
W_belki
  6
ByLayer
 62
  256
370
   -1
100
AcDbPolyline
 90
    4
 70
    1
 43
0
 10
473.2549551911142
 20
-1804.229917567552
 10
518.2549551911142
 20
-1804.229917567552
 10
518.2549551911142
 20
-1849.229917567552
 10
473.2549551911142
 20
-1849.229917567552
  0
LWPOLYLINE
  5
19D
100
AcDbEntity
  8
W_izolacja
  6
ByLayer
 62
  256
370
   -1
100
AcDbPolyline
 90
    4
 70
    1
 43
0
 10
-81.74504480888585
 20
-1804.229917567552
 10
473.2549551911142
 20
-1804.229917567552
 10
473.2549551911142
 20
-1849.229917567552
 10
-81.74504480888585
 20
-1849.229917567552
  0
LINE
  5
19E
100
AcDbEntity
  8
W_płyta
  6
ByLayer
 62
  256
370
   -1
100
AcDbLine
 10
518.2549551911142
 20
-1849.229917567552
 11
518.2549551911142
 21
-1867.229917567552
  0
LWPOLYLINE
  5
19F
100
AcDbEntity
  8
W_płyta
  6
ByLayer
 62
  256
370
   -1
100
AcDbPolyline
 90
    4
 70
    1
 43
0
 10
-126.7450448088859
 20
-1849.229917567552
 10
518.2549551911142
 20
-1849.229917567552
 10
518.2549551911142
 20
-1867.229917567552
 10
-126.7450448088859
 20
-1867.229917567552
  0
CIRCLE
  5
1A0
100
AcDbEntity
  8
W_legenda
  6
ByLayer
 62
  256
370
   -1
100
AcDbCircle
 10
568.2549551911142
 20
-1826.729917567552
 40
10
  0
TEXT
  5
1A1
100
AcDbEntity
  8
W_legenda
  6
ByLayer
 62
  256
370
   -1
100
AcDbText
 10
568.2549551911142
 20
-1826.729917567552
 30
0
 40
10
  1
2
 50
0
 41
1
 51
0
  7
standard
 71
    0
 72
    1
 11
568.2549551911142
 21
-1826.729917567552
 31
0
210
0
220
0
230
1
100
AcDbText
 73
    2
  0
CIRCLE
  5
1A2
100
AcDbEntity
  8
W_legenda
  6
ByLayer
 62
  256
370
   -1
100
AcDbCircle
 10
568.2549551911142
 20
-1804.229917567552
 40
10
  0
TEXT
  5
1A3
100
AcDbEntity
  8
W_legenda
  6
ByLayer
 62
  256
370
   -1
100
AcDbText
 10
568.2549551911142
 20
-1804.229917567552
 30
0
 40
10
  1
3
 50
0
 41
1
 51
0
  7
standard
 71
    0
 72
    1
 11
568.2549551911142
 21
-1804.229917567552
 31
0
210
0
220
0
230
1
100
AcDbText
 73
    2
  0
CIRCLE
  5
1A4
100
AcDbEntity
  8
W_legenda
  6
ByLayer
 62
  256
370
   -1
100
AcDbCircle
 10
568.2549551911139
 20
-1858.229917567552
 40
10
  0
TEXT
  5
1A5
100
AcDbEntity
  8
W_legenda
  6
ByLayer
 62
  256
370
   -1
100
AcDbText
 10
568.2549551911139
 20
-1858.229917567552
 30
0
 40
10
  1
1
 50
0
 41
1
 51
0
  7
standard
 71
    0
 72
    1
 11
568.2549551911139
 21
-1858.229917567552
 31
0
210
0
220
0
230
1
100
AcDbText
 73
    2
  0
CIRCLE
  5
1A6
100
AcDbEntity
  8
W_legenda
  6
ByLayer
 62
  256
370
   -1
100
AcDbCircle
 10
568.2549551911142
 20
-1731.729917567552
 40
10
  0
TEXT
  5
1A7
100
AcDbEntity
  8
W_legenda
  6
ByLayer
 62
  256
370
   -1
100
AcDbText
 10
568.2549551911142
 20
-1731.729917567552
 30
0
 40
10
  1
4
 50
0
 41
1
 51
0
  7
standard
 71
    0
 72
    1
 11
568.2549551911142
 21
-1731.729917567552
 31
0
210
0
220
0
230
1
100
AcDbText
 73
    2
  0
LINE
  5
1A8
100
AcDbEntity
  8
W_legenda
  6
ByLayer
 62
  256
370
   -1
100
AcDbLine
 10
578.2549551911142
 20
-1731.729917567552
 11
608.2549551911142
 21
-1731.729917567552
  0
LINE
  5
1A9
100
AcDbEntity
  8
W_legenda
  6
ByLayer
 62
  256
370
   -1
100
AcDbLine
 10
578.254955191107
 20
-1804.229917567552
 11
608.254955191107
 21
-1804.229917567552
  0
LINE
  5
1AA
100
AcDbEntity
  8
W_legenda
  6
ByLayer
 62
  256
370
   -1
100
AcDbLine
 10
578.254955191107
 20
-1826.729917567552
 11
608.254955191107
 21
-1826.729917567552
  0
LINE
  5
1AB
100
AcDbEntity
  8
W_legenda
  6
ByLayer
 62
  256
370
   -1
100
AcDbLine
 10
578.2549551911068
 20
-1858.229917567552
 11
608.2549551911068
 21
-1858.229917567552
  0
TEXT
  5
1AC
100
AcDbEntity
  8
W_legenda
  6
ByLayer
 62
  256
370
   -1
100
AcDbText
 10
608.2549551911068
 20
-1858.229917567552
 30
0
 40
10
  1
farmacell 18mm
 50
0
 41
1
 51
0
  7
standard
 71
    0
 11
608.2549551911068
 21
-1858.229917567552
 31
0
210
0
220
0
230
1
100
AcDbText
 73
    2
  0
TEXT
  5
1AD
100
AcDbEntity
  8
W_legenda
  6
ByLayer
 62
  256
370
   -1
100
AcDbText
 10
608.254955191107
 20
-1826.729917567552
 30
0
 40
10
  1
przestrzeń instalcyjna 45mm
 50
0
 41
1
 51
0
  7
standard
 71
    0
 11
608.254955191107
 21
-1826.729917567552
 31
0
210
0
220
0
230
1
100
AcDbText
 73
    2
  0
TEXT
  5
1AE
100
AcDbEntity
  8
W_legenda
  6
ByLayer
 62
  256
370
   -1
100
AcDbText
 10
608.2549551914808
 20
-1804.406135789853
 30
0
 40
10
  1
paroizolacja
 50
0
 41
1
 51
0
  7
standard
 71
    0
 11
608.2549551914808
 21
-1804.406135789853
 31
0
210
0
220
0
230
1
100
AcDbText
 73
    2
  0
TEXT
  5
1AF
100
AcDbEntity
  8
W_legenda
  6
ByLayer
 62
  256
370
   -1
100
AcDbText
 10
608.2549551911142
 20
-1731.906135789853
 30
0
 40
10
  1
izolacja/belki 145mm
 50
0
 41
1
 51
0
  7
standard
 71
    0
 11
608.2549551911142
 21
-1731.906135789853
 31
0
210
0
220
0
230
1
100
AcDbText
 73
    2
  0
LWPOLYLINE
  5
1B0
100
AcDbEntity
  8
W_belki
  6
ByLayer
 62
  256
370
   -1
100
AcDbPolyline
 90
    5
 70
    1
 43
0
 10
0
 20
-2540.100300676822
 10
499.9999999999999
 20
-2540.100300676822
 10
500
 20
-2790.100300676822
 10
0
 20
-2790.100300676822
 10
0
 20
-2790.100300676822
  0
LWPOLYLINE
  5
1B1
100
AcDbEntity
  8
W_belki
  6
ByLayer
 62
  256
370
   -1
100
AcDbPolyline
 90
    4
 70
    1
 43
0
 10
0
 20
-2790.100300676822
 10
14.5
 20
-2790.100300676822
 10
14.5
 20
-2540.100300676822
 10
0
 20
-2540.100300676822
  0
LWPOLYLINE
  5
1B2
100
AcDbEntity
  8
W_belki
  6
ByLayer
 62
  256
370
   -1
100
AcDbPolyline
 90
    4
 70
    1
 43
0
 10
14.5
 20
-2790.100300676822
 10
19
 20
-2790.100300676822
 10
19
 20
-2540.100300676822
 10
14.5
 20
-2540.100300676822
  0
LINE
  5
1B3
100
AcDbEntity
  8
W_belki
  6
ByLayer
 62
  256
370
   -1
100
AcDbLine
 10
0
 20
-2790.100300676822
 11
4.5
 21
-2790.100300676822
  0
LWPOLYLINE
  5
1B4
100
AcDbEntity
  8
W_belki
  6
ByLayer
 62
  256
370
   -1
100
AcDbPolyline
 90
    4
 70
    1
 43
0
 10
57.75
 20
-2790.100300676822
 10
62.25
 20
-2790.100300676822
 10
62.25
 20
-2540.100300676822
 10
57.75
 20
-2540.100300676822
  0
LWPOLYLINE
  5
1B5
100
AcDbEntity
  8
W_belki
  6
ByLayer
 62
  256
370
   -1
100
AcDbPolyline
 90
    4
 70
    1
 43
0
 10
417.75
 20
-2790.100300676822
 10
422.25
 20
-2790.100300676822
 10
422.25
 20
-2540.100300676822
 10
417.75
 20
-2540.100300676822
  0
LINE
  5
1B6
100
AcDbEntity
  8
W_belki
  6
ByLayer
 62
  256
370
   -1
100
AcDbLine
 10
0
 20
-2790.100300676822
 11
250
 21
-2790.100300676822
  0
LINE
  5
1B7
100
AcDbEntity
  8
W_belki
  6
DASHED2
 62
   56
420
8421376
370
   -1
100
AcDbLine
 10
250
 20
-2790.1
 11
250
 21
-2540.1
  0
LWPOLYLINE
  5
1B8
100
AcDbEntity
  8
W_belki
  6
ByLayer
 62
  256
370
   -1
100
AcDbPolyline
 90
    4
 70
    1
 43
0
 10
0
 20
-2790.100300676822
 10
500
 20
-2790.100300676822
 10
500
 20
-2794.600300676822
 10
0
 20
-2794.600300676822
  0
LWPOLYLINE
  5
1B9
100
AcDbEntity
  8
W_belki
  6
ByLayer
 62
  256
370
   -1
100
AcDbPolyline
 90
    4
 70
    1
 43
0
 10
0
 20
-2535.600300676822
 10
500
 20
-2535.600300676822
 10
500
 20
-2540.100300676822
 10
0
 20
-2540.100300676822
  0
LWPOLYLINE
  5
1BA
100
AcDbEntity
  8
W_belki
  6
ByLayer
 62
  256
370
   -1
100
AcDbPolyline
 90
    4
 70
    1
 43
0
 10
4399.387805739107
 20
0
 10
4649.387805739107
 20
0
 10
4649.387805739107
 20
700
 10
4399.387805739107
 20
700
  0
LWPOLYLINE
  5
1BB
100
AcDbEntity
  8
W_belki
  6
ByLayer
 62
  256
370
   -1
100
AcDbPolyline
 90
    4
 70
    1
 43
0
 10
4399.387805739107
 20
0
 10
4649.387805739107
 20
0
 10
4649.387805739107
 20
4.5
 10
4399.387805739107
 20
4.5
  0
LWPOLYLINE
  5
1BC
100
AcDbEntity
  8
W_belki
  6
ByLayer
 62
  256
370
   -1
100
AcDbPolyline
 90
    4
 70
    1
 43
0
 10
4399.387805739107
 20
4.5
 10
4649.387805739107
 20
4.5
 10
4649.387805739107
 20
19
 10
4399.387805739107
 20
19
  0
LINE
  5
1BD
100
AcDbEntity
  8
W_belki
  6
ByLayer
 62
  256
370
   -1
100
AcDbLine
 10
4649.387805739107
 20
4.5
 11
4649.387805739107
 21
0
  0
LWPOLYLINE
  5
1BE
100
AcDbEntity
  8
W_belki
  6
ByLayer
 62
  256
370
   -1
100
AcDbPolyline
 90
    4
 70
    1
 43
0
 10
4399.387805739107
 20
300
 10
4649.387805739107
 20
300
 10
4649.387805739107
 20
304.5
 10
4399.387805739107
 20
304.5
  0
LWPOLYLINE
  5
1BF
100
AcDbEntity
  8
W_belki
  6
ByLayer
 62
  256
370
   -1
100
AcDbPolyline
 90
    4
 70
    1
 43
0
 10
4399.387805739107
 20
681
 10
4649.387805739107
 20
681
 10
4649.387805739107
 20
685.5
 10
4399.387805739107
 20
685.5
  0
LWPOLYLINE
  5
1C0
100
AcDbEntity
  8
W_belki
  6
ByLayer
 62
  256
370
   -1
100
AcDbPolyline
 90
    4
 70
    1
 43
0
 10
4399.387805739107
 20
685.5
 10
4649.387805739107
 20
685.5
 10
4649.387805739107
 20
700
 10
4399.387805739107
 20
700
  0
LWPOLYLINE
  5
1C1
100
AcDbEntity
  8
W_belki
  6
ByLayer
 62
  256
370
   -1
100
AcDbPolyline
 90
    4
 70
    1
 43
0
 10
4653.887805739107
 20
700
 10
4649.387805739107
 20
700
 10
4649.387805739107
 20
0
 10
4653.887805739107
 20
0
  0
LWPOLYLINE
  5
1C2
100
AcDbEntity
  8
W_belki
  6
ByLayer
 62
  256
370
   -1
100
AcDbPolyline
 90
    4
 70
    1
 43
0
 10
0
 20
-2794.600300676822
 10
500
 20
-2794.600300676822
 10
500
 20
-2799.100300676822
 10
0
 20
-2799.100300676822
  0
LINE
  5
1C3
100
AcDbEntity
  8
W_belki
  6
ByLayer
 62
    1
370
   -1
100
AcDbLine
 10
4436.89
 20
86
 11
4436.89
 21
235.5
  0
LINE
  5
1C4
100
AcDbEntity
  8
W_belki
  6
ByLayer
 62
  256
370
   -1
100
AcDbLine
 10
4649.387805739107
 20
235.5
 11
4649.387805739107
 21
86
  0
LINE
  5
1C5
100
AcDbEntity
  8
W_belki
  6
ByLayer
 62
  256
370
   -1
100
AcDbLine
 10
4436.89
 20
235.5
 11
4436.89
 21
240
  0
LWPOLYLINE
  5
1C6
100
AcDbEntity
  8
W_belki
  6
ByLayer
 62
  256
370
   -1
100
AcDbPolyline
 90
    4
 70
    1
 43
0
 10
4399.387805739107
 20
117.75
 10
4417.39
 20
117.75
 10
4417.39
 20
122.25
 10
4399.387805739107
 20
122.25
  0
LWPOLYLINE
  5
1C7
100
AcDbEntity
  8
W_belki
  6
ByLayer
 62
  256
370
   -1
100
AcDbPolyline
 90
    4
 70
    1
 43
0
 10
4399.387805739107
 20
62.25
 10
4649.387805739107
 20
62.25
 10
4649.387805739107
 20
66.75
 10
4399.387805739107
 20
66.75
  0
LWPOLYLINE
  5
1C8
100
AcDbEntity
  8
W_belki
  6
ByLayer
 62
  256
370
   -1
100
AcDbPolyline
 90
    4
 70
    1
 43
0
 10
4399.387805739107
 20
242.25
 10
4649.387805739107
 20
242.25
 10
4649.387805739107
 20
246.75
 10
4399.387805739107
 20
246.75
  0
LWPOLYLINE
  5
1C9
100
AcDbEntity
  8
W_belki
  6
ByLayer
 62
  256
370
   -1
100
AcDbPolyline
 90
    4
 70
    1
 43
0
 10
4417.39
 20
83.75
 10
4436.89
 20
83.75
 10
4436.89
 20
242.25
 10
4417.39
 20
242.25
  0
LWPOLYLINE
  5
1CA
100
AcDbEntity
  8
W_belki
  6
ByLayer
 62
  256
370
   -1
100
AcDbPolyline
 90
    4
 70
    1
 43
0
 10
4436.89
 20
242.25
 10
4649.387805739107
 20
242.25
 10
4649.387805739107
 20
237.75
 10
4436.89
 20
237.75
  0
LWPOLYLINE
  5
1CB
100
AcDbEntity
  8
W_belki
  6
ByLayer
 62
  256
370
   -1
100
AcDbPolyline
 90
    4
 70
    1
 43
0
 10
4436.89
 20
83.75
 10
4649.387805739107
 20
83.75
 10
4649.387805739107
 20
88.25
 10
4436.89
 20
88.25
  0
LWPOLYLINE
  5
1CC
100
AcDbEntity
  8
W_belki
  6
ByLayer
 62
    1
370
   -1
100
AcDbPolyline
 90
    5
 70
    1
 43
0
 10
4436.89
 20
88.25
 10
4649.387805739107
 20
88.25
 10
4649.387805739107
 20
237.75
 10
4436.89
 20
237.75
 10
4436.89
 20
237.75
  0
LWPOLYLINE
  5
1CD
100
AcDbEntity
  8
W_belki
  6
ByLayer
 62
    1
370
   -1
100
AcDbPolyline
 90
    5
 70
    1
 43
0
 10
4647.887805739107
 20
236.25
 10
4438.39
 20
236.25
 10
4438.39
 20
89.75
 10
4647.887805739107
 20
89.75
 10
4647.887805739107
 20
89.75
  0
LWPOLYLINE
  5
1CE
100
AcDbEntity
  8
W_belki
  6
ByLayer
 62
  256
370
   -1
100
AcDbPolyline
 90
    4
 70
    1
 43
0
 10
4399.387805739107
 20
182.25
 10
4417.39
 20
182.25
 10
4417.39
 20
186.75
 10
4399.387805739107
 20
186.75
  0
LWPOLYLINE
  5
1CF
100
AcDbEntity
  8
W_belki
  6
ByLayer
 62
  256
370
   -1
100
AcDbPolyline
 90
    4
 70
    1
 43
0
 10
4399.387805739107
 20
79.25
 10
4649.387805739107
 20
79.25
 10
4649.387805739107
 20
83.75
 10
4399.387805739107
 20
83.75
  0
LWPOLYLINE
  5
1D0
100
AcDbEntity
  8
W_belki
  6
ByLayer
 62
  256
370
   -1
100
AcDbPolyline
 90
    4
 70
    1
 43
0
 10
4399.387805739107
 20
357.75
 10
4649.387805739107
 20
357.75
 10
4649.387805739107
 20
362.25
 10
4399.387805739107
 20
362.25
  0
LWPOLYLINE
  5
1D1
100
AcDbEntity
  8
W_belki
  6
ByLayer
 62
  256
370
   -1
100
AcDbPolyline
 90
    4
 70
    1
 43
0
 10
4399.387805739107
 20
417.75
 10
4649.387805739107
 20
417.75
 10
4649.387805739107
 20
422.25
 10
4399.387805739107
 20
422.25
  0
LWPOLYLINE
  5
1D2
100
AcDbEntity
  8
W_belki
  6
ByLayer
 62
  256
370
   -1
100
AcDbPolyline
 90
    4
 70
    1
 43
0
 10
4399.387805739107
 20
477.75
 10
4649.387805739107
 20
477.75
 10
4649.387805739107
 20
482.25
 10
4399.387805739107
 20
482.25
  0
LWPOLYLINE
  5
1D3
100
AcDbEntity
  8
W_belki
  6
ByLayer
 62
  256
370
   -1
100
AcDbPolyline
 90
    4
 70
    1
 43
0
 10
4399.387805739107
 20
597.75
 10
4649.387805739107
 20
597.75
 10
4649.387805739107
 20
602.25
 10
4399.387805739107
 20
602.25
  0
LWPOLYLINE
  5
1D4
100
AcDbEntity
  8
W_belki
  6
ByLayer
 62
  256
370
   -1
100
AcDbPolyline
 90
    4
 70
    1
 43
0
 10
4399.387805739107
 20
657.75
 10
4649.387805739107
 20
657.75
 10
4649.387805739107
 20
662.25
 10
4399.387805739107
 20
662.25
  0
LWPOLYLINE
  5
1D5
100
AcDbEntity
  8
W_belki
  6
ByLayer
 62
    1
370
   -1
100
AcDbPolyline
 90
    4
 70
    1
 43
0
 10
4434.39
 20
576.25
 10
4549.39
 20
576.25
 10
4549.39
 20
486.75
 10
4434.39
 20
486.75
  0
LWPOLYLINE
  5
1D6
100
AcDbEntity
  8
W_belki
  6
ByLayer
 62
    1
370
   -1
100
AcDbPolyline
 90
    4
 70
    1
 43
0
 10
4435.89
 20
574.75
 10
4547.89
 20
574.75
 10
4547.89
 20
488.25
 10
4435.89
 20
488.25
  0
LWPOLYLINE
  5
1D7
100
AcDbEntity
  8
W_belki
  6
ByLayer
 62
  256
370
   -1
100
AcDbPolyline
 90
    4
 70
    1
 43
0
 10
4434.39
 20
580.75
 10
4649.387805739107
 20
580.75
 10
4649.387805739107
 20
576.25
 10
4434.39
 20
576.25
  0
LWPOLYLINE
  5
1D8
100
AcDbEntity
  8
W_belki
  6
ByLayer
 62
  256
370
   -1
100
AcDbPolyline
 90
    4
 70
    1
 43
0
 10
4419.89
 20
580.75
 10
4434.39
 20
580.75
 10
4434.39
 20
482.25
 10
4419.89
 20
482.25
  0
LWPOLYLINE
  5
1D9
100
AcDbEntity
  8
W_belki
  6
ByLayer
 62
  256
370
   -1
100
AcDbPolyline
 90
    4
 70
    1
 43
0
 10
4434.39
 20
486.75
 10
4649.387805739107
 20
486.75
 10
4649.387805739107
 20
482.25
 10
4434.39
 20
482.25
  0
LWPOLYLINE
  5
1DA
100
AcDbEntity
  8
W_belki
  6
ByLayer
 62
  256
370
   -1
100
AcDbPolyline
 90
    4
 70
    1
 43
0
 10
4399.387805739107
 20
580.75
 10
4649.387805739107
 20
580.75
 10
4649.387805739107
 20
585.25
 10
4399.387805739107
 20
585.25
  0
LWPOLYLINE
  5
1DB
100
AcDbEntity
  8
W_belki
  6
ByLayer
 62
  256
370
   -1
100
AcDbPolyline
 90
    4
 70
    1
 43
0
 10
4649.387805739107
 20
537.75
 10
4549.39
 20
537.75
 10
4549.39
 20
542.25
 10
4649.387805739107
 20
542.25
  0
LWPOLYLINE
  5
1DC
100
AcDbEntity
  8
W_belki
  6
ByLayer
 62
  256
370
   -1
100
AcDbPolyline
 90
    4
 70
    1
 43
0
 10
4399.387805739107
 20
537.75
 10
4419.89
 20
537.75
 10
4419.89
 20
542.25
 10
4399.387805739107
 20
542.25
  0
LWPOLYLINE
  5
1DD
100
AcDbEntity
  8
W_belki
  6
ByLayer
 62
  256
370
   -1
100
AcDbPolyline
 90
    4
 70
    1
 43
0
 10
4673.887805739107
 20
-1.224646799147353e-15
 10
4688.887805739107
 20
-1.224646799147353e-15
 10
4688.887805739107
 20
120
 10
4673.887805739107
 20
120
  0
LWPOLYLINE
  5
1DE
100
AcDbEntity
  8
W_belki
  6
ByLayer
 62
  256
370
   -1
100
AcDbPolyline
 90
    4
 70
    1
 43
0
 10
4673.887805739107
 20
120
 10
4688.887805739107
 20
120
 10
4688.887805739107
 20
240
 10
4673.887805739107
 20
240
  0
LWPOLYLINE
  5
1DF
100
AcDbEntity
  8
W_belki
  6
ByLayer
 62
  256
370
   -1
100
AcDbPolyline
 90
    4
 70
    1
 43
0
 10
4673.887805739107
 20
240
 10
4688.887805739107
 20
240
 10
4688.887805739107
 20
360
 10
4673.887805739107
 20
360
  0
LWPOLYLINE
  5
1E0
100
AcDbEntity
  8
W_belki
  6
ByLayer
 62
  256
370
   -1
100
AcDbPolyline
 90
    4
 70
    1
 43
0
 10
4673.887805739107
 20
360
 10
4688.887805739107
 20
360
 10
4688.887805739107
 20
480
 10
4673.887805739107
 20
480
  0
LWPOLYLINE
  5
1E1
100
AcDbEntity
  8
W_belki
  6
ByLayer
 62
  256
370
   -1
100
AcDbPolyline
 90
    4
 70
    1
 43
0
 10
4673.887805739107
 20
480
 10
4688.887805739107
 20
480
 10
4688.887805739107
 20
600
 10
4673.887805739107
 20
600
  0
LWPOLYLINE
  5
1E2
100
AcDbEntity
  8
W_belki
  6
ByLayer
 62
  256
370
   -1
100
AcDbPolyline
 90
    4
 70
    1
 43
0
 10
4673.887805739107
 20
600
 10
4688.887805739107
 20
600
 10
4688.887805739107
 20
700
 10
4673.887805739107
 20
700
  0
LWPOLYLINE
  5
1E3
100
AcDbEntity
  8
W_belki
  6
ByLayer
 62
  256
370
   -1
100
AcDbPolyline
 90
    4
 70
    1
 43
0
 10
0
 20
-2820.100300676822
 10
120
 20
-2820.100300676822
 10
120
 20
-2835.100300676822
 10
0
 20
-2835.100300676822
  0
LWPOLYLINE
  5
1E4
100
AcDbEntity
  8
W_belki
  6
ByLayer
 62
  256
370
   -1
100
AcDbPolyline
 90
    4
 70
    1
 43
0
 10
240
 20
-2820.100300676822
 10
360
 20
-2820.100300676822
 10
360
 20
-2835.100300676822
 10
240
 20
-2835.100300676822
  0
LWPOLYLINE
  5
1E5
100
AcDbEntity
  8
W_belki
  6
ByLayer
 62
  256
370
   -1
100
AcDbPolyline
 90
    4
 70
    1
 43
0
 10
120
 20
-2820.100300676822
 10
240
 20
-2820.100300676822
 10
240
 20
-2835.100300676822
 10
120
 20
-2835.100300676822
  0
LWPOLYLINE
  5
1E6
100
AcDbEntity
  8
W_belki
  6
ByLayer
 62
  256
370
   -1
100
AcDbPolyline
 90
    4
 70
    1
 43
0
 10
420
 20
-2835.100300676822
 10
500
 20
-2835.100300676822
 10
500
 20
-2820.100300676822
 10
420
 20
-2820.100300676822
  0
LWPOLYLINE
  5
1E7
100
AcDbEntity
  8
W_belki
  6
ByLayer
 62
  256
370
   -1
100
AcDbPolyline
 90
    4
 70
    1
 43
0
 10
360
 20
-2820.100300676822
 10
420
 20
-2820.100300676822
 10
420
 20
-2835.100300676822
 10
360
 20
-2835.100300676822
  0
CIRCLE
  5
1E8
100
AcDbEntity
  8
I_kanaliza
  6
ByLayer
 62
  256
370
   -1
100
AcDbCircle
 10
21
 20
624
 40
5
  0
CIRCLE
  5
1E9
100
AcDbEntity
  8
I_kanaliza
  6
ByLayer
 62
  256
370
   -1
100
AcDbCircle
 10
187.9999999999998
 20
654
 40
5
  0
INSERT
  5
1EA
100
AcDbEntity
  8
C_okna
  6
ByLayer
 62
  256
370
   -1
100
AcDbBlockReference
  2
okno565
 10
25.99999999999999
 20
221.0000000000003
 30
0
 41
1
 42
1
 43
0
 50
0
 70
    1
 71
    1
 44
0
 45
0
  0
LINE
  5
1EB
100
AcDbEntity
  8
F_kuchnia
  6
ByLayer
 62
  256
370
   -1
100
AcDbLine
 10
206
 20
84.50000000000031
 11
206
 21
26.00000000000001
  0
LINE
  5
1EC
100
AcDbEntity
  8
C_okna
  6
ByLayer
 62
  256
370
   -1
100
AcDbLine
 10
25.99999999999999
 20
177.7500000000003
 11
-60.00000000000001
 21
177.7500000000003
  0
TEXT
  5
1ED
100
AcDbEntity
  8
C_okna
  6
ByLayer
 62
  256
370
   -1
100
AcDbText
 10
-60.00000000000001
 20
187.7500000000003
 30
0
 40
10
  1
865
 50
0
 41
1
 51
0
  7
standard
 71
    0
 11
-60.00000000000001
 21
187.7500000000003
 31
0
210
0
220
0
230
1
100
AcDbText
 73
    2
  0
TEXT
  5
1EE
100
AcDbEntity
  8
C_okna
  6
ByLayer
 62
  256
370
   -1
100
AcDbText
 10
-60.00000000000001
 20
167.7500000000003
 30
0
 40
10
  1
1135
 50
0
 41
1
 51
0
  7
standard
 71
    0
 11
-60.00000000000001
 21
167.7500000000003
 31
0
210
0
220
0
230
1
100
AcDbText
 73
    2
  0
LWPOLYLINE
  5
1EF
100
AcDbEntity
  8
F_kuchnia
  6
ByLayer
 62
  256
370
   -1
100
AcDbPolyline
 90
    4
 70
    1
 43
0
 10
86.00000000000003
 20
84.50000000000031
 10
136
 20
84.50000000000031
 10
136
 20
34.50000000000031
 10
86.00000000000003
 20
34.50000000000031
  0
TEXT
  5
1F0
100
AcDbEntity
  8
F_kuchnia
  6
ByLayer
 62
  256
370
   -1
100
AcDbText
 10
111
 20
59.5000000000003
 30
0
 40
10
  1
K
 50
0
 41
1
 51
0
  7
standard
 71
    0
 72
    1
 11
111
 21
59.5000000000003
 31
0
210
0
220
0
230
1
100
AcDbText
 73
    2
  0
LINE
  5
1F1
100
AcDbEntity
  8
F_kuchnia
  6
ByLayer
 62
  256
370
   -1
100
AcDbLine
 10
86.00000000000003
 20
84.50000000000031
 11
206
 21
84.50000000000031
  0
LINE
  5
1F2
100
AcDbEntity
  8
F_kuchnia
  6
ByLayer
 62
  256
370
   -1
100
AcDbLine
 10
86.00000000000003
 20
281.0000000000003
 11
86.00000000000003
 21
84.50000000000031
  0
LWPOLYLINE
  5
1F3
100
AcDbEntity
  8
F_kuchnia
  6
ByLayer
 62
  256
370
   -1
100
AcDbPolyline
 90
    4
 70
    1
 43
0
 10
41.00000000000003
 20
221.0000000000003
 10
41.00000000000003
 20
176.0000000000003
 10
86.00000000000003
 20
176.0000000000003
 10
86.00000000000003
 20
221.0000000000003
  0
TEXT
  5
1F4
100
AcDbEntity
  8
F_kuchnia
  6
ByLayer
 62
  256
370
   -1
100
AcDbText
 10
63.50000000000003
 20
198.5000000000003
 30
0
 40
10
  1
ZM
 50
270
 41
1
 51
0
  7
standard
 71
    0
 72
    1
 11
63.50000000000003
 21
198.5000000000003
 31
0
210
0
220
0
230
1
100
AcDbText
 73
    2
  0
LWPOLYLINE
  5
1F5
100
AcDbEntity
  8
F_kuchnia
  6
ByLayer
 62
  256
370
   -1
100
AcDbPolyline
 90
    4
 70
    1
 43
0
 10
36.00000000000001
 20
167.7500000000003
 10
76.00000000000004
 20
167.7500000000003
 10
76.00000000000001
 20
134.5000000000003
 10
35.99999999999999
 20
134.5000000000003
  0
LWPOLYLINE
  5
1F6
100
AcDbEntity
  8
F_kuchnia
  6
ByLayer
 62
  256
370
   -1
100
AcDbPolyline
 90
    4
 70
    1
 43
0
 10
36.00000000000001
 20
150.1250000000003
 10
46.00000000000001
 20
150.1250000000003
 10
46.00000000000001
 20
152.1250000000003
 10
36.00000000000001
 20
152.1250000000003
  0
INSERT
  5
1F7
100
AcDbEntity
  8
C_okna
  6
ByLayer
 62
  256
370
   -1
100
AcDbBlockReference
  2
okno565
 10
222.5
 20
-2.48689957516035e-14
 30
0
 41
1
 42
1
 43
0
 50
270
 70
    1
 71
    1
 44
0
 45
0
  0
LINE
  5
1F8
100
AcDbEntity
  8
C_okna
  6
ByLayer
 62
  256
370
   -1
100
AcDbLine
 10
179.25
 20
25.99999999999998
 11
179.25
 21
-60.00000000000001
  0
TEXT
  5
1F9
100
AcDbEntity
  8
C_okna
  6
ByLayer
 62
  256
370
   -1
100
AcDbText
 10
169.25
 20
-60.00000000000001
 30
0
 40
10
  1
865
 50
90
 41
1
 51
0
  7
standard
 71
    0
 11
169.25
 21
-60.00000000000001
 31
0
210
0
220
0
230
1
100
AcDbText
 73
    2
  0
TEXT
  5
1FA
100
AcDbEntity
  8
C_okna
  6
ByLayer
 62
  256
370
   -1
100
AcDbText
 10
189.25
 20
-60.00000000000001
 30
0
 40
10
  1
1135
 50
90
 41
1
 51
0
  7
standard
 71
    0
 11
189.25
 21
-60.00000000000001
 31
0
210
0
220
0
230
1
100
AcDbText
 73
    2
  0
INSERT
  5
1FB
100
AcDbEntity
  8
C_okna
  6
ByLayer
 62
  256
370
   -1
100
AcDbBlockReference
  2
okno565
 10
364
 20
-1.4210854715202e-14
 30
0
 41
1
 42
1
 43
0
 50
270
 70
    1
 71
    1
 44
0
 45
0
  0
LINE
  5
1FC
100
AcDbEntity
  8
C_okna
  6
ByLayer
 62
  256
370
   -1
100
AcDbLine
 10
320.75
 20
25.99999999999999
 11
320.75
 21
-60.00000000000001
  0
TEXT
  5
1FD
100
AcDbEntity
  8
C_okna
  6
ByLayer
 62
  256
370
   -1
100
AcDbText
 10
310.75
 20
-60.00000000000001
 30
0
 40
10
  1
865
 50
90
 41
1
 51
0
  7
standard
 71
    0
 11
310.75
 21
-60.00000000000001
 31
0
210
0
220
0
230
1
100
AcDbText
 73
    2
  0
TEXT
  5
1FE
100
AcDbEntity
  8
C_okna
  6
ByLayer
 62
  256
370
   -1
100
AcDbText
 10
330.75
 20
-60.00000000000001
 30
0
 40
10
  1
1135
 50
90
 41
1
 51
0
  7
standard
 71
    0
 11
330.75
 21
-60.00000000000001
 31
0
210
0
220
0
230
1
100
AcDbText
 73
    2
  0
LWPOLYLINE
  5
1FF
100
AcDbEntity
  8
W_belki
  6
ByLayer
 62
    1
370
   -1
100
AcDbPolyline
 90
    4
 70
    1
 43
0
 10
134.5000000000003
 20
-2578.100300676634
 10
221.0000000000001
 20
-2578.100300676634
 10
221.0000000000001
 20
-2688.60030067692
 10
134.5000000000003
 20
-2688.60030067692
  0
LWPOLYLINE
  5
200
100
AcDbEntity
  8
W_belki
  6
ByLayer
 62
    1
370
   -1
100
AcDbPolyline
 90
    4
 70
    1
 43
0
 10
133.0000000000001
 20
-2690.10030067692
 10
222.5000000000001
 20
-2690.10030067692
 10
222.5000000000001
 20
-2576.600300676926
 10
133.0000000000001
 20
-2576.600300676926
  0
LWPOLYLINE
  5
201
100
AcDbEntity
  8
W_belki
  6
ByLayer
 62
  256
370
   -1
100
AcDbPolyline
 90
    5
 70
    1
 43
0
 10
128.5000000000001
 20
-2562.100300676926
 10
227.0000000000001
 20
-2562.100300676926
 10
227.0000000000001
 20
-2576.600300676926
 10
128.5000000000001
 20
-2576.600300676926
 10
128.5000000000001
 20
-2576.600300676926
  0
LWPOLYLINE
  5
202
100
AcDbEntity
  8
W_belki
  6
ByLayer
 62
  256
370
   -1
100
AcDbPolyline
 90
    4
 70
    1
 43
0
 10
222.5000000000001
 20
-2694.599999999865
 10
133.0000000000001
 20
-2694.599999999865
 10
133.0000000000001
 20
-2690.10030067692
 10
222.5000000000001
 20
-2690.10030067692
  0
LWPOLYLINE
  5
203
100
AcDbEntity
  8
W_belki
  6
ByLayer
 62
  256
370
   -1
100
AcDbPolyline
 90
    5
 70
    1
 43
0
 10
273
 20
-2562.100300676926
 10
371.5
 20
-2562.100300676926
 10
371.5
 20
-2576.600300676926
 10
273
 20
-2576.600300676926
 10
273
 20
-2576.600300676926
  0
LWPOLYLINE
  5
204
100
AcDbEntity
  8
W_belki
  6
ByLayer
 62
  256
370
   -1
100
AcDbPolyline
 90
    4
 70
    1
 43
0
 10
117.75
 20
-2790.100300676822
 10
122.25
 20
-2790.100300676822
 10
122.25
 20
-2540.100300676822
 10
117.75
 20
-2540.100300676822
  0
LWPOLYLINE
  5
205
100
AcDbEntity
  8
W_belki
  6
ByLayer
 62
  256
370
   -1
100
AcDbPolyline
 90
    4
 70
    1
 43
0
 10
237.75
 20
-2790.100300676822
 10
242.25
 20
-2790.100300676822
 10
242.25
 20
-2540.100300676822
 10
237.75
 20
-2540.100300676822
  0
LWPOLYLINE
  5
206
100
AcDbEntity
  8
W_belki
  6
ByLayer
 62
  256
370
   -1
100
AcDbPolyline
 90
    4
 70
    1
 43
0
 10
417.75
 20
-2790.100300676822
 10
422.25
 20
-2790.100300676822
 10
422.25
 20
-2540.100300676822
 10
417.75
 20
-2540.100300676822
  0
LWPOLYLINE
  5
207
100
AcDbEntity
  8
W_belki
  6
ByLayer
 62
  256
370
   -1
100
AcDbPolyline
 90
    4
 70
    1
 43
0
 10
477.75
 20
-2790.100300676822
 10
482.25
 20
-2790.100300676822
 10
482.25
 20
-2540.100300676822
 10
477.75
 20
-2540.100300676822
  0
LWPOLYLINE
  5
208
100
AcDbEntity
  8
W_belki
  6
ByLayer
 62
    1
370
   -1
100
AcDbPolyline
 90
    4
 70
    1
 43
0
 10
277.5
 20
-2790.100300676822
 10
367
 20
-2790.100300676822
 10
367
 20
-2576.600300676926
 10
277.5
 20
-2576.600300676926
  0
LWPOLYLINE
  5
209
100
AcDbEntity
  8
W_belki
  6
ByLayer
 62
    1
370
   -1
100
AcDbPolyline
 90
    4
 70
    1
 43
0
 10
279.0000000000002
 20
-2578.100300676634
 10
365.5
 20
-2578.100300676634
 10
365.5000000003881
 20
-2788.600300676822
 10
278.9999999998627
 20
-2788.600300676822
  0
LWPOLYLINE
  5
20A
100
AcDbEntity
  8
W_belki
  6
ByLayer
 62
  256
370
   -1
100
AcDbPolyline
 90
    4
 70
    1
 43
0
 10
177.75
 20
-2694.599999999865
 10
182.25
 20
-2694.599999999865
 10
182.25
 20
-2790.100300676822
 10
177.75
 20
-2790.100300676822
  0
LWPOLYLINE
  5
20B
100
AcDbEntity
  8
W_belki
  6
ByLayer
 62
  256
370
   -1
100
AcDbPolyline
 90
    4
 70
    1
 43
0
 10
177.75
 20
-2562.100300676926
 10
182.25
 20
-2562.100300676926
 10
182.25
 20
-2540.100300676822
 10
177.75
 20
-2540.100300676822
  0
LWPOLYLINE
  5
20C
100
AcDbEntity
  8
W_belki
  6
ByLayer
 62
  256
370
   -1
100
AcDbPolyline
 90
    4
 70
    1
 43
0
 10
297.75
 20
-2562.100300676926
 10
302.25
 20
-2562.100300676926
 10
302.25
 20
-2540.100300676822
 10
297.75
 20
-2540.100300676822
  0
LWPOLYLINE
  5
20D
100
AcDbEntity
  8
W_belki
  6
ByLayer
 62
  256
370
   -1
100
AcDbPolyline
 90
    4
 70
    1
 43
0
 10
357.75
 20
-2562.100300676926
 10
362.25
 20
-2562.100300676926
 10
362.25
 20
-2540.100300676822
 10
357.75
 20
-2540.100300676822
  0
LWPOLYLINE
  5
20E
100
AcDbEntity
  8
W_belki
  6
ByLayer
 62
  256
370
   -1
100
AcDbPolyline
 90
    4
 70
    1
 43
0
 10
273
 20
-2576.600300676926
 10
277.4999999999998
 20
-2576.600300676926
 10
277.4999999999998
 20
-2790.100260171456
 10
273
 20
-2790.100260171456
  0
LWPOLYLINE
  5
20F
100
AcDbEntity
  8
W_belki
  6
ByLayer
 62
  256
370
   -1
100
AcDbPolyline
 90
    4
 70
    1
 43
0
 10
371.5
 20
-2576.600300676926
 10
367.0000000003881
 20
-2576.600300676926
 10
367.0000000003881
 20
-2790.100300676822
 10
371.5
 20
-2790.100300676822
  0
LWPOLYLINE
  5
210
100
AcDbEntity
  8
W_belki
  6
ByLayer
 62
  256
370
   -1
100
AcDbPolyline
 90
    4
 70
    1
 43
0
 10
128.5000000000001
 20
-2576.600300676926
 10
133.0000000000001
 20
-2576.600300676926
 10
133.0000000000001
 20
-2790.100300676822
 10
128.5000000000001
 20
-2790.100300676822
  0
LWPOLYLINE
  5
211
100
AcDbEntity
  8
W_belki
  6
ByLayer
 62
  256
370
   -1
100
AcDbPolyline
 90
    4
 70
    1
 43
0
 10
227.0000000000001
 20
-2576.600300676926
 10
222.5000000000001
 20
-2576.600300676926
 10
222.5000000000001
 20
-2790.100300676822
 10
227.0000000000001
 20
-2790.100300676822
  0
INSERT
  5
212
100
AcDbEntity
  8
C_doors
  6
ByLayer
 62
  256
370
   -1
100
AcDbBlockReference
  2
door
 10
65.99999999999997
 20
460.0000000000003
 30
0
 41
-1
 42
1
 43
0
 50
180
 70
    1
 71
    1
 44
0
 45
0
  0
INSERT
  5
213
100
AcDbEntity
  8
F_furnitures
  6
ByLayer
 62
  256
370
   -1
100
AcDbBlockReference
  2
kibel2
 10
72.99999999999979
 20
674
 30
0
 41
1
 42
1
 43
0
 50
360
 70
    1
 71
    1
 44
0
 45
0
  0
LWPOLYLINE
  5
214
100
AcDbEntity
  8
F_furnitures
  6
ByLayer
 62
  256
370
   -1
100
AcDbPolyline
 90
    4
 70
    1
 43
0
 10
26
 20
584
 10
41
 20
584
 10
41
 20
614
 10
26
 20
614
  0
LWPOLYLINE
  5
215
100
AcDbEntity
  8
F_furnitures
  6
ByLayer
 62
  256
370
   -1
100
AcDbPolyline
 90
    4
 70
    1
 43
0
 10
170.9999999999998
 20
545
 10
207.9999999999998
 20
545
 10
207.9999999999998
 20
582
 10
170.9999999999998
 20
582
  0
INSERT
  5
216
100
AcDbEntity
  8
F_furnitures
  6
ByLayer
 62
  256
370
   -1
100
AcDbBlockReference
  2
umywalka
 10
207.9999999999998
 20
543
 30
0
 41
1
 42
1
 43
0
 50
360
 70
    1
 71
    1
 44
0
 45
0
  0
DIMENSION
  5
217
100
AcDbEntity
  8
X_wymiary
  6
ByLayer
 62
  256
370
   -1
100
AcDbDimension
  2
*D1
 10
207.9999999999998
 20
800
 30
0
 11
116.9999999999999
 21
811.25
 31
0
 70
   32
 71
    5
 72
    0
  3
Standard
 53
0
210
0
220
0
230
1
100
AcDbAlignedDimension
 13
26
 23
674
 33
0
 14
207.9999999999998
 24
674
 34
0
100
AcDbRotatedDimension
  0
DIMENSION
  5
218
100
AcDbEntity
  8
X_wymiary
  6
ByLayer
 62
  256
370
   -1
100
AcDbDimension
  2
*D2
 10
7.715274834628325e-15
 20
800
 30
0
 11
13
 21
811.25
 31
0
 70
   32
 71
    5
 72
    0
  3
Standard
 53
0
210
0
220
0
230
1
100
AcDbAlignedDimension
 13
26
 23
674
 33
0
 14
0
 24
674
 34
0
100
AcDbRotatedDimension
  0
DIMENSION
  5
219
100
AcDbEntity
  8
X_wymiary
  6
ByLayer
 62
  256
370
   -1
100
AcDbDimension
  2
*D3
 10
474
 20
800
 30
0
 11
354
 21
811.25
 31
0
 70
   32
 71
    5
 72
    0
  3
Standard
 53
0
210
0
220
0
230
1
100
AcDbAlignedDimension
 13
234
 23
674
 33
0
 14
474
 24
674
 34
0
100
AcDbRotatedDimension
  0
DIMENSION
  5
21A
100
AcDbEntity
  8
X_wymiary
  6
ByLayer
 62
  256
370
   -1
100
AcDbDimension
  2
*D4
 10
700
 20
800
 30
0
 11
600
 21
811.25
 31
0
 70
   32
 71
    5
 72
    0
  3
Standard
 53
0
210
0
220
0
230
1
100
AcDbAlignedDimension
 13
500
 23
636.6249999999998
 33
0
 14
700
 24
636.6249999999998
 34
0
100
AcDbRotatedDimension
  0
LWPOLYLINE
  5
21B
100
AcDbEntity
  8
X_ramka_parter
  6
ByLayer
 62
  256
370
   -1
100
AcDbPolyline
 90
    4
 70
    1
 43
0
 10
-226.5982736922802
 20
959.433344070575
 10
723.4017263077199
 20
959.433344070575
 10
723.4017263077199
 20
-425.566655929425
 10
-226.5982736922802
 20
-425.566655929425
  0
LWPOLYLINE
  5
21C
100
AcDbEntity
  8
X_tabelka
  6
ByLayer
 62
  256
370
   40
100
AcDbPolyline
 90
    5
 70
    1
 43
0
 10
723.4017263077199
 20
-225.566655929425
 10
23.4017263077198
 20
-225.566655929425
 10
23.4017263077198
 20
-425.566655929425
 10
723.4017263077199
 20
-425.566655929425
 10
723.4017263077199
 20
-425.566655929425
  0
LWPOLYLINE
  5
21D
100
AcDbEntity
  8
X_tabelka
  6
ByLayer
 62
  256
370
   -1
100
AcDbPolyline
 90
    4
 70
    1
 43
0
 10
23.4017263077198
 20
-225.566655929425
 10
723.4017263077199
 20
-225.566655929425
 10
723.4017263077199
 20
-325.566655929425
 10
23.4017263077198
 20
-325.566655929425
  0
LWPOLYLINE
  5
21E
100
AcDbEntity
  8
X_tabelka
  6
ByLayer
 62
  256
370
   -1
100
AcDbPolyline
 90
    4
 70
    1
 43
0
 10
23.4017263077198
 20
-325.566655929425
 10
123.4017263077198
 20
-325.566655929425
 10
123.4017263077198
 20
-225.566655929425
 10
23.4017263077198
 20
-225.566655929425
  0
LWPOLYLINE
  5
21F
100
AcDbEntity
  8
X_tabelka
  6
ByLayer
 62
  256
370
   -1
100
AcDbPolyline
 90
    4
 70
    1
 43
0
 10
723.4017263077199
 20
-225.566655929425
 10
623.4017263077199
 20
-225.566655929425
 10
623.4017263077199
 20
-325.566655929425
 10
723.4017263077199
 20
-325.566655929425
  0
LWPOLYLINE
  5
220
100
AcDbEntity
  8
X_tabelka
  6
ByLayer
 62
  256
370
   -1
100
AcDbPolyline
 90
    4
 70
    1
 43
0
 10
623.4017263077199
 20
-325.566655929425
 10
723.4017263077199
 20
-325.566655929425
 10
723.4017263077199
 20
-425.566655929425
 10
623.4017263077199
 20
-425.566655929425
  0
LWPOLYLINE
  5
221
100
AcDbEntity
  8
X_tabelka
  6
ByLayer
 62
  256
370
   -1
100
AcDbPolyline
 90
    4
 70
    1
 43
0
 10
523.4017263077199
 20
-325.566655929425
 10
623.4017263077199
 20
-325.566655929425
 10
623.4017263077199
 20
-425.566655929425
 10
523.4017263077199
 20
-425.566655929425
  0
LWPOLYLINE
  5
222
100
AcDbEntity
  8
X_tabelka
  6
ByLayer
 62
  256
370
   -1
100
AcDbPolyline
 90
    4
 70
    1
 43
0
 10
623.4017263077199
 20
-375.566655929425
 10
723.4017263077199
 20
-375.566655929425
 10
723.4017263077199
 20
-325.566655929425
 10
623.4017263077199
 20
-325.566655929425
  0
LWPOLYLINE
  5
223
100
AcDbEntity
  8
X_tabelka
  6
ByLayer
 62
  256
370
   -1
100
AcDbPolyline
 90
    4
 70
    1
 43
0
 10
23.4017263077198
 20
-225.566655929425
 10
123.4017263077198
 20
-225.566655929425
 10
123.4017263077198
 20
-275.566655929425
 10
23.4017263077198
 20
-275.566655929425
  0
TEXT
  5
224
100
AcDbEntity
  8
X_tabelka
  6
ByLayer
 62
  256
370
   -1
100
AcDbText
 10
373.4017263077198
 20
-275.566655929425
 30
0
 40
30
  1
rzut parteru
 50
0
 41
1
 51
0
  7
STANDARD
 71
    0
 72
    1
 11
373.4017263077198
 21
-275.566655929425
 31
0
210
0
220
0
230
1
100
AcDbText
 73
    2
  0
TEXT
  5
225
100
AcDbEntity
  8
X_tabelka
  6
ByLayer
 62
  256
370
   -1
100
AcDbText
 10
73.4017263077198
 20
-250.566655929425
 30
0
 40
15
  1
skala
 50
0
 41
1
 51
0
  7
STANDARD
 71
    0
 72
    1
 11
73.4017263077198
 21
-250.566655929425
 31
0
210
0
220
0
230
1
100
AcDbText
 73
    2
  0
TEXT
  5
226
100
AcDbEntity
  8
X_tabelka
  6
ByLayer
 62
  256
370
   -1
100
AcDbText
 10
673.4017263077199
 20
-350.566655929425
 30
0
 40
15
  1
Nr rys.
 50
0
 41
1
 51
0
  7
STANDARD
 71
    0
 72
    1
 11
673.4017263077199
 21
-350.566655929425
 31
0
210
0
220
0
230
1
100
AcDbText
 73
    2
  0
TEXT
  5
227
100
AcDbEntity
  8
X_tabelka
  6
ByLayer
 62
  256
370
   -1
100
AcDbText
 10
673.4017263077199
 20
-400.566655929425
 30
0
 40
30
  1
1
 50
0
 41
1
 51
0
  7
STANDARD
 71
    0
 72
    1
 11
673.4017263077199
 21
-400.566655929425
 31
0
210
0
220
0
230
1
100
AcDbText
 73
    2
  0
TEXT
  5
228
100
AcDbEntity
  8
X_tabelka
  6
ByLayer
 62
  256
370
   -1
100
AcDbText
 10
573.4017263077199
 20
-350.566655929425
 30
0
 40
15
  1
Data
 50
0
 41
1
 51
0
  7
STANDARD
 71
    0
 72
    1
 11
573.4017263077199
 21
-350.566655929425
 31
0
210
0
220
0
230
1
100
AcDbText
 73
    2
  0
LWPOLYLINE
  5
229
100
AcDbEntity
  8
X_tabelka
  6
ByLayer
 62
  256
370
   -1
100
AcDbPolyline
 90
    4
 70
    1
 43
0
 10
123.4017263077198
 20
-325.566655929425
 10
233.4017263077198
 20
-325.566655929425
 10
233.4017263077198
 20
-425.566655929425
 10
123.4017263077198
 20
-425.566655929425
  0
TEXT
  5
22A
100
AcDbEntity
  8
X_tabelka
  6
ByLayer
 62
  256
370
   -1
100
AcDbText
 10
178.4017263077198
 20
-350.566655929425
 30
0
 40
15
  1
Rysował
 50
0
 41
1
 51
0
  7
STANDARD
 71
    0
 72
    1
 11
178.4017263077198
 21
-350.566655929425
 31
0
210
0
220
0
230
1
100
AcDbText
 73
    2
  0
TEXT
  5
22B
100
AcDbEntity
  8
X_tabelka
  6
ByLayer
 62
  256
370
   -1
100
AcDbText
 10
178.4017263077198
 20
-400.566655929425
 30
0
 40
15
  1
Sprawdzał
 50
0
 41
1
 51
0
  7
STANDARD
 71
    0
 72
    1
 11
178.4017263077198
 21
-400.566655929425
 31
0
210
0
220
0
230
1
100
AcDbText
 73
    2
  0
LWPOLYLINE
  5
22C
100
AcDbEntity
  8
X_tabelka
  6
ByLayer
 62
  256
370
   -1
100
AcDbPolyline
 90
    4
 70
    1
 43
0
 10
123.4017263077198
 20
-325.566655929425
 10
623.4017263077199
 20
-325.566655929425
 10
623.4017263077199
 20
-375.566655929425
 10
123.4017263077198
 20
-375.566655929425
  0
TEXT
  5
22D
100
AcDbEntity
  8
X_tabelka
  6
ByLayer
 62
  256
370
   -1
100
AcDbText
 10
378.4017263077198
 20
-350.566655929425
 30
0
 40
15
  1
inż. Łukasz Szymankiewicz
 50
0
 41
1
 51
0
  7
STANDARD
 71
    0
 72
    1
 11
378.4017263077198
 21
-350.566655929425
 31
0
210
0
220
0
230
1
100
AcDbText
 73
    2
  0
DIMENSION
  5
22E
100
AcDbEntity
  8
X_wymiary
  6
ByLayer
 62
  256
370
   -1
100
AcDbDimension
  2
*D5
 10
-150
 20
474
 30
0
 11
-161.25
 21
574
 31
0
 70
   32
 71
    5
 72
    0
  3
Standard
 53
0
210
0
220
0
230
1
100
AcDbAlignedDimension
 13
26
 23
674
 33
0
 14
25.99999999999997
 24
474
 34
0
 50
90
100
AcDbRotatedDimension
  0
DIMENSION
  5
22F
100
AcDbEntity
  8
X_wymiary
  6
ByLayer
 62
  256
370
   -1
100
AcDbDimension
  2
*D6
 10
-150
 20
460.0000000000003
 30
0
 11
-161.25
 21
467.0000000000001
 31
0
 70
   32
 71
    5
 72
    0
  3
Standard
 53
0
210
0
220
0
230
1
100
AcDbAlignedDimension
 13
26
 23
474
 33
0
 14
25.99999999999997
 24
460.0000000000003
 34
0
 50
90
100
AcDbRotatedDimension
  0
DIMENSION
  5
230
100
AcDbEntity
  8
X_tabelka
  6
ByLayer
 62
  256
370
   -1
100
AcDbDimension
  2
*D7
 10
-150
 20
295.0000000000003
 30
0
 11
-161.25
 21
377.5000000000003
 31
0
 70
   32
 71
    5
 72
    0
  3
Standard
 53
0
210
0
220
0
230
1
100
AcDbAlignedDimension
 13
26
 23
460.0000000000003
 33
0
 14
26
 24
295.0000000000003
 34
0
 50
90
100
AcDbRotatedDimension
  0
DIMENSION
  5
231
100
AcDbEntity
  8
X_tabelka
  6
ByLayer
 62
  256
370
   -1
100
AcDbDimension
  2
*D8
 10
-150
 20
26.00000000000002
 30
0
 11
-161.25
 21
153.5000000000001
 31
0
 70
   32
 71
    5
 72
    0
  3
Standard
 53
0
210
0
220
0
230
1
100
AcDbAlignedDimension
 13
25.99999999999999
 23
281.0000000000003
 33
0
 14
26
 24
26
 34
0
 50
90
100
AcDbRotatedDimension
  0
DIMENSION
  5
232
100
AcDbEntity
  8
X_tabelka
  6
ByLayer
 62
  256
370
   -1
100
AcDbDimension
  2
*D9
 10
-150
 20
-200
 30
0
 11
-161.25
 21
-100
 31
0
 70
   32
 71
    5
 72
    0
  3
Standard
 53
0
210
0
220
0
230
1
100
AcDbAlignedDimension
 13
250
 23
0
 33
0
 14
250
 24
-200
 34
0
 50
90
100
AcDbRotatedDimension
  0
LWPOLYLINE
  5
233
100
AcDbEntity
  8
X_tabelka
  6
ByLayer
 62
  256
370
   40
100
AcDbPolyline
 90
    5
 70
    1
 43
0
 10
2718.580871230696
 20
-225.566655929425
 10
2018.580871230696
 20
-225.566655929425
 10
2018.580871230696
 20
-425.566655929425
 10
2718.580871230696
 20
-425.566655929425
 10
2718.580871230696
 20
-425.566655929425
  0
LWPOLYLINE
  5
234
100
AcDbEntity
  8
X_tabelka
  6
ByLayer
 62
  256
370
   -1
100
AcDbPolyline
 90
    4
 70
    1
 43
0
 10
2018.580871230696
 20
-225.566655929425
 10
2718.580871230696
 20
-225.566655929425
 10
2718.580871230696
 20
-325.566655929425
 10
2018.580871230696
 20
-325.566655929425
  0
LWPOLYLINE
  5
235
100
AcDbEntity
  8
X_tabelka
  6
ByLayer
 62
  256
370
   -1
100
AcDbPolyline
 90
    4
 70
    1
 43
0
 10
2018.580871230696
 20
-325.566655929425
 10
2118.580871230696
 20
-325.566655929425
 10
2118.580871230696
 20
-225.566655929425
 10
2018.580871230696
 20
-225.566655929425
  0
LWPOLYLINE
  5
236
100
AcDbEntity
  8
X_tabelka
  6
ByLayer
 62
  256
370
   -1
100
AcDbPolyline
 90
    4
 70
    1
 43
0
 10
2718.580871230696
 20
-225.566655929425
 10
2618.580871230696
 20
-225.566655929425
 10
2618.580871230696
 20
-325.566655929425
 10
2718.580871230696
 20
-325.566655929425
  0
LWPOLYLINE
  5
237
100
AcDbEntity
  8
X_tabelka
  6
ByLayer
 62
  256
370
   -1
100
AcDbPolyline
 90
    4
 70
    1
 43
0
 10
2618.580871230696
 20
-325.566655929425
 10
2718.580871230696
 20
-325.566655929425
 10
2718.580871230696
 20
-425.566655929425
 10
2618.580871230696
 20
-425.566655929425
  0
LWPOLYLINE
  5
238
100
AcDbEntity
  8
X_tabelka
  6
ByLayer
 62
  256
370
   -1
100
AcDbPolyline
 90
    4
 70
    1
 43
0
 10
2518.580871230696
 20
-325.566655929425
 10
2618.580871230696
 20
-325.566655929425
 10
2618.580871230696
 20
-425.566655929425
 10
2518.580871230696
 20
-425.566655929425
  0
LWPOLYLINE
  5
239
100
AcDbEntity
  8
X_tabelka
  6
ByLayer
 62
  256
370
   -1
100
AcDbPolyline
 90
    4
 70
    1
 43
0
 10
2618.580871230696
 20
-375.566655929425
 10
2718.580871230696
 20
-375.566655929425
 10
2718.580871230696
 20
-325.566655929425
 10
2618.580871230696
 20
-325.566655929425
  0
LWPOLYLINE
  5
23A
100
AcDbEntity
  8
X_tabelka
  6
ByLayer
 62
  256
370
   -1
100
AcDbPolyline
 90
    4
 70
    1
 43
0
 10
2018.580871230696
 20
-225.566655929425
 10
2118.580871230696
 20
-225.566655929425
 10
2118.580871230696
 20
-275.566655929425
 10
2018.580871230696
 20
-275.566655929425
  0
LWPOLYLINE
  5
23B
100
AcDbEntity
  8
X_tabelka
  6
ByLayer
 62
  256
370
   -1
100
AcDbPolyline
 90
    4
 70
    1
 43
0
 10
2118.580871230696
 20
-325.566655929425
 10
2228.580871230696
 20
-325.566655929425
 10
2228.580871230696
 20
-425.566655929425
 10
2118.580871230696
 20
-425.566655929425
  0
LWPOLYLINE
  5
23C
100
AcDbEntity
  8
X_tabelka
  6
ByLayer
 62
  256
370
   -1
100
AcDbPolyline
 90
    4
 70
    1
 43
0
 10
2118.580871230696
 20
-325.566655929425
 10
2618.580871230696
 20
-325.566655929425
 10
2618.580871230696
 20
-375.566655929425
 10
2118.580871230696
 20
-375.566655929425
  0
TEXT
  5
23D
100
AcDbEntity
  8
X_tabelka
  6
ByLayer
 62
  256
370
   -1
100
AcDbText
 10
2668.580871230696
 20
-400.566655929425
 30
0
 40
30
  1
2
 50
0
 41
1
 51
0
  7
STANDARD
 71
    0
 72
    1
 11
2668.580871230696
 21
-400.566655929425
 31
0
210
0
220
0
230
1
100
AcDbText
 73
    2
  0
LWPOLYLINE
  5
23E
100
AcDbEntity
  8
sketch
  6
ByLayer
 62
  256
370
   -1
100
AcDbPolyline
 90
    4
 70
    1
 43
0
 10
2026
 20
296.0000000000003
 10
2474
 20
296.0000000000003
 10
2474
 20
26
 10
2026
 20
26
  0
LWPOLYLINE
  5
23F
100
AcDbEntity
  8
X_ramka_pietro
  6
ByLayer
 62
  256
370
   -1
100
AcDbPolyline
 90
    5
 70
    1
 43
0
 10
1768.580871230696
 20
959.433344070575
 10
2718.580871230696
 20
959.433344070575
 10
2718.580871230696
 20
-425.566655929425
 10
1768.580871230696
 20
-425.566655929425
 10
1768.580871230696
 20
-425.566655929425
  0
TEXT
  5
240
100
AcDbEntity
  8
X_tabelka
  6
ByLayer
 62
  256
370
   -1
100
AcDbText
 10
2068.580871230696
 20
-250.566655929425
 30
0
 40
15
  1
skala
 50
0
 41
1
 51
0
  7
STANDARD
 71
    0
 72
    1
 11
2068.580871230696
 21
-250.566655929425
 31
0
210
0
220
0
230
1
100
AcDbText
 73
    2
  0
TEXT
  5
241
100
AcDbEntity
  8
X_tabelka
  6
ByLayer
 62
  256
370
   -1
100
AcDbText
 10
2368.580871230696
 20
-275.566655929425
 30
0
 40
30
  1
rzut antresoli
 50
0
 41
1
 51
0
  7
STANDARD
 71
    0
 72
    1
 11
2368.580871230696
 21
-275.566655929425
 31
0
210
0
220
0
230
1
100
AcDbText
 73
    2
  0
TEXT
  5
242
100
AcDbEntity
  8
X_tabelka
  6
ByLayer
 62
  256
370
   -1
100
AcDbText
 10
2173.580871230696
 20
-350.566655929425
 30
0
 40
15
  1
Rysował
 50
0
 41
1
 51
0
  7
STANDARD
 71
    0
 72
    1
 11
2173.580871230696
 21
-350.566655929425
 31
0
210
0
220
0
230
1
100
AcDbText
 73
    2
  0
TEXT
  5
243
100
AcDbEntity
  8
X_tabelka
  6
ByLayer
 62
  256
370
   -1
100
AcDbText
 10
2173.580871230696
 20
-400.566655929425
 30
0
 40
15
  1
Sprawdzał
 50
0
 41
1
 51
0
  7
STANDARD
 71
    0
 72
    1
 11
2173.580871230696
 21
-400.566655929425
 31
0
210
0
220
0
230
1
100
AcDbText
 73
    2
  0
TEXT
  5
244
100
AcDbEntity
  8
X_tabelka
  6
ByLayer
 62
  256
370
   -1
100
AcDbText
 10
2373.580871230696
 20
-350.566655929425
 30
0
 40
15
  1
inż. Łukasz Szymankiewicz
 50
0
 41
1
 51
0
  7
STANDARD
 71
    0
 72
    1
 11
2373.580871230696
 21
-350.566655929425
 31
0
210
0
220
0
230
1
100
AcDbText
 73
    2
  0
TEXT
  5
245
100
AcDbEntity
  8
X_tabelka
  6
ByLayer
 62
  256
370
   -1
100
AcDbText
 10
2568.580871230696
 20
-350.566655929425
 30
0
 40
15
  1
Data
 50
0
 41
1
 51
0
  7
STANDARD
 71
    0
 72
    1
 11
2568.580871230696
 21
-350.566655929425
 31
0
210
0
220
0
230
1
100
AcDbText
 73
    2
  0
TEXT
  5
246
100
AcDbEntity
  8
X_tabelka
  6
ByLayer
 62
  256
370
   -1
100
AcDbText
 10
573.4017263077199
 20
-400.566655929425
 30
0
 40
15
  1
-
 50
0
 41
1
 51
0
  7
STANDARD
 71
    0
 72
    1
 11
573.4017263077199
 21
-400.566655929425
 31
0
210
0
220
0
230
1
100
AcDbText
 73
    2
  0
TEXT
  5
247
100
AcDbEntity
  8
X_tabelka
  6
ByLayer
 62
  256
370
   -1
100
AcDbText
 10
2568.580871230696
 20
-400.566655929425
 30
0
 40
15
  1
-
 50
0
 41
1
 51
0
  7
STANDARD
 71
    0
 72
    1
 11
2568.580871230696
 21
-400.566655929425
 31
0
210
0
220
0
230
1
100
AcDbText
 73
    2
  0
TEXT
  5
248
100
AcDbEntity
  8
X_tabelka
  6
ByLayer
 62
  256
370
   -1
100
AcDbText
 10
2668.580871230696
 20
-350.566655929425
 30
0
 40
15
  1
Nr rys.
 50
0
 41
1
 51
0
  7
STANDARD
 71
    0
 72
    1
 11
2668.580871230696
 21
-350.566655929425
 31
0
210
0
220
0
230
1
100
AcDbText
 73
    2
  0
LINE
  5
249
100
AcDbEntity
  8
sketch
  6
ByLayer
 62
  256
370
   -1
100
AcDbLine
 10
2081
 20
674
 11
2081
 21
296
  0
LINE
  5
24A
100
AcDbEntity
  8
sketch
  6
ByLayer
 62
  256
370
   -1
100
AcDbLine
 10
2419
 20
674
 11
2419
 21
376
  0
LINE
  5
24B
100
AcDbEntity
  8
sketch
  6
ByLayer
 62
  256
370
   -1
100
AcDbLine
 10
2402
 20
376
 11
2419
 21
376
  0
LWPOLYLINE
  5
24C
100
AcDbEntity
  8
W_izolacja_fundament
  6
ByLayer
 62
  256
370
   -1
100
AcDbPolyline
 90
    4
 70
    1
 43
0
 10
2790.347298838365
 20
-2560.838200173504
 10
2710.347298838365
 20
-2560.838200173504
 10
2710.347298838365
 20
-2960.838200173504
 10
2790.347298838365
 20
-2960.838200173504
  0
LINE
  5
24D
100
AcDbEntity
  8
W_grunt
  6
ByLayer
 62
  256
370
   -1
100
AcDbLine
 10
2710.347298838365
 20
-3260.838200173504
 11
3290.347298838365
 21
-3260.838200173504
  0
LINE
  5
24E
100
AcDbEntity
  8
W_grunt
  6
ByLayer
 62
  256
370
   -1
100
AcDbLine
 10
2110.347298838366
 20
-2660.838200173504
 11
2710.347298838365
 21
-2660.838200173504
  0
LINE
  5
24F
100
AcDbEntity
  8
W_grunt
  6
ByLayer
 62
  256
370
   -1
100
AcDbLine
 10
2710.347298838365
 20
-2660.838200173504
 11
2710.347298838365
 21
-2960.838200173504
  0
LINE
  5
250
100
AcDbEntity
  8
W_grunt
  6
ByLayer
 62
  256
370
   -1
100
AcDbLine
 10
2710.347298838365
 20
-2960.838200173504
 11
3290.347298838365
 21
-2960.838200173504
  0
LINE
  5
251
100
AcDbEntity
  8
W_grunt
  6
ByLayer
 62
  256
370
   -1
100
AcDbLine
 10
3290.347298838365
 20
-3260.838200173504
 11
2710.347298838365
 21
-3260.838200173504
  0
LINE
  5
252
100
AcDbEntity
  8
W_grunt
  6
ByLayer
 62
  256
370
   -1
100
AcDbLine
 10
2710.347298838365
 20
-3260.838200173504
 11
2110.347298838366
 21
-2660.838200173504
  0
LINE
  5
253
100
AcDbEntity
  8
W_grunt
  6
ByLayer
 62
  256
370
   -1
100
AcDbLine
 10
2110.347298838366
 20
-2660.838200173504
 11
2010.347298838366
 21
-2660.838200173504
  0
LINE
  5
254
100
AcDbEntity
  8
W_grunt
  6
ByLayer
 62
  256
370
   -1
100
AcDbLine
 10
3290.347298838365
 20
-3260.838200173504
 11
2710.347298838365
 21
-3260.838200173504
  0
LINE
  5
255
100
AcDbEntity
  8
W_grunt
  6
ByLayer
 62
  256
370
   -1
100
AcDbLine
 10
2710.347298838365
 20
-3260.838200173504
 11
2110.347298838366
 21
-2660.838200173504
  0
LINE
  5
256
100
AcDbEntity
  8
W_grunt
  6
ByLayer
 62
  256
370
   -1
100
AcDbLine
 10
2110.347298838366
 20
-2660.838200173504
 11
2010.347298838366
 21
-2660.838200173504
  0
TEXT
  5
257
100
AcDbEntity
  8
W_legenda
  6
ByLayer
 62
  256
370
   -1
100
AcDbText
 10
3340.347298838365
 20
-3460.838200173504
 30
0
 40
20
  1
grunt rodzimy
 50
0
 41
1
 51
0
  7

 71
    0
 11
3340.347298838365
 21
-3460.838200173504
 31
0
210
0
220
0
230
1
100
AcDbText
 73
    2
  0
TEXT
  5
258
100
AcDbEntity
  8
W_legenda
  6
ByLayer
 62
  256
370
   -1
100
AcDbText
 10
3340.347298838366
 20
-3110.838200173504
 30
0
 40
20
  1
piasek zagęszczony 30cm
 50
0
 41
1
 51
0
  7

 71
    0
 11
3340.347298838366
 21
-3110.838200173504
 31
0
210
0
220
0
230
1
100
AcDbText
 73
    2
  0
TEXT
  5
259
100
AcDbEntity
  8
W_legenda
  6
ByLayer
 62
  256
370
   -1
100
AcDbText
 10
3340.347298838366
 20
-2860.838200173504
 30
0
 40
20
  1
izolacja XPS 200mm
 50
0
 41
1
 51
0
  7

 71
    0
 11
3340.347298838366
 21
-2860.838200173504
 31
0
210
0
220
0
230
1
100
AcDbText
 73
    2
  0
LINE
  5
25A
100
AcDbEntity
  8
W_legenda
  6
ByLayer
 62
  256
370
   -1
100
AcDbLine
 10
2710.347298838365
 20
-2610.838200173504
 11
2500.533828674529
 21
-2610.838200173504
  0
LINE
  5
25B
100
AcDbEntity
  8
W_legenda
  6
ByLayer
 62
  256
370
   -1
100
AcDbLine
 10
2500.533828674529
 20
-2610.838200173504
 11
2324.791811820962
 21
-2335.616366870041
  0
LINE
  5
25C
100
AcDbEntity
  8
W_legenda
  6
ByLayer
 62
  256
370
   -1
100
AcDbLine
 10
2266.005556764502
 20
-2335.616366870041
 11
2324.791811820962
 21
-2335.616366870041
  0
LINE
  5
25D
100
AcDbEntity
  8
W_legenda
  6
ByLayer
 62
  256
370
   -1
100
AcDbLine
 10
2710.347298838365
 20
-2610.838200173504
 11
2693.026790762676
 21
-2620.838200173504
  0
LINE
  5
25E
100
AcDbEntity
  8
W_legenda
  6
ByLayer
 62
  256
370
   -1
100
AcDbLine
 10
2710.347298838365
 20
-2610.838200173504
 11
2693.026790762676
 21
-2600.838200173504
  0
LINE
  5
25F
100
AcDbEntity
  8
W_legenda
  6
ByLayer
 62
  256
370
   -1
100
AcDbLine
 10
2693.026790762676
 20
-2600.838200173504
 11
2693.026790762676
 21
-2620.838200173504
  0
TEXT
  5
260
100
AcDbEntity
  8
W_legenda
  6
ByLayer
 62
  256
370
   -1
100
AcDbText
 10
3097.343503700141
 20
-2238.338200173504
 30
0
 40
20
  1
ściana w konstrukcji szkieletowej
 50
0
 41
1
 51
0
  7

 71
    0
 11
3097.343503700141
 21
-2238.338200173504
 31
0
210
0
220
0
230
1
100
AcDbText
 73
    2
  0
MTEXT
  5
261
100
AcDbEntity
  8
W_legenda
  6
ByLayer
 62
  256
370
   -1
100
AcDbMText
 10
3340.347298838366
 20
-2660.838200173504
 30
0
 40
20
 41
426.1111111111189
 71
    4
 72
    1
  1
żelbetowa płyta fundamentowa\Pbeton C30 W8 + zbrojenie 8mm
  7

210
0
220
0
230
1
 50
0
 73
    2
 44
1
  0
LWPOLYLINE
  5
262
100
AcDbEntity
  8
W_zbrojenie
  6
ByLayer
 62
  256
370
   -1
100
AcDbPolyline
 90
    4
 70
    1
 43
0
 10
2988.024968368029
 20
-2578.515869703168
 10
2808.024968368029
 20
-2578.515869703168
 10
2808.024968368029
 20
-2743.160530643841
 10
2988.024968368029
 20
-2743.160530643841
  0
LINE
  5
263
100
AcDbEntity
  8
W_legenda
  6
ByLayer
 62
  256
370
   -1
100
AcDbLine
 10
2988.024968368029
 20
-2660.838200173504
 11
3005.345476443717
 21
-2650.838200173504
  0
LINE
  5
264
100
AcDbEntity
  8
W_legenda
  6
ByLayer
 62
  256
370
   -1
100
AcDbLine
 10
2988.024968368029
 20
-2660.838200173504
 11
3005.345476443717
 21
-2670.838200173504
  0
LINE
  5
265
100
AcDbEntity
  8
W_legenda
  6
ByLayer
 62
  256
370
   -1
100
AcDbLine
 10
3005.345476443717
 20
-2670.838200173504
 11
3005.345476443717
 21
-2650.838200173504
  0
LINE
  5
266
100
AcDbEntity
  8
W_legenda
  6
ByLayer
 62
  256
370
   -1
100
AcDbLine
 10
3005.35
 20
-2660.84
 11
3155.35
 21
-2660.84
  0
LINE
  5
267
100
AcDbEntity
  8
W_legenda
  6
ByLayer
 62
  256
370
   -1
100
AcDbLine
 10
3155.35
 20
-2660.84
 11
3296.77
 21
-2519.42
  0
LINE
  5
268
100
AcDbEntity
  8
W_legenda
  6
ByLayer
 62
  256
370
   -1
100
AcDbLine
 10
3296.77
 20
-2519.42
 11
3340.347298838366
 21
-2519.42
  0
TEXT
  5
269
100
AcDbEntity
  8
W_legenda
  6
ByLayer
 62
  256
370
   -1
100
AcDbText
 10
3340.347298838366
 20
-2519.42
 30
0
 40
20
  1
zbrojenie obwodowe
 50
0
 41
1
 51
0
  7

 71
    0
 11
3340.347298838366
 21
-2519.42
 31
0
210
0
220
0
230
1
100
AcDbText
 73
    2
  0
TEXT
  5
26A
100
AcDbEntity
  8
W_legenda
  6
ByLayer
 62
  256
370
   -1
100
AcDbText
 10
2266.005556764502
 20
-2335.616366870041
 30
0
 40
20
  1
XPS 80mm
 50
0
 41
1
 51
0
  7

 71
    0
 72
    2
 11
2266.005556764502
 21
-2335.616366870041
 31
0
210
0
220
0
230
1
100
AcDbText
 73
    2
  0
LINE
  5
26B
100
AcDbEntity
  8
W_plyta
  6
ByLayer
 62
  256
370
   -1
100
AcDbLine
 10
2790.347298838365
 20
-2560.838200173504
 11
3290.347298838365
 21
-2560.838200173504
  0
LINE
  5
26C
100
AcDbEntity
  8
W_plyta
  6
ByLayer
 62
  256
370
   -1
100
AcDbLine
 10
3290.347298838365
 20
-2760.838200173504
 11
2790.347298838365
 21
-2760.838200173504
  0
LINE
  5
26D
100
AcDbEntity
  8
W_plyta
  6
ByLayer
 62
  256
370
   -1
100
AcDbLine
 10
2790.347298838365
 20
-2760.838200173504
 11
2790.347298838365
 21
-2560.838200173504
  0
LINE
  5
26E
100
AcDbEntity
  8
W_izolacja_fundament
  6
ByLayer
 62
  256
370
   -1
100
AcDbLine
 10
2790.347298838365
 20
-2760.838200173504
 11
3290.347298838365
 21
-2760.838200173504
  0
LINE
  5
26F
100
AcDbEntity
  8
W_izolacja_fundament
  6
ByLayer
 62
  256
370
   -1
100
AcDbLine
 10
3290.347298838365
 20
-2960.838200173504
 11
2790.347298838365
 21
-2960.838200173504
  0
LINE
  5
270
100
AcDbEntity
  8
W_izolacja_fundament
  6
ByLayer
 62
  256
370
   -1
100
AcDbLine
 10
2790.347298838365
 20
-2960.838200173504
 11
2790.347298838365
 21
-2760.838200173504
  0
TEXT
  5
271
100
AcDbEntity
  8
X_tabelka
  6
ByLayer
 62
  256
370
   -1
100
AcDbText
 10
3724.94566233258
 20
-4401.285166440461
 30
0
 40
15
  1
-
 50
0
 41
1
 51
0
  7
STANDARD
 71
    0
 72
    1
 11
3724.94566233258
 21
-4401.285166440461
 31
0
210
0
220
0
230
1
100
AcDbText
 73
    2
  0
TEXT
  5
272
100
AcDbEntity
  8
X_tabelka
  6
ByLayer
 62
  256
370
   -1
100
AcDbText
 10
73.4017263077198
 20
-300.566655929425
 30
0
 40
15
  1
1:500
 50
0
 41
1
 51
0
  7

 71
    0
 72
    1
 11
73.4017263077198
 21
-300.566655929425
 31
0
210
0
220
0
230
1
100
AcDbText
 73
    2
  0
TEXT
  5
273
100
AcDbEntity
  8
X_tabelka
  6
ByLayer
 62
  256
370
   -1
100
AcDbText
 10
2068.580871230696
 20
-300.566655929425
 30
0
 40
15
  1
1:500
 50
0
 41
1
 51
0
  7

 71
    0
 72
    1
 11
2068.580871230696
 21
-300.566655929425
 31
0
210
0
220
0
230
1
100
AcDbText
 73
    2
  0
LWPOLYLINE
  5
274
100
AcDbEntity
  8
X_ramka_pietro
  6
ByLayer
 62
  256
370
   -1
100
AcDbPolyline
 90
    4
 70
    1
 43
0
 10
1874.945662332581
 20
-1556.285166440461
 10
3774.94566233258
 20
-1556.285166440461
 10
3774.94566233258
 20
-4326.285166440461
 10
1874.945662332581
 20
-4326.285166440461
  0
LWPOLYLINE
  5
275
100
AcDbEntity
  8
X_tabelka
  6
ByLayer
 62
  256
370
   40
100
AcDbPolyline
 90
    5
 70
    1
 43
0
 10
3774.94566233258
 20
-4126.285166440461
 10
3074.94566233258
 20
-4126.285166440461
 10
3074.94566233258
 20
-4326.285166440461
 10
3774.94566233258
 20
-4326.285166440461
 10
3774.94566233258
 20
-4326.285166440461
  0
LWPOLYLINE
  5
276
100
AcDbEntity
  8
X_tabelka
  6
ByLayer
 62
  256
370
   -1
100
AcDbPolyline
 90
    4
 70
    1
 43
0
 10
3074.94566233258
 20
-4126.285166440461
 10
3774.94566233258
 20
-4126.285166440461
 10
3774.94566233258
 20
-4226.285166440461
 10
3074.94566233258
 20
-4226.285166440461
  0
LWPOLYLINE
  5
277
100
AcDbEntity
  8
X_tabelka
  6
ByLayer
 62
  256
370
   -1
100
AcDbPolyline
 90
    4
 70
    1
 43
0
 10
3074.94566233258
 20
-4226.285166440461
 10
3174.94566233258
 20
-4226.285166440461
 10
3174.94566233258
 20
-4126.285166440461
 10
3074.94566233258
 20
-4126.285166440461
  0
LWPOLYLINE
  5
278
100
AcDbEntity
  8
X_tabelka
  6
ByLayer
 62
  256
370
   -1
100
AcDbPolyline
 90
    4
 70
    1
 43
0
 10
3774.94566233258
 20
-4126.285166440461
 10
3674.94566233258
 20
-4126.285166440461
 10
3674.94566233258
 20
-4226.285166440461
 10
3774.94566233258
 20
-4226.285166440461
  0
LWPOLYLINE
  5
279
100
AcDbEntity
  8
X_tabelka
  6
ByLayer
 62
  256
370
   -1
100
AcDbPolyline
 90
    4
 70
    1
 43
0
 10
3674.94566233258
 20
-4226.285166440461
 10
3774.94566233258
 20
-4226.285166440461
 10
3774.94566233258
 20
-4326.285166440461
 10
3674.94566233258
 20
-4326.285166440461
  0
LWPOLYLINE
  5
27A
100
AcDbEntity
  8
X_tabelka
  6
ByLayer
 62
  256
370
   -1
100
AcDbPolyline
 90
    4
 70
    1
 43
0
 10
3574.94566233258
 20
-4226.285166440461
 10
3674.94566233258
 20
-4226.285166440461
 10
3674.94566233258
 20
-4326.285166440461
 10
3574.94566233258
 20
-4326.285166440461
  0
LWPOLYLINE
  5
27B
100
AcDbEntity
  8
X_tabelka
  6
ByLayer
 62
  256
370
   -1
100
AcDbPolyline
 90
    4
 70
    1
 43
0
 10
3674.94566233258
 20
-4276.285166440461
 10
3774.94566233258
 20
-4276.285166440461
 10
3774.94566233258
 20
-4226.285166440461
 10
3674.94566233258
 20
-4226.285166440461
  0
LWPOLYLINE
  5
27C
100
AcDbEntity
  8
X_tabelka
  6
ByLayer
 62
  256
370
   -1
100
AcDbPolyline
 90
    4
 70
    1
 43
0
 10
3074.94566233258
 20
-4126.285166440461
 10
3174.94566233258
 20
-4126.285166440461
 10
3174.94566233258
 20
-4176.285166440461
 10
3074.94566233258
 20
-4176.285166440461
  0
LWPOLYLINE
  5
27D
100
AcDbEntity
  8
X_tabelka
  6
ByLayer
 62
  256
370
   -1
100
AcDbPolyline
 90
    4
 70
    1
 43
0
 10
3174.94566233258
 20
-4226.285166440461
 10
3284.94566233258
 20
-4226.285166440461
 10
3284.94566233258
 20
-4326.285166440461
 10
3174.94566233258
 20
-4326.285166440461
  0
LWPOLYLINE
  5
27E
100
AcDbEntity
  8
X_tabelka
  6
ByLayer
 62
  256
370
   -1
100
AcDbPolyline
 90
    4
 70
    1
 43
0
 10
3174.94566233258
 20
-4226.285166440461
 10
3674.94566233258
 20
-4226.285166440461
 10
3674.94566233258
 20
-4276.285166440461
 10
3174.94566233258
 20
-4276.285166440461
  0
TEXT
  5
27F
100
AcDbEntity
  8
X_tabelka
  6
ByLayer
 62
  256
370
   -1
100
AcDbText
 10
3124.94566233258
 20
-4201.285166440461
 30
0
 40
15
  1
1:500
 50
0
 41
1
 51
0
  7

 71
    0
 72
    1
 11
3124.94566233258
 21
-4201.285166440461
 31
0
210
0
220
0
230
1
100
AcDbText
 73
    2
  0
MTEXT
  5
280
100
AcDbEntity
  8
X_tabelka
  6
ByLayer
 62
  256
370
   -1
100
AcDbMText
 10
3424.94566233258
 20
-4176.285166440461
 30
0
 40
30
 41
293.3333333333403
 71
    5
 72
    1
  1
przekrój płyty \Pfundamentowej
  7

210
0
220
0
230
1
 50
0
 73
    2
 44
1
  0
TEXT
  5
281
100
AcDbEntity
  8
X_tabelka
  6
ByLayer
 62
  256
370
   -1
100
AcDbText
 10
3124.94566233258
 20
-4151.285166440461
 30
0
 40
15
  1
skala
 50
0
 41
1
 51
0
  7

 71
    0
 72
    1
 11
3124.94566233258
 21
-4151.285166440461
 31
0
210
0
220
0
230
1
100
AcDbText
 73
    2
  0
TEXT
  5
282
100
AcDbEntity
  8
X_tabelka
  6
ByLayer
 62
  256
370
   -1
100
AcDbText
 10
3229.94566233258
 20
-4301.285166440461
 30
0
 40
15
  1
Sprawdzał
 50
0
 41
1
 51
0
  7

 71
    0
 72
    1
 11
3229.94566233258
 21
-4301.285166440461
 31
0
210
0
220
0
230
1
100
AcDbText
 73
    2
  0
TEXT
  5
283
100
AcDbEntity
  8
X_tabelka
  6
ByLayer
 62
  256
370
   -1
100
AcDbText
 10
3624.94566233258
 20
-4251.285166440461
 30
0
 40
15
  1
Data
 50
0
 41
1
 51
0
  7

 71
    0
 72
    1
 11
3624.94566233258
 21
-4251.285166440461
 31
0
210
0
220
0
230
1
100
AcDbText
 73
    2
  0
TEXT
  5
284
100
AcDbEntity
  8
X_tabelka
  6
ByLayer
 62
  256
370
   -1
100
AcDbText
 10
3624.94566233258
 20
-4301.285166440461
 30
0
 40
15
  1
-
 50
0
 41
1
 51
0
  7

 71
    0
 72
    1
 11
3624.94566233258
 21
-4301.285166440461
 31
0
210
0
220
0
230
1
100
AcDbText
 73
    2
  0
TEXT
  5
285
100
AcDbEntity
  8
X_tabelka
  6
ByLayer
 62
  256
370
   -1
100
AcDbText
 10
3229.94566233258
 20
-4251.285166440461
 30
0
 40
15
  1
Rysował
 50
0
 41
1
 51
0
  7

 71
    0
 72
    1
 11
3229.94566233258
 21
-4251.285166440461
 31
0
210
0
220
0
230
1
100
AcDbText
 73
    2
  0
TEXT
  5
286
100
AcDbEntity
  8
X_tabelka
  6
ByLayer
 62
  256
370
   -1
100
AcDbText
 10
3429.94566233258
 20
-4251.285166440461
 30
0
 40
15
  1
inż. Łukasz Szymankiewicz
 50
0
 41
1
 51
0
  7

 71
    0
 72
    1
 11
3429.94566233258
 21
-4251.285166440461
 31
0
210
0
220
0
230
1
100
AcDbText
 73
    2
  0
TEXT
  5
287
100
AcDbEntity
  8
X_tabelka
  6
ByLayer
 62
  256
370
   -1
100
AcDbText
 10
3724.94566233258
 20
-4251.285166440461
 30
0
 40
15
  1
Nr rys.
 50
0
 41
1
 51
0
  7

 71
    0
 72
    1
 11
3724.94566233258
 21
-4251.285166440461
 31
0
210
0
220
0
230
1
100
AcDbText
 73
    2
  0
TEXT
  5
288
100
AcDbEntity
  8
X_tabelka
  6
ByLayer
 62
  256
370
   -1
100
AcDbText
 10
3724.94566233258
 20
-4301.285166440461
 30
0
 40
20
  1
3
 50
0
 41
1
 51
0
  7

 71
    0
 72
    1
 11
3724.94566233258
 21
-4301.285166440461
 31
0
210
0
220
0
230
1
100
AcDbText
 73
    2
  0
LINE
  5
289
100
AcDbEntity
  8
W_elewacja
  6
ByLayer
 62
  256
370
   -1
100
AcDbLine
 10
2685.347298838365
 20
-2560.838200173504
 11
2685.347298838365
 21
-1915.838200173504
  0
LINE
  5
28A
100
AcDbEntity
  8
W_elewacja
  6
ByLayer
 62
  256
370
   -1
100
AcDbLine
 10
2664.347298838365
 20
-1915.838200173504
 11
2664.347298838365
 21
-2560.838200173504
  0
LINE
  5
28B
100
AcDbEntity
  8
W_elewacja
  6
ByLayer
 62
  256
370
   -1
100
AcDbLine
 10
2664.347298838365
 20
-2560.838200173504
 11
2685.347298838365
 21
-2560.838200173504
  0
LINE
  5
28C
100
AcDbEntity
  8
W_belki
  6
ByLayer
 62
  256
370
   -1
100
AcDbLine
 10
2685.347298838365
 20
-1915.838200173504
 11
2685.347298838365
 21
-2560.838200173504
  0
LINE
  5
28D
100
AcDbEntity
  8
W_belki
  6
ByLayer
 62
  256
370
   -1
100
AcDbLine
 10
2685.347298838365
 20
-2560.838200173504
 11
2710.347298838365
 21
-2560.838200173504
  0
LINE
  5
28E
100
AcDbEntity
  8
W_belki
  6
ByLayer
 62
  256
370
   -1
100
AcDbLine
 10
2710.347298838365
 20
-2560.838200173504
 11
2710.347298838365
 21
-1915.838200173504
  0
LINE
  5
28F
100
AcDbEntity
  8
W_poszycie
  6
ByLayer
 62
  256
370
   -1
100
AcDbLine
 10
2750.347298838365
 20
-2560.838200173504
 11
2750.347298838365
 21
-1915.838200173504
  0
LINE
  5
290
100
AcDbEntity
  8
W_poszycie
  6
ByLayer
 62
  256
370
   -1
100
AcDbLine
 10
2710.347298838365
 20
-1915.838200173504
 11
2710.347298838365
 21
-2560.838200173504
  0
LINE
  5
291
100
AcDbEntity
  8
W_poszycie
  6
ByLayer
 62
  256
370
   -1
100
AcDbLine
 10
2710.347298838365
 20
-2560.838200173504
 11
2750.347298838365
 21
-2560.838200173504
  0
LINE
  5
292
100
AcDbEntity
  8
W_izolacja
  6
ByLayer
 62
  256
370
   -1
100
AcDbLine
 10
2750.347298838365
 20
-2560.838200173504
 11
2750.347298838365
 21
-1915.838200173504
  0
LINE
  5
293
100
AcDbEntity
  8
W_izolacja
  6
ByLayer
 62
  256
370
   -1
100
AcDbLine
 10
2895.347298838365
 20
-1915.838200173504
 11
2895.347298838365
 21
-2560.838200173504
  0
LINE
  5
294
100
AcDbEntity
  8
W_izolacja
  6
ByLayer
 62
  256
370
   -1
100
AcDbLine
 10
2895.347298838365
 20
-2560.838200173504
 11
2750.347298838365
 21
-2560.838200173504
  0
LINE
  5
295
100
AcDbEntity
  8
W_izolacja
  6
ByLayer
 62
  256
370
   -1
100
AcDbLine
 10
2895.347298838365
 20
-2560.838200173504
 11
2895.347298838365
 21
-1915.838200173504
  0
LINE
  5
296
100
AcDbEntity
  8
W_izolacja
  6
ByLayer
 62
  256
370
   -1
100
AcDbLine
 10
2940.347298838365
 20
-1915.838200173504
 11
2940.347298838365
 21
-2560.838200173504
  0
LINE
  5
297
100
AcDbEntity
  8
W_izolacja
  6
ByLayer
 62
  256
370
   -1
100
AcDbLine
 10
2940.347298838365
 20
-2560.838200173504
 11
2895.347298838365
 21
-2560.838200173504
  0
LINE
  5
298
100
AcDbEntity
  8
W_płyta
  6
ByLayer
 62
  256
370
   -1
100
AcDbLine
 10
2940.347298838365
 20
-2560.838200173504
 11
2940.347298838365
 21
-1915.838200173504
  0
LINE
  5
299
100
AcDbEntity
  8
W_płyta
  6
ByLayer
 62
  256
370
   -1
100
AcDbLine
 10
2958.347298838365
 20
-1915.838200173504
 11
2958.347298838365
 21
-2560.838200173504
  0
LINE
  5
29A
100
AcDbEntity
  8
W_płyta
  6
ByLayer
 62
  256
370
   -1
100
AcDbLine
 10
2958.347298838365
 20
-2560.838200173504
 11
2940.347298838365
 21
-2560.838200173504
  0
CIRCLE
  5
29B
100
AcDbEntity
  8
W_legenda
  6
ByLayer
 62
  256
370
   -1
100
AcDbCircle
 10
-176.745044808886
 20
-1619.229917567552
 40
10
  0
TEXT
  5
29C
100
AcDbEntity
  8
W_legenda
  6
ByLayer
 62
  256
370
   -1
100
AcDbText
 10
-176.745044808886
 20
-1619.229917567552
 30
0
 40
10
  1
6
 50
0
 41
1
 51
0
  7
standard
 71
    0
 72
    1
 11
-176.745044808886
 21
-1619.229917567552
 31
0
210
0
220
0
230
1
100
AcDbText
 73
    2
  0
LWPOLYLINE
  5
29D
100
AcDbEntity
  8
W_belki
  6
ByLayer
 62
  256
370
   -1
100
AcDbPolyline
 90
    4
 70
    1
 43
0
 10
-126.7450448088858
 20
-1619.229917567552
 10
-81.74504480888584
 20
-1619.229917567552
 10
-81.74504480888584
 20
-1594.229917567552
 10
-126.7450448088858
 20
-1594.229917567552
  0
LWPOLYLINE
  5
29E
100
AcDbEntity
  8
W_belki
  6
ByLayer
 62
  256
370
   -1
100
AcDbPolyline
 90
    4
 70
    1
 43
0
 10
473.2549551911142
 20
-1619.229917567552
 10
518.2549551911142
 20
-1619.229917567552
 10
518.2549551911142
 20
-1594.229917567552
 10
473.2549551911142
 20
-1594.229917567552
  0
CIRCLE
  5
29F
100
AcDbEntity
  8
W_legenda
  6
ByLayer
 62
  256
370
   -1
100
AcDbCircle
 10
568.2549551911142
 20
-1606.729917567552
 40
10
  0
TEXT
  5
2A0
100
AcDbEntity
  8
W_legenda
  6
ByLayer
 62
  256
370
   -1
100
AcDbText
 10
568.2549551911142
 20
-1606.729917567552
 30
0
 40
10
  1
7
 50
0
 41
1
 51
0
  7
standard
 71
    0
 72
    1
 11
568.2549551911142
 21
-1606.729917567552
 31
0
210
0
220
0
230
1
100
AcDbText
 73
    2
  0
LWPOLYLINE
  5
2A1
100
AcDbEntity
  8
W_elewacja
  6
ByLayer
 62
  256
370
   -1
100
AcDbPolyline
 90
    4
 70
    1
 43
0
 10
-126.7450448088858
 20
-1594.229917567552
 10
518.2549551911142
 20
-1594.229917567552
 10
518.2549551911142
 20
-1573.229917567552
 10
-126.7450448088858
 20
-1573.229917567552
  0
CIRCLE
  5
2A2
100
AcDbEntity
  8
W_legenda
  6
ByLayer
 62
  256
370
   -1
100
AcDbCircle
 10
568.2549551911142
 20
-1583.729917567552
 40
10
  0
TEXT
  5
2A3
100
AcDbEntity
  8
W_legenda
  6
ByLayer
 62
  256
370
   -1
100
AcDbText
 10
568.2549551911142
 20
-1583.729917567552
 30
0
 40
10
  1
8
 50
0
 41
1
 51
0
  7
standard
 71
    0
 72
    1
 11
568.2549551911142
 21
-1583.729917567552
 31
0
210
0
220
0
230
1
100
AcDbText
 73
    2
  0
LINE
  5
2A4
100
AcDbEntity
  8
W_legenda
  6
ByLayer
 62
  256
370
   -1
100
AcDbLine
 10
578.2549551911142
 20
-1583.729917567552
 11
608.2549551911142
 21
-1583.729917567552
  0
LINE
  5
2A5
100
AcDbEntity
  8
W_legenda
  6
ByLayer
 62
  256
370
   -1
100
AcDbLine
 10
578.2549551911142
 20
-1606.729917567552
 11
608.2549551911142
 21
-1606.729917567552
  0
TEXT
  5
2A6
100
AcDbEntity
  8
W_legenda
  6
ByLayer
 62
  256
370
   -1
100
AcDbText
 10
-216.745044808886
 20
-1619.053699345251
 30
0
 40
10
  1
wiatroizolacja
 50
0
 41
1
 51
0
  7
standard
 71
    0
 72
    2
 11
-216.745044808886
 21
-1619.053699345251
 31
0
210
0
220
0
230
1
100
AcDbText
 73
    2
  0
TEXT
  5
2A7
100
AcDbEntity
  8
W_legenda
  6
ByLayer
 62
  256
370
   -1
100
AcDbText
 10
608.2549551911142
 20
-1606.906135789853
 30
0
 40
10
  1
kontrłaty 25mm
 50
0
 41
1
 51
0
  7
standard
 71
    0
 11
608.2549551911142
 21
-1606.906135789853
 31
0
210
0
220
0
230
1
100
AcDbText
 73
    2
  0
TEXT
  5
2A8
100
AcDbEntity
  8
W_legenda
  6
ByLayer
 62
  256
370
   -1
100
AcDbText
 10
608.2549551911142
 20
-1583.906135789853
 30
0
 40
10
  1
fasada 19mm
 50
0
 41
1
 51
0
  7
standard
 71
    0
 11
608.2549551911142
 21
-1583.906135789853
 31
0
210
0
220
0
230
1
100
AcDbText
 73
    2
  0
LWPOLYLINE
  5
2A9
100
AcDbEntity
  8
W_poszycie
  6
ByLayer
 62
  256
370
   -1
100
AcDbPolyline
 90
    4
 70
    1
 43
0
 10
-126.7450448088859
 20
-1659.229917567552
 10
518.2549551911142
 20
-1659.229917567552
 10
518.2549551911142
 20
-1619.229917567552
 10
-126.7450448088858
 20
-1619.229917567552
  0
CIRCLE
  5
2AA
100
AcDbEntity
  8
W_legenda
  6
ByLayer
 62
  256
370
   -1
100
AcDbCircle
 10
568.2549551911142
 20
-1639.229917567552
 40
10
  0
TEXT
  5
2AB
100
AcDbEntity
  8
W_legenda
  6
ByLayer
 62
  256
370
   -1
100
AcDbText
 10
568.2549551911142
 20
-1639.229917567552
 30
0
 40
10
  1
5
 50
0
 41
1
 51
0
  7
standard
 71
    0
 72
    1
 11
568.2549551911142
 21
-1639.229917567552
 31
0
210
0
220
0
230
1
100
AcDbText
 73
    2
  0
LINE
  5
2AC
100
AcDbEntity
  8
W_legenda
  6
ByLayer
 62
  256
370
   -1
100
AcDbLine
 10
578.2549551911142
 20
-1639.229917567552
 11
608.2549551911142
 21
-1639.229917567552
  0
TEXT
  5
2AD
100
AcDbEntity
  8
W_legenda
  6
ByLayer
 62
  256
370
   -1
100
AcDbText
 10
608.2549551911142
 20
-1639.229917567552
 30
0
 40
10
  1
Steico Protect H 40mm
 50
0
 41
1
 51
0
  7
standard
 71
    0
 11
608.2549551911142
 21
-1639.229917567552
 31
0
210
0
220
0
230
1
100
AcDbText
 73
    2
  0
LWPOLYLINE
  5
2AE
100
AcDbEntity
  8
X_ramka_przekroj_sciany
  6
ByLayer
 62
  256
370
   -1
100
AcDbPolyline
 90
    5
 70
    1
 43
0
 10
956.4781676819961
 20
-1257.455379208375
 10
956.4781676819958
 20
-2207.455379208375
 10
-428.5218323180044
 20
-2207.455379208374
 10
-428.5218323180042
 20
-1257.455379208374
 10
-428.5218323180042
 20
-1257.455379208374
  0
ENDSEC
  0
SECTION
  2
OBJECTS
  0
DICTIONARY
  5
C
330
0
100
AcDbDictionary
281
    1
  3
ACAD_GROUP
350
D
  0
DICTIONARY
  5
D
330
C
100
AcDbDictionary
281
    1
  0
ENDSEC
  0
EOF
